SplineFontDB: 3.0
FontName: Boon-500
FullName: Boon 500
FamilyName: Boon
Weight: 500
Copyright: Copyright 2013-2015, Sungsit Sawaiwan (https://fontuni.com | uni@fontuni.com). This Font Software is licensed under the SIL Open Font License, Version 1.1 (http://scripts.sil.org/OFL).
Version: 1.0
ItalicAngle: 0
UnderlinePosition: -120
UnderlineWidth: 60
Ascent: 960
Descent: 240
InvalidEm: 0
sfntRevision: 0x00010000
LayerCount: 2
Layer: 0 0 "Back" 1
Layer: 1 0 "Fore" 0
XUID: [1021 556 -266790205 7891173]
StyleMap: 0x0000
FSType: 0
OS2Version: 3
OS2_WeightWidthSlopeOnly: 0
OS2_UseTypoMetrics: 0
CreationTime: 1369324892
ModificationTime: 1445629899
PfmFamily: 17
TTFWeight: 500
TTFWidth: 5
LineGap: 90
VLineGap: 0
Panose: 2 0 5 3 0 0 0 0 0 0
OS2TypoAscent: 960
OS2TypoAOffset: 0
OS2TypoDescent: -240
OS2TypoDOffset: 0
OS2TypoLinegap: 90
OS2WinAscent: 1320
OS2WinAOffset: 0
OS2WinDescent: 480
OS2WinDOffset: 0
HheadAscent: 1320
HheadAOffset: 0
HheadDescent: -480
HheadDOffset: 0
OS2SubXSize: 780
OS2SubYSize: 840
OS2SubXOff: 0
OS2SubYOff: 168
OS2SupXSize: 780
OS2SupYSize: 840
OS2SupXOff: 0
OS2SupYOff: 576
OS2StrikeYSize: 59
OS2StrikeYPos: 310
OS2CapHeight: 780
OS2XHeight: 600
OS2Vendor: 'FUni'
OS2CodePages: 20010193.00000000
OS2UnicodeRanges: a30000ff.5000207b.00000000.00000000
Lookup: 1 0 0 "ThaiRC.rd" { "ThaiRC.rd subtable"  } ['ccmp' ('thai' <'PAL ' 'SAN ' > ) 'locl' ('thai' <'PAL ' 'SAN ' > ) 'ss01' ('thai' <'dflt' > ) ]
Lookup: 6 0 0 "ThaiContextRC.rd" { "ThaiContextRC.rd subtable"  } ['ccmp' ('thai' <'dflt' > ) ]
Lookup: 2 0 0 "ThaiDecomp" { "ThaiDecomp subtable"  } ['ccmp' ('thai' <'dflt' > ) ]
Lookup: 1 0 0 "ThaiT.0E4D" { "ThaiT.0E4D subtable"  } []
Lookup: 1 0 0 "Thai0E4D.0E48" { "Thai0E4D.0E48 subtable"  } []
Lookup: 1 0 0 "Thai0E4D.0E49" { "Thai0E4D.0E49 subtable"  } []
Lookup: 1 0 0 "Thai0E4D.0E4A" { "Thai0E4D.0E4A subtable"  } []
Lookup: 1 0 0 "Thai0E4D.0E4B" { "Thai0E4D.0E4B subtable"  } []

StartChar: .notdef
Encoding: 65536 -1 0
Width: 660
Flags: W
LayerCount: 2
Fore
SplineSet
95 0 m 1
 95 600 l 1
 330 600 l 1
 565 600 l 1
 565 0 l 1
 330 0 l 1
 95 0 l 1
330 86 m 1
 458 86 l 1
 458 514 l 1
 330 514 l 1
 202 514 l 1
 202 86 l 1
 330 86 l 1
EndSplineSet
EndChar

StartChar: exclam
Encoding: 33 33 5
Width: 330
GlyphClass: 2
Flags: W
LayerCount: 2
Fore
SplineSet
96 810 m 1
 234 810 l 1
 205 270 l 1
 125 270 l 1
 96 810 l 1
165 144 m 0
 210 144 245 116 245 70 c 0
 245 24 210 -4 165 -4 c 0
 120 -4 85 24 85 70 c 0
 85 116 120 144 165 144 c 0
EndSplineSet
EndChar

StartChar: quotedbl
Encoding: 34 34 6
Width: 540
GlyphClass: 2
Flags: W
LayerCount: 2
Fore
SplineSet
325 900 m 1
 435 900 l 1
 417 540 l 1
 344 540 l 1
 325 900 l 1
105 900 m 1
 215 900 l 1
 197 540 l 1
 124 540 l 1
 105 900 l 1
EndSplineSet
EndChar

StartChar: numbersign
Encoding: 35 35 7
Width: 810
GlyphClass: 2
Flags: W
LayerCount: 2
Fore
SplineSet
50 206 m 1
 50 284 l 1
 186 284 l 1
 244 496 l 1
 110 496 l 1
 110 574 l 1
 265 574 l 1
 320 780 l 1
 413 780 l 1
 358 574 l 1
 552 574 l 1
 607 780 l 1
 700 780 l 1
 645 574 l 1
 760 574 l 1
 760 496 l 1
 624 496 l 1
 566 284 l 1
 700 284 l 1
 700 206 l 1
 545 206 l 1
 490 0 l 1
 397 0 l 1
 452 206 l 1
 258 206 l 1
 203 0 l 1
 110 0 l 1
 165 206 l 1
 50 206 l 1
337 496 m 1
 279 284 l 1
 473 284 l 1
 531 496 l 1
 337 496 l 1
EndSplineSet
EndChar

StartChar: dollar
Encoding: 36 36 8
Width: 660
GlyphClass: 2
Flags: W
LayerCount: 2
Fore
SplineSet
60 185 m 1
 177 192 l 1
 187 128 243 72 331 72 c 0
 425 72 483 115 483 203 c 0
 483 282 424 312 393 323 c 0
 342 339 269 368 219 388 c 0
 152 416 78 475 78 581 c 0
 78 686 152 778 292 792 c 1
 292 900 l 1
 378 900 l 1
 378 791 l 1
 517 771 573 666 583 600 c 1
 466 591 l 1
 456 656 408 708 331 708 c 0
 258 708 195 668 195 581 c 0
 195 514 249 487 288 471 c 0
 338 451 408 423 452 409 c 0
 528 384 600 323 600 203 c 0
 600 98 527 4 378 -12 c 1
 378 -120 l 1
 292 -120 l 1
 292 -12 l 1
 135 4 70 115 60 185 c 1
EndSplineSet
EndChar

StartChar: percent
Encoding: 37 37 9
Width: 780
GlyphClass: 2
Flags: W
LayerCount: 2
Fore
SplineSet
476 186 m 2
 476 204 l 2
 476 288 499 400 615 400 c 0
 731 400 754 288 754 204 c 2
 754 186 l 2
 754 102 731 -10 615 -10 c 0
 499 -10 476 102 476 186 c 2
615 42 m 0
 653 42 682 90 682 186 c 2
 682 204 l 2
 682 300 653 348 615 348 c 0
 577 348 548 300 548 204 c 2
 548 186 l 2
 548 90 577 42 615 42 c 0
26 576 m 2
 26 594 l 2
 26 678 49 790 165 790 c 0
 281 790 304 678 304 594 c 2
 304 576 l 2
 304 492 281 380 165 380 c 0
 49 380 26 492 26 576 c 2
165 432 m 0
 203 432 232 480 232 576 c 2
 232 594 l 2
 232 690 203 738 165 738 c 0
 127 738 98 690 98 594 c 2
 98 576 l 2
 98 480 127 432 165 432 c 0
75 0 m 1
 75 6 l 1
 631 780 l 1
 705 780 l 1
 705 774 l 1
 149 0 l 1
 75 0 l 1
EndSplineSet
EndChar

StartChar: ampersand
Encoding: 38 38 10
Width: 810
GlyphClass: 2
Flags: W
LayerCount: 2
Fore
SplineSet
648 153 m 1
 727 71 790 6 790 6 c 1
 790 0 l 1
 657 0 l 1
 657 0 626 33 581 81 c 1
 511 20 420 -19 313 -19 c 0
 145 -19 65 69 65 171 c 0
 65 284 167 364 264 426 c 1
 220 484 182 556 182 622 c 0
 182 735 258 799 363 799 c 0
 484 799 538 721 538 647 c 0
 538 553 483 476 396 415 c 1
 443 365 515 291 584 219 c 1
 617 275 635 341 642 410 c 1
 742 396 l 1
 734 311 702 225 648 153 c 1
523 143 m 1
 454 217 372 304 318 364 c 1
 230 301 182 237 182 171 c 0
 182 104 230 68 313 68 c 0
 402 68 471 97 523 143 c 1
363 722 m 0
 307 722 285 674 285 619 c 0
 285 576 309 524 343 478 c 1
 406 528 438 589 438 647 c 0
 438 695 408 722 363 722 c 0
EndSplineSet
EndChar

StartChar: quotesingle
Encoding: 39 39 11
Width: 330
GlyphClass: 2
Flags: W
LayerCount: 2
Fore
SplineSet
110 900 m 1
 220 900 l 1
 202 540 l 1
 129 540 l 1
 110 900 l 1
EndSplineSet
EndChar

StartChar: parenleft
Encoding: 40 40 12
Width: 390
GlyphClass: 2
Flags: W
LayerCount: 2
Fore
SplineSet
65 390 m 0
 65 611 140 785 249 911 c 1
 321 882 l 1
 224 764 169 599 169 390 c 0
 169 181 224 16 321 -102 c 1
 249 -131 l 1
 140 -5 65 169 65 390 c 0
EndSplineSet
Substitution2: "Latin.subs subtable" parenleft.subs
Substitution2: "Latin.sups subtable" parenleft.sups
EndChar

StartChar: parenright
Encoding: 41 41 13
Width: 390
GlyphClass: 2
Flags: W
LayerCount: 2
Fore
SplineSet
325 390 m 0
 325 169 250 -5 141 -131 c 1
 69 -102 l 1
 166 16 221 181 221 390 c 0
 221 599 166 764 69 882 c 1
 141 911 l 1
 250 785 325 611 325 390 c 0
EndSplineSet
Substitution2: "Latin.subs subtable" parenright.subs
Substitution2: "Latin.sups subtable" parenright.sups
EndChar

StartChar: asterisk
Encoding: 42 42 14
Width: 570
GlyphClass: 2
Flags: W
LayerCount: 2
Fore
SplineSet
46 690 m 1
 76 785 l 1
 256 705 l 1
 235 900 l 1
 335 900 l 1
 314 705 l 1
 493 785 l 1
 524 690 l 1
 332 650 l 1
 464 504 l 1
 383 446 l 1
 285 616 l 1
 186 446 l 1
 106 504 l 1
 237 650 l 1
 46 690 l 1
EndSplineSet
EndChar

StartChar: plus
Encoding: 43 43 15
Width: 600
GlyphClass: 2
Flags: W
LayerCount: 2
Fore
SplineSet
90 320 m 1
 90 400 l 1
 246 400 l 1
 246 560 l 1
 353 560 l 1
 353 400 l 1
 510 400 l 1
 510 320 l 1
 353 320 l 1
 353 160 l 1
 246 160 l 1
 246 320 l 1
 90 320 l 1
EndSplineSet
EndChar

StartChar: comma
Encoding: 44 44 16
Width: 330
GlyphClass: 2
Flags: W
LayerCount: 2
Fore
SplineSet
85 68 m 0
 85 113 116 146 165 146 c 0
 233 146 260 89 260 32 c 0
 260 -78 187 -157 120 -200 c 1
 85 -153 l 1
 132 -123 172 -73 182 -2 c 1
 176 -3 169 -4 162 -4 c 0
 119 -4 85 24 85 68 c 0
EndSplineSet
EndChar

StartChar: hyphen
Encoding: 45 45 17
Width: 600
GlyphClass: 2
Flags: W
LayerCount: 2
Fore
SplineSet
90 403 m 1
 510 403 l 1
 510 317 l 1
 90 317 l 1
 90 403 l 1
EndSplineSet
EndChar

StartChar: period
Encoding: 46 46 18
Width: 330
GlyphClass: 2
Flags: W
LayerCount: 2
Fore
SplineSet
165 144 m 0
 210 144 245 116 245 70 c 0
 245 24 210 -4 165 -4 c 0
 120 -4 85 24 85 70 c 0
 85 116 120 144 165 144 c 0
EndSplineSet
EndChar

StartChar: slash
Encoding: 47 47 19
Width: 510
GlyphClass: 2
Flags: W
LayerCount: 2
Fore
SplineSet
40 0 m 1
 40 6 l 1
 368 780 l 1
 470 780 l 1
 470 774 l 1
 143 0 l 1
 40 0 l 1
EndSplineSet
Substitution2: "LatinSlash.frac subtable" fraction
EndChar

StartChar: zero
Encoding: 48 48 20
Width: 660
GlyphClass: 2
Flags: W
LayerCount: 2
Fore
SplineSet
60 373 m 2
 60 407 l 2
 60 581 108 799 330 799 c 0
 552 799 600 581 600 407 c 2
 600 373 l 2
 600 199 552 -19 330 -19 c 0
 108 -19 60 199 60 373 c 2
330 68 m 0
 422 68 482 180 482 373 c 2
 482 407 l 2
 482 600 422 712 330 712 c 0
 238 712 178 600 178 407 c 2
 178 373 l 2
 178 180 238 68 330 68 c 0
EndSplineSet
Substitution2: "Latin.dnom subtable" zero.dnom
Substitution2: "Latin.numr subtable" zero.numr
Substitution2: "Latin.subs subtable" zero.subs
Substitution2: "Latin.sups subtable" zero.sups
Substitution2: "Latin.pnum subtable" zero.pnum
EndChar

StartChar: one
Encoding: 49 49 21
Width: 660
GlyphClass: 2
Flags: W
LayerCount: 2
Fore
SplineSet
95 630 m 1
 358 786 l 1
 441 777 l 1
 441 93 l 1
 590 93 l 1
 590 0 l 1
 135 0 l 1
 135 93 l 1
 325 93 l 1
 325 656 l 1
 145 545 l 1
 95 630 l 1
EndSplineSet
Substitution2: "Latin.dnom subtable" one.dnom
Substitution2: "Latin.numr subtable" one.numr
Substitution2: "Latin.subs subtable" one.subs
Substitution2: "Latin.sups subtable" one.sups
Substitution2: "Latin.pnum subtable" one.pnum
EndChar

StartChar: two
Encoding: 50 50 22
Width: 660
GlyphClass: 2
Flags: W
LayerCount: 2
Fore
SplineSet
70 44 m 0
 70 220 216 323 325 395 c 0
 402 446 468 496 468 577 c 0
 468 639 440 712 332 712 c 0
 258 712 209 654 198 599 c 1
 77 610 l 1
 91 681 164 799 330 799 c 0
 548 799 583 643 583 577 c 0
 583 450 473 370 398 320 c 0
 301 255 217 193 201 93 c 1
 590 93 l 1
 590 0 l 1
 76 0 l 1
 76 0 70 19 70 44 c 0
EndSplineSet
Substitution2: "Latin.dnom subtable" two.dnom
Substitution2: "Latin.numr subtable" two.numr
Substitution2: "Latin.subs subtable" two.subs
Substitution2: "Latin.sups subtable" two.sups
Substitution2: "Latin.pnum subtable" two.pnum
EndChar

StartChar: three
Encoding: 51 51 23
Width: 660
GlyphClass: 2
Flags: W
LayerCount: 2
Fore
SplineSet
40 131 m 1
 156 153 l 1
 167 122 201 67 303 67 c 0
 434 67 465 150 465 215 c 0
 465 282 429 347 312 347 c 2
 207 347 l 1
 207 433 l 1
 300 433 l 2
 375 433 441 488 441 577 c 0
 441 639 413 712 305 712 c 0
 231 712 182 654 171 599 c 1
 51 610 l 1
 65 681 137 799 303 799 c 0
 521 799 557 643 557 577 c 0
 557 490 507 435 452 402 c 1
 555 366 585 280 585 221 c 0
 585 142 543 -19 303 -19 c 0
 123 -19 56 87 40 131 c 1
EndSplineSet
Substitution2: "Latin.dnom subtable" three.dnom
Substitution2: "Latin.numr subtable" three.numr
Substitution2: "Latin.subs subtable" three.subs
Substitution2: "Latin.sups subtable" three.sups
Substitution2: "Latin.pnum subtable" three.pnum
EndChar

StartChar: four
Encoding: 52 52 24
Width: 660
GlyphClass: 2
Flags: W
LayerCount: 2
Fore
SplineSet
391 197 m 1
 39 197 l 1
 30 253 l 1
 407 786 l 1
 505 777 l 1
 505 283 l 1
 630 283 l 1
 630 197 l 1
 505 197 l 1
 505 0 l 1
 391 0 l 1
 391 197 l 1
395 283 m 1
 395 626 l 1
 157 283 l 1
 395 283 l 1
EndSplineSet
Substitution2: "Latin.dnom subtable" four.dnom
Substitution2: "Latin.numr subtable" four.numr
Substitution2: "Latin.subs subtable" four.subs
Substitution2: "Latin.sups subtable" four.sups
Substitution2: "Latin.pnum subtable" four.pnum
EndChar

StartChar: five
Encoding: 53 53 25
Width: 660
GlyphClass: 2
Flags: W
LayerCount: 2
Fore
SplineSet
60 131 m 1
 177 153 l 1
 188 122 221 67 323 67 c 0
 454 67 484 159 484 234 c 0
 484 313 456 402 340 402 c 0
 270 402 212 352 183 308 c 1
 182 310 l 1
 181 308 l 1
 94 354 l 1
 108 780 l 1
 558 780 l 1
 558 694 l 1
 218 694 l 1
 210 436 l 1
 246 461 296 484 362 484 c 0
 566 484 605 315 605 241 c 0
 605 157 563 -19 323 -19 c 0
 143 -19 76 87 60 131 c 1
EndSplineSet
Substitution2: "Latin.dnom subtable" five.dnom
Substitution2: "Latin.numr subtable" five.numr
Substitution2: "Latin.subs subtable" five.subs
Substitution2: "Latin.sups subtable" five.sups
Substitution2: "Latin.pnum subtable" five.pnum
EndChar

StartChar: six
Encoding: 54 54 26
Width: 660
GlyphClass: 2
Flags: W
LayerCount: 2
Fore
SplineSet
80 297 m 2
 80 436 l 2
 80 562 103 799 343 799 c 0
 518 799 572 682 585 639 c 1
 470 620 l 1
 458 658 428 712 343 712 c 0
 232 712 197 590 197 436 c 2
 197 425 l 1
 236 461 291 483 360 483 c 0
 535 483 605 351 605 233 c 0
 605 98 515 -19 343 -19 c 0
 165 -19 80 103 80 297 c 2
198 269 m 1
 205 106 273 68 343 68 c 0
 423 68 488 118 488 233 c 0
 488 330 440 401 340 401 c 0
 267 401 212 352 198 269 c 1
EndSplineSet
Substitution2: "Latin.dnom subtable" six.dnom
Substitution2: "Latin.numr subtable" six.numr
Substitution2: "Latin.subs subtable" six.subs
Substitution2: "Latin.sups subtable" six.sups
Substitution2: "Latin.pnum subtable" six.pnum
EndChar

StartChar: seven
Encoding: 55 55 27
Width: 660
GlyphClass: 2
Flags: W
LayerCount: 2
Fore
SplineSet
65 687 m 1
 65 780 l 1
 576 780 l 1
 585 715 l 1
 477 568 349 285 349 50 c 2
 349 0 l 1
 225 0 l 1
 225 50 l 2
 225 266 341 523 445 687 c 1
 65 687 l 1
EndSplineSet
Substitution2: "Latin.dnom subtable" seven.dnom
Substitution2: "Latin.numr subtable" seven.numr
Substitution2: "Latin.subs subtable" seven.subs
Substitution2: "Latin.sups subtable" seven.sups
Substitution2: "Latin.pnum subtable" seven.pnum
EndChar

StartChar: eight
Encoding: 56 56 28
Width: 660
GlyphClass: 2
Flags: W
LayerCount: 2
Fore
SplineSet
330 -19 m 0
 157 -19 50 79 50 201 c 0
 50 326 143 378 209 401 c 1
 144 430 85 483 85 581 c 0
 85 699 179 799 330 799 c 0
 481 799 575 699 575 581 c 0
 575 483 516 430 451 401 c 1
 517 378 610 326 610 201 c 0
 610 79 503 -19 330 -19 c 0
330 66 m 0
 428 66 490 114 490 201 c 0
 490 291 434 327 381 343 c 0
 367 348 349 354 330 360 c 1
 311 354 293 348 279 343 c 0
 226 327 170 291 170 201 c 0
 170 114 232 66 330 66 c 0
330 713 m 0
 263 713 202 672 202 581 c 0
 202 505 249 465 293 452 c 0
 304 449 316 444 330 440 c 1
 344 444 356 449 367 452 c 0
 411 465 458 505 458 581 c 0
 458 672 397 713 330 713 c 0
EndSplineSet
Substitution2: "Latin.dnom subtable" eight.dnom
Substitution2: "Latin.numr subtable" eight.numr
Substitution2: "Latin.subs subtable" eight.subs
Substitution2: "Latin.sups subtable" eight.sups
Substitution2: "Latin.pnum subtable" eight.pnum
EndChar

StartChar: nine
Encoding: 57 57 29
Width: 660
GlyphClass: 2
Flags: W
LayerCount: 2
Fore
SplineSet
580 483 m 2
 580 344 l 2
 580 218 557 -19 317 -19 c 0
 142 -19 88 98 75 141 c 1
 190 160 l 1
 202 122 232 68 317 68 c 0
 428 68 463 190 463 344 c 2
 463 355 l 1
 424 319 369 297 300 297 c 0
 125 297 55 429 55 547 c 0
 55 682 145 799 317 799 c 0
 495 799 580 677 580 483 c 2
462 511 m 1
 455 674 387 712 317 712 c 0
 237 712 172 662 172 547 c 0
 172 450 220 379 320 379 c 0
 393 379 448 428 462 511 c 1
EndSplineSet
Substitution2: "Latin.dnom subtable" nine.dnom
Substitution2: "Latin.numr subtable" nine.numr
Substitution2: "Latin.subs subtable" nine.subs
Substitution2: "Latin.sups subtable" nine.sups
Substitution2: "Latin.pnum subtable" nine.pnum
EndChar

StartChar: colon
Encoding: 58 58 30
Width: 330
GlyphClass: 2
Flags: W
LayerCount: 2
Fore
SplineSet
165 564 m 0
 210 564 245 536 245 490 c 0
 245 444 210 416 165 416 c 0
 120 416 85 444 85 490 c 0
 85 536 120 564 165 564 c 0
165 144 m 0
 210 144 245 116 245 70 c 0
 245 24 210 -4 165 -4 c 0
 120 -4 85 24 85 70 c 0
 85 116 120 144 165 144 c 0
EndSplineSet
EndChar

StartChar: semicolon
Encoding: 59 59 31
Width: 330
GlyphClass: 2
Flags: W
LayerCount: 2
Fore
SplineSet
85 68 m 0
 85 113 116 146 165 146 c 0
 233 146 260 89 260 32 c 0
 260 -78 187 -157 120 -200 c 1
 85 -153 l 1
 132 -123 172 -73 182 -2 c 1
 176 -3 169 -4 162 -4 c 0
 119 -4 85 24 85 68 c 0
165 564 m 0
 210 564 245 536 245 490 c 0
 245 444 210 416 165 416 c 0
 120 416 85 444 85 490 c 0
 85 536 120 564 165 564 c 0
EndSplineSet
EndChar

StartChar: less
Encoding: 60 60 32
Width: 600
GlyphClass: 2
Flags: W
LayerCount: 2
Fore
SplineSet
90 328 m 1
 90 360 l 1
 90 392 l 1
 488 632 l 1
 510 543 l 1
 197 360 l 1
 510 177 l 1
 488 88 l 1
 90 328 l 1
EndSplineSet
EndChar

StartChar: equal
Encoding: 61 61 33
Width: 600
GlyphClass: 2
Flags: W
LayerCount: 2
Fore
SplineSet
90 421 m 1
 90 504 l 1
 510 504 l 1
 510 421 l 1
 90 421 l 1
90 216 m 1
 90 299 l 1
 510 299 l 1
 510 216 l 1
 90 216 l 1
EndSplineSet
EndChar

StartChar: greater
Encoding: 62 62 34
Width: 600
GlyphClass: 2
Flags: W
LayerCount: 2
Fore
SplineSet
510 392 m 1
 510 360 l 1
 510 328 l 1
 112 88 l 1
 90 177 l 1
 403 360 l 1
 90 543 l 1
 112 632 l 1
 510 392 l 1
EndSplineSet
EndChar

StartChar: question
Encoding: 63 63 35
Width: 570
GlyphClass: 2
Flags: W
LayerCount: 2
Fore
SplineSet
55 647 m 0
 55 750 143 829 285 829 c 0
 419 829 505 754 505 634 c 0
 505 470 305 430 305 316 c 0
 305 297 309 279 317 262 c 1
 224 251 l 1
 211 275 205 298 205 323 c 0
 205 478 384 504 384 631 c 0
 384 716 332 741 281 741 c 0
 219 741 175 710 175 647 c 0
 175 627 178 605 187 587 c 1
 74 558 l 1
 61 586 55 617 55 647 c 0
285 144 m 0
 330 144 365 116 365 70 c 0
 365 24 330 -4 285 -4 c 0
 240 -4 205 24 205 70 c 0
 205 116 240 144 285 144 c 0
EndSplineSet
EndChar

StartChar: at
Encoding: 64 64 36
Width: 1020
GlyphClass: 2
Flags: W
LayerCount: 2
Fore
SplineSet
80 237 m 0
 80 491 251 780 558 780 c 0
 814 780 940 597 940 397 c 0
 940 233 846 37 699 37 c 0
 640 37 616 70 607 107 c 1
 573 63 529 32 472 32 c 0
 336 32 289 139 289 230 c 0
 289 366 385 563 583 563 c 0
 677 563 711 494 711 437 c 0
 711 393 695 324 688 296 c 0
 676 233 671 186 671 154 c 0
 671 111 679 95 699 95 c 0
 775 95 874 237 874 397 c 0
 874 577 770 721 558 721 c 0
 306 721 146 475 146 237 c 0
 146 40 254 -131 502 -131 c 0
 570 -131 653 -95 679 -80 c 1
 715 -128 l 1
 681 -149 592 -190 502 -190 c 0
 207 -190 80 21 80 237 c 0
472 97 m 0
 544 97 585 178 609 307 c 0
 615 334 631 407 631 437 c 0
 631 481 610 498 583 498 c 0
 474 498 376 362 376 230 c 0
 376 144 418 97 472 97 c 0
EndSplineSet
EndChar

StartChar: A
Encoding: 65 65 37
Width: 750
GlyphClass: 2
Flags: W
AnchorPoint: "LatinOgonek.mark" 670 0 basechar 0
AnchorPoint: "LatinBelow.mark" 375 0 basechar 0
AnchorPoint: "LatinAbove.mark" 375 150 basechar 0
LayerCount: 2
Fore
SplineSet
735 0 m 1
 599 0 l 1
 540 167 l 1
 210 167 l 1
 151 0 l 1
 15 0 l 1
 15 8 l 1
 325 780 l 1
 425 780 l 1
 735 8 l 1
 735 0 l 1
510 253 m 1
 375 638 l 1
 240 253 l 1
 510 253 l 1
EndSplineSet
EndChar

StartChar: B
Encoding: 66 66 38
Width: 745
GlyphClass: 2
Flags: W
AnchorPoint: "LatinBelow.mark" 320 0 basechar 0
AnchorPoint: "LatinAbove.mark" 320 150 basechar 0
LayerCount: 2
Fore
SplineSet
510 433 m 1
 620 403 690 334 690 226 c 0
 690 77 557 -9 370 -9 c 0
 249 -9 108 -1 90 0 c 1
 90 780 l 1
 106 781 232 789 340 789 c 0
 491 789 615 721 615 593 c 0
 615 514 570 463 510 433 c 1
370 450 m 1
 435 457 498 499 498 583 c 0
 498 668 429 704 326 704 c 0
 275 704 225 700 203 699 c 1
 203 446 l 1
 252 448 312 450 370 450 c 1
203 81 m 1
 240 79 302 77 356 77 c 0
 475 77 572 115 572 226 c 0
 572 337 475 371 356 371 c 0
 302 371 240 369 203 367 c 1
 203 81 l 1
EndSplineSet
EndChar

StartChar: C
Encoding: 67 67 39
Width: 755
GlyphClass: 2
Flags: W
AnchorPoint: "LatinCedilla.mark" 412 0 basechar 0
AnchorPoint: "LatinBelow.mark" 410 0 basechar 0
AnchorPoint: "LatinAbove.mark" 410 150 basechar 0
LayerCount: 2
Fore
SplineSet
60 406 m 2
 60 590 140 799 412 799 c 0
 612 799 700 670 715 589 c 1
 592 577 l 1
 581 634 522 708 412 708 c 0
 261 708 186 590 186 406 c 2
 186 374 l 2
 186 190 261 72 412 72 c 0
 522 72 581 146 592 203 c 1
 715 191 l 1
 700 110 612 -19 412 -19 c 0
 140 -19 60 190 60 374 c 2
 60 406 l 2
EndSplineSet
EndChar

StartChar: D
Encoding: 68 68 40
Width: 770
GlyphClass: 2
Flags: W
AnchorPoint: "LatinBelow.mark" 320 0 basechar 0
AnchorPoint: "LatinAbove.mark" 320 150 basechar 0
LayerCount: 2
Fore
SplineSet
210 80 m 1
 237 79 269 78 293 78 c 0
 511 78 590 202 590 376 c 2
 590 404 l 2
 590 578 511 702 293 702 c 0
 269 702 237 701 210 700 c 1
 210 80 l 1
90 780 m 1
 90 780 200 789 293 789 c 0
 606 789 710 592 710 404 c 2
 710 376 l 2
 710 188 606 -9 293 -9 c 0
 200 -9 90 0 90 0 c 1
 90 780 l 1
EndSplineSet
EndChar

StartChar: E
Encoding: 69 69 41
Width: 675
GlyphClass: 2
Flags: W
AnchorPoint: "LatinOgonek.mark" 545 0 basechar 0
AnchorPoint: "LatinBelow.mark" 350 0 basechar 0
AnchorPoint: "LatinAbove.mark" 350 150 basechar 0
LayerCount: 2
Fore
SplineSet
90 0 m 1
 90 780 l 1
 605 780 l 1
 605 687 l 1
 210 687 l 1
 210 428 l 1
 569 428 l 1
 569 342 l 1
 210 342 l 1
 210 93 l 1
 620 93 l 1
 620 0 l 1
 90 0 l 1
EndSplineSet
EndChar

StartChar: F
Encoding: 70 70 42
Width: 640
GlyphClass: 2
Flags: W
AnchorPoint: "LatinBelow.mark" 160 0 basechar 0
AnchorPoint: "LatinAbove.mark" 340 150 basechar 0
LayerCount: 2
Fore
SplineSet
90 0 m 1
 90 780 l 1
 595 780 l 1
 595 687 l 1
 212 687 l 1
 212 431 l 1
 559 431 l 1
 559 339 l 1
 212 339 l 1
 212 0 l 1
 90 0 l 1
EndSplineSet
EndChar

StartChar: G
Encoding: 71 71 43
Width: 770
GlyphClass: 2
Flags: W
AnchorPoint: "LatinBelow.mark" 410 0 basechar 0
AnchorPoint: "LatinAbove.mark" 410 150 basechar 0
LayerCount: 2
Fore
SplineSet
419 302 m 1
 419 388 l 1
 710 388 l 1
 710 137 l 1
 677 71 585 -19 412 -19 c 0
 140 -19 60 190 60 374 c 2
 60 406 l 2
 60 590 140 799 412 799 c 0
 612 799 700 670 715 589 c 1
 593 577 l 1
 582 634 524 709 412 709 c 0
 259 709 183 592 183 406 c 2
 183 374 l 2
 183 188 259 71 412 71 c 0
 519 71 572 112 600 151 c 1
 600 302 l 1
 419 302 l 1
EndSplineSet
EndChar

StartChar: H
Encoding: 72 72 44
Width: 790
GlyphClass: 2
Flags: W
AnchorPoint: "LatinBelow.mark" 395 0 basechar 0
AnchorPoint: "LatinAbove.mark" 395 150 basechar 0
LayerCount: 2
Fore
SplineSet
90 0 m 1
 90 780 l 1
 210 780 l 1
 210 436 l 1
 580 436 l 1
 580 780 l 1
 700 780 l 1
 700 0 l 1
 580 0 l 1
 580 344 l 1
 210 344 l 1
 210 0 l 1
 90 0 l 1
EndSplineSet
EndChar

StartChar: I
Encoding: 73 73 45
Width: 320
GlyphClass: 2
Flags: W
AnchorPoint: "LatinOgonek.mark" 165 0 basechar 0
AnchorPoint: "LatinBelow.mark" 160 0 basechar 0
AnchorPoint: "LatinAbove.mark" 160 150 basechar 0
LayerCount: 2
Fore
SplineSet
100 0 m 1
 100 780 l 1
 220 780 l 1
 220 0 l 1
 100 0 l 1
EndSplineSet
EndChar

StartChar: J
Encoding: 74 74 46
Width: 520
GlyphClass: 2
Flags: W
AnchorPoint: "LatinBelow.mark" 230 0 basechar 0
AnchorPoint: "LatinAbove.mark" 360 150 basechar 0
LayerCount: 2
Fore
SplineSet
20 138 m 1
 141 147 l 1
 149 93 181 67 225 67 c 0
 269 67 309 91 309 164 c 2
 309 780 l 1
 430 780 l 1
 430 164 l 2
 430 66 356 -19 225 -19 c 0
 94 -19 31 64 20 138 c 1
EndSplineSet
EndChar

StartChar: K
Encoding: 75 75 47
Width: 715
GlyphClass: 2
Flags: W
AnchorPoint: "LatinBelow.mark" 360 0 basechar 0
AnchorPoint: "LatinAbove.mark" 360 150 basechar 0
LayerCount: 2
Fore
SplineSet
90 0 m 1
 90 780 l 1
 206 780 l 1
 206 408 l 1
 534 780 l 1
 668 771 l 1
 668 765 l 1
 367 450 l 1
 710 6 l 1
 710 0 l 1
 569 0 l 1
 291 369 l 1
 206 281 l 1
 206 0 l 1
 90 0 l 1
EndSplineSet
EndChar

StartChar: L
Encoding: 76 76 48
Width: 570
GlyphClass: 2
Flags: W
AnchorPoint: "LatinBelow.mark" 320 0 basechar 0
AnchorPoint: "LatinAbove.mark" 160 150 basechar 0
LayerCount: 2
Fore
SplineSet
90 0 m 1
 90 780 l 1
 212 780 l 1
 212 93 l 1
 545 93 l 1
 545 0 l 1
 90 0 l 1
EndSplineSet
EndChar

StartChar: M
Encoding: 77 77 49
Width: 880
GlyphClass: 2
Flags: W
AnchorPoint: "LatinBelow.mark" 440 0 basechar 0
AnchorPoint: "LatinAbove.mark" 440 150 basechar 0
LayerCount: 2
Fore
SplineSet
790 0 m 1
 671 0 l 1
 671 554 l 1
 469 195 l 1
 411 195 l 1
 209 554 l 1
 209 0 l 1
 90 0 l 1
 90 769 l 1
 190 780 l 1
 440 318 l 1
 690 780 l 1
 790 769 l 1
 790 0 l 1
EndSplineSet
EndChar

StartChar: N
Encoding: 78 78 50
Width: 790
GlyphClass: 2
Flags: W
AnchorPoint: "LatinBelow.mark" 395 0 basechar 0
AnchorPoint: "LatinAbove.mark" 395 150 basechar 0
LayerCount: 2
Fore
SplineSet
90 0 m 1
 90 769 l 1
 193 780 l 1
 583 193 l 1
 583 780 l 1
 700 780 l 1
 700 0 l 1
 597 0 l 1
 207 587 l 1
 207 0 l 1
 90 0 l 1
EndSplineSet
EndChar

StartChar: O
Encoding: 79 79 51
Width: 820
GlyphClass: 2
Flags: W
AnchorPoint: "LatinOgonek.mark" 480 0 basechar 0
AnchorPoint: "LatinBelow.mark" 410 0 basechar 0
AnchorPoint: "LatinAbove.mark" 410 150 basechar 0
LayerCount: 2
Fore
SplineSet
60 372 m 2
 60 408 l 2
 60 590 138 799 410 799 c 0
 682 799 760 590 760 408 c 2
 760 372 l 2
 760 190 682 -19 410 -19 c 0
 138 -19 60 190 60 372 c 2
410 71 m 0
 563 71 637 189 637 372 c 2
 637 408 l 2
 637 591 563 709 410 709 c 0
 257 709 183 591 183 408 c 2
 183 372 l 2
 183 189 257 71 410 71 c 0
EndSplineSet
EndChar

StartChar: P
Encoding: 80 80 52
Width: 710
GlyphClass: 2
Flags: W
AnchorPoint: "LatinBelow.mark" 160 0 basechar 0
AnchorPoint: "LatinAbove.mark" 360 150 basechar 0
LayerCount: 2
Fore
SplineSet
209 410 m 1
 241 408 288 406 336 406 c 0
 455 406 551 443 551 554 c 0
 551 665 455 703 336 703 c 0
 288 703 241 701 209 699 c 1
 209 410 l 1
209 323 m 1
 209 0 l 1
 90 0 l 1
 90 329 l 1
 90 780 l 1
 108 781 229 789 350 789 c 0
 537 789 670 703 670 554 c 0
 670 405 537 320 350 320 c 0
 301 320 251 321 209 323 c 1
EndSplineSet
EndChar

StartChar: Q
Encoding: 81 81 53
Width: 820
GlyphClass: 2
Flags: W
AnchorPoint: "LatinBelow.mark" 410 0 basechar 0
AnchorPoint: "LatinAbove.mark" 410 150 basechar 0
LayerCount: 2
Fore
SplineSet
60 372 m 2
 60 408 l 2
 60 590 138 799 410 799 c 0
 682 799 760 590 760 408 c 2
 760 372 l 2
 760 285 742 192 694 119 c 1
 800 36 l 1
 749 -32 l 1
 640 56 l 1
 586 10 512 -19 410 -19 c 0
 138 -19 60 190 60 372 c 2
385 263 m 1
 432 325 l 1
 603 191 l 1
 626 239 637 301 637 372 c 2
 637 408 l 2
 637 591 563 709 410 709 c 0
 257 709 183 591 183 408 c 2
 183 372 l 2
 183 189 257 71 410 71 c 0
 471 71 520 90 556 124 c 1
 385 263 l 1
EndSplineSet
EndChar

StartChar: R
Encoding: 82 82 54
Width: 730
GlyphClass: 2
Flags: W
AnchorPoint: "LatinBelow.mark" 360 0 basechar 0
AnchorPoint: "LatinAbove.mark" 360 150 basechar 0
LayerCount: 2
Fore
SplineSet
304 320 m 1
 271 321 238 322 209 323 c 1
 209 0 l 1
 90 0 l 1
 90 329 l 1
 90 780 l 1
 108 781 229 789 350 789 c 0
 537 789 670 703 670 554 c 0
 670 428 576 348 434 326 c 1
 700 6 l 1
 700 0 l 1
 564 0 l 1
 304 320 l 1
209 410 m 1
 241 408 288 406 336 406 c 0
 455 406 551 443 551 554 c 0
 551 665 455 703 336 703 c 0
 288 703 241 701 209 699 c 1
 209 410 l 1
EndSplineSet
EndChar

StartChar: S
Encoding: 83 83 55
Width: 710
GlyphClass: 2
Flags: W
AnchorPoint: "LatinCedilla.mark" 380 0 basechar 0
AnchorPoint: "LatinBelow.mark" 355 0 basechar 0
AnchorPoint: "LatinAbove.mark" 355 150 basechar 0
LayerCount: 2
Fore
SplineSet
55 179 m 1
 174 196 l 1
 184 137 242 68 355 68 c 0
 475 68 538 118 538 200 c 0
 538 276 483 305 441 317 c 0
 384 333 297 360 239 381 c 0
 168 407 73 466 73 579 c 0
 73 706 187 799 355 799 c 0
 533 799 620 683 635 605 c 1
 516 588 l 1
 505 646 449 712 355 712 c 0
 254 712 190 661 190 584 c 0
 190 521 242 497 291 478 c 0
 346 458 431 432 483 416 c 0
 564 391 655 331 655 206 c 0
 655 78 542 -19 355 -19 c 0
 161 -19 70 99 55 179 c 1
EndSplineSet
EndChar

StartChar: T
Encoding: 84 84 56
Width: 620
GlyphClass: 2
Flags: W
AnchorPoint: "LatinCedilla.mark" 320 0 basechar 0
AnchorPoint: "LatinBelow.mark" 310 0 basechar 0
AnchorPoint: "LatinAbove.mark" 310 150 basechar 0
LayerCount: 2
Fore
SplineSet
30 691 m 1
 30 780 l 1
 590 780 l 1
 590 691 l 1
 370 691 l 1
 370 0 l 1
 250 0 l 1
 250 691 l 1
 30 691 l 1
EndSplineSet
EndChar

StartChar: U
Encoding: 85 85 57
Width: 770
GlyphClass: 2
Flags: W
AnchorPoint: "LatinOgonek.mark" 480 0 basechar 0
AnchorPoint: "LatinBelow.mark" 385 0 basechar 0
AnchorPoint: "LatinAbove.mark" 385 150 basechar 0
LayerCount: 2
Fore
SplineSet
80 240 m 2
 80 780 l 1
 202 780 l 1
 202 240 l 2
 202 127 279 71 385 71 c 0
 491 71 568 127 568 240 c 2
 568 780 l 1
 690 780 l 1
 690 240 l 2
 690 93 571 -18 385 -18 c 0
 199 -18 80 93 80 240 c 2
EndSplineSet
EndChar

StartChar: V
Encoding: 86 86 58
Width: 750
GlyphClass: 2
Flags: W
AnchorPoint: "LatinBelow.mark" 375 0 basechar 0
AnchorPoint: "LatinAbove.mark" 375 150 basechar 0
LayerCount: 2
Fore
SplineSet
20 761 m 1
 20 769 l 1
 161 780 l 1
 375 148 l 1
 589 780 l 1
 730 769 l 1
 730 761 l 1
 425 0 l 1
 325 0 l 1
 20 761 l 1
EndSplineSet
EndChar

StartChar: W
Encoding: 87 87 59
Width: 1060
GlyphClass: 2
Flags: W
AnchorPoint: "LatinBelow.mark" 530 0 basechar 0
AnchorPoint: "LatinAbove.mark" 530 150 basechar 0
LayerCount: 2
Fore
SplineSet
1035 761 m 1
 807 0 l 1
 703 0 l 1
 530 590 l 1
 357 0 l 1
 253 0 l 1
 25 761 l 1
 25 769 l 1
 156 780 l 1
 314 168 l 1
 480 760 l 1
 580 760 l 1
 746 168 l 1
 904 780 l 1
 1035 769 l 1
 1035 761 l 1
EndSplineSet
EndChar

StartChar: X
Encoding: 88 88 60
Width: 740
GlyphClass: 2
Flags: W
AnchorPoint: "LatinBelow.mark" 370 0 basechar 0
AnchorPoint: "LatinAbove.mark" 370 150 basechar 0
LayerCount: 2
Fore
SplineSet
55 761 m 1
 55 768 l 1
 188 780 l 1
 370 490 l 1
 552 780 l 1
 685 768 l 1
 685 761 l 1
 438 415 l 1
 735 6 l 1
 735 0 l 1
 596 0 l 1
 370 319 l 1
 144 0 l 1
 5 0 l 1
 5 6 l 1
 302 415 l 1
 55 761 l 1
EndSplineSet
EndChar

StartChar: Y
Encoding: 89 89 61
Width: 670
GlyphClass: 2
Flags: W
AnchorPoint: "LatinBelow.mark" 335 0 basechar 0
AnchorPoint: "LatinAbove.mark" 335 150 basechar 0
LayerCount: 2
Fore
SplineSet
10 761 m 1
 10 769 l 1
 145 780 l 1
 335 412 l 1
 525 780 l 1
 660 769 l 1
 660 761 l 1
 395 295 l 1
 395 0 l 1
 275 0 l 1
 275 295 l 1
 10 761 l 1
EndSplineSet
EndChar

StartChar: Z
Encoding: 90 90 62
Width: 670
GlyphClass: 2
Flags: W
AnchorPoint: "LatinBelow.mark" 335 0 basechar 0
AnchorPoint: "LatinAbove.mark" 335 150 basechar 0
LayerCount: 2
Fore
SplineSet
35 69 m 1
 464 687 l 1
 61 687 l 1
 61 780 l 1
 616 780 l 1
 625 711 l 1
 197 93 l 1
 635 93 l 1
 635 0 l 1
 44 0 l 1
 35 69 l 1
EndSplineSet
EndChar

StartChar: bracketleft
Encoding: 91 91 63
Width: 435
GlyphClass: 2
Flags: W
LayerCount: 2
Fore
SplineSet
120 -120 m 1
 120 900 l 1
 345 900 l 1
 345 831 l 1
 217 831 l 1
 217 -51 l 1
 343 -51 l 1
 343 -120 l 1
 120 -120 l 1
EndSplineSet
EndChar

StartChar: backslash
Encoding: 92 92 64
Width: 510
GlyphClass: 2
Flags: W
LayerCount: 2
Fore
SplineSet
470 0 m 1
 367 0 l 1
 40 774 l 1
 40 780 l 1
 142 780 l 1
 470 6 l 1
 470 0 l 1
EndSplineSet
EndChar

StartChar: bracketright
Encoding: 93 93 65
Width: 435
GlyphClass: 2
Flags: W
LayerCount: 2
Fore
SplineSet
315 900 m 1
 315 -120 l 1
 90 -120 l 1
 90 -51 l 1
 218 -51 l 1
 218 831 l 1
 92 831 l 1
 92 900 l 1
 315 900 l 1
EndSplineSet
EndChar

StartChar: asciicircum
Encoding: 94 94 66
Width: 630
GlyphClass: 2
Flags: W
LayerCount: 2
Fore
SplineSet
30 589 m 1
 293 889 l 1
 337 889 l 1
 600 589 l 1
 542 549 l 1
 315 768 l 1
 88 549 l 1
 30 589 l 1
EndSplineSet
EndChar

StartChar: underscore
Encoding: 95 95 67
Width: 600
GlyphClass: 2
Flags: W
LayerCount: 2
Fore
SplineSet
0 0 m 1
 600 0 l 1
 600 -86 l 1
 0 -86 l 1
 0 0 l 1
EndSplineSet
EndChar

StartChar: grave
Encoding: 96 96 68
Width: 390
GlyphClass: 2
Flags: W
LayerCount: 2
Fore
SplineSet
0 824 m 1
 86 888 l 1
 360 589 l 1
 302 549 l 1
 0 824 l 1
EndSplineSet
EndChar

StartChar: a
Encoding: 97 97 69
Width: 625
GlyphClass: 2
Flags: W
AnchorPoint: "LatinOgonek.mark" 515 0 basechar 0
AnchorPoint: "LatinBelow.mark" 330 0 basechar 0
AnchorPoint: "LatinAbove.mark" 310 0 basechar 0
LayerCount: 2
Fore
SplineSet
55 173 m 0
 55 249 118 323 252 323 c 0
 317 323 381 318 430 313 c 1
 430 419 l 2
 430 503 373 537 300 537 c 0
 231 537 183 497 173 424 c 1
 60 433 l 1
 73 526 149 619 300 619 c 0
 447 619 540 534 540 419 c 2
 540 143 l 2
 540 87 554 66 605 60 c 1
 577 -14 l 1
 536 -9 473 9 453 75 c 1
 418 26 362 -14 273 -14 c 0
 138 -14 55 58 55 173 c 0
436 245 m 1
 392 251 328 257 258 257 c 0
 210 257 165 228 165 171 c 0
 165 88 224 55 287 55 c 0
 385 55 424 135 436 210 c 1
 436 245 l 1
EndSplineSet
Substitution2: "Latin.ss20 subtable" uni0251
Substitution2: "Latin.ss19 subtable" uni0251
EndChar

StartChar: b
Encoding: 98 98 70
Width: 675
GlyphClass: 2
Flags: W
AnchorPoint: "LatinBelow.mark" 360 0 basechar 0
AnchorPoint: "LatinAbove.mark" 135 180 basechar 0
LayerCount: 2
Fore
SplineSet
620 311 m 2
 620 289 l 2
 620 151 555 -14 368 -14 c 0
 284 -14 227 33 190 92 c 1
 181 0 l 1
 85 0 l 1
 85 810 l 1
 195 810 l 1
 195 518 l 1
 233 572 289 614 368 614 c 0
 555 614 620 449 620 311 c 2
195 374 m 1
 195 226 l 1
 215 145 265 69 355 69 c 0
 452 69 507 148 507 289 c 2
 507 311 l 2
 507 452 452 531 355 531 c 0
 265 531 215 455 195 374 c 1
EndSplineSet
EndChar

StartChar: c
Encoding: 99 99 71
Width: 605
GlyphClass: 2
Flags: W
AnchorPoint: "LatinCedilla.mark" 330 0 basechar 0
AnchorPoint: "LatinBelow.mark" 330 0 basechar 0
AnchorPoint: "LatinAbove.mark" 330 0 basechar 0
LayerCount: 2
Fore
SplineSet
55 287 m 2
 55 313 l 2
 55 451 113 619 331 619 c 0
 491 619 559 515 570 452 c 1
 456 442 l 1
 448 484 405 536 331 536 c 0
 230 536 171 453 171 313 c 2
 171 287 l 2
 171 147 230 64 331 64 c 0
 405 64 448 116 456 158 c 1
 570 148 l 1
 559 85 491 -19 331 -19 c 0
 113 -19 55 149 55 287 c 2
EndSplineSet
EndChar

StartChar: d
Encoding: 100 100 72
Width: 680
GlyphClass: 2
Flags: W
AnchorPoint: "LatinBelow.mark" 360 0 basechar 0
AnchorPoint: "LatinAbove.mark" 525 180 basechar 0
LayerCount: 2
Fore
SplineSet
55 289 m 2
 55 311 l 2
 55 449 120 614 307 614 c 0
 387 614 443 570 480 515 c 1
 480 810 l 1
 590 810 l 1
 590 143 l 2
 590 87 604 66 655 60 c 1
 627 -14 l 1
 579 -8 503 15 497 110 c 1
 459 44 399 -14 307 -14 c 0
 120 -14 55 151 55 289 c 2
480 374 m 1
 460 455 410 531 320 531 c 0
 223 531 168 452 168 311 c 2
 168 289 l 2
 168 148 223 69 320 69 c 0
 410 69 460 145 480 226 c 1
 480 374 l 1
EndSplineSet
EndChar

StartChar: e
Encoding: 101 101 73
Width: 640
GlyphClass: 2
Flags: W
AnchorPoint: "LatinOgonek.mark" 410 0 basechar 0
AnchorPoint: "LatinBelow.mark" 330 0 basechar 0
AnchorPoint: "LatinAbove.mark" 330 0 basechar 0
LayerCount: 2
Fore
SplineSet
55 286 m 2
 55 314 l 2
 55 452 116 619 327 619 c 0
 500 619 585 492 585 360 c 0
 585 333 582 306 577 279 c 1
 166 279 l 1
 168 144 224 61 327 61 c 0
 407 61 452 115 459 158 c 1
 568 148 l 1
 557 83 485 -19 327 -19 c 0
 112 -19 55 147 55 286 c 2
167 351 m 1
 479 351 l 1
 479 361 l 2
 479 481 415 539 327 539 c 0
 232 539 176 468 167 351 c 1
EndSplineSet
EndChar

StartChar: f
Encoding: 102 102 74
Width: 400
GlyphClass: 2
Flags: W
AnchorPoint: "LatinBelow.mark" 180 0 basechar 0
AnchorPoint: "LatinAbove.mark" 270 180 basechar 0
LayerCount: 2
Fore
SplineSet
30 528 m 1
 30 600 l 1
 120 600 l 1
 120 677 l 2
 120 736 157 829 283 829 c 0
 362 829 411 794 425 783 c 1
 377 722 l 1
 364 731 334 750 291 750 c 0
 251 750 230 719 230 677 c 2
 230 600 l 1
 380 600 l 1
 380 528 l 1
 233 528 l 1
 233 0 l 1
 120 0 l 1
 120 528 l 1
 30 528 l 1
EndSplineSet
EndChar

StartChar: g
Encoding: 103 103 75
Width: 670
GlyphClass: 2
Flags: W
AnchorPoint: "LatinBelow.mark" 360 -180 basechar 0
AnchorPoint: "LatinAbove.mark" 360 0 basechar 0
LayerCount: 2
Fore
SplineSet
55 315 m 0
 55 448 120 614 307 614 c 0
 391 614 448 565 485 506 c 1
 494 600 l 1
 590 600 l 1
 590 -26 l 2
 590 -143 495 -229 348 -229 c 0
 203 -229 126 -158 110 -114 c 1
 215 -85 l 1
 223 -109 265 -151 348 -151 c 0
 428 -151 484 -112 484 -26 c 2
 484 122 l 1
 447 64 390 16 307 16 c 0
 120 16 55 182 55 315 c 0
480 372 m 1
 460 453 410 531 320 531 c 0
 223 531 168 451 168 315 c 0
 168 179 223 99 320 99 c 0
 410 99 460 177 480 258 c 1
 480 372 l 1
EndSplineSet
Substitution2: "Latin.ss20 subtable" g.alt
Substitution2: "Latin.ss18 subtable" g.alt
EndChar

StartChar: h
Encoding: 104 104 76
Width: 665
GlyphClass: 2
Flags: W
AnchorPoint: "LatinBelow.mark" 360 0 basechar 0
AnchorPoint: "LatinAbove.mark" 135 180 basechar 0
LayerCount: 2
Fore
SplineSet
85 0 m 1
 85 810 l 1
 195 810 l 1
 195 448 l 1
 237 534 309 614 422 614 c 0
 541 614 595 520 595 416 c 2
 595 0 l 1
 482 0 l 1
 482 412 l 2
 482 497 439 524 392 524 c 0
 296 524 215 407 198 298 c 1
 198 0 l 1
 85 0 l 1
EndSplineSet
EndChar

StartChar: i
Encoding: 105 105 77
Width: 300
GlyphClass: 3
Flags: W
AnchorPoint: "LatinOgonek.mark" 155 0 basechar 0
AnchorPoint: "LatinBelow.mark" 150 0 basechar 0
AnchorPoint: "LatinAbove.mark" 150 180 basechar 0
LayerCount: 2
Fore
SplineSet
93 0 m 1
 93 600 l 1
 207 600 l 1
 207 0 l 1
 93 0 l 1
150 854 m 0
 195 854 230 826 230 780 c 0
 230 734 195 706 150 706 c 0
 105 706 70 734 70 780 c 0
 70 826 105 854 150 854 c 0
EndSplineSet
Substitution2: "Latin.ij.dotless subtable" dotlessi
Ligature2: "Latin.ij subtable" dotlessi uni0307
EndChar

StartChar: j
Encoding: 106 106 78
Width: 310
GlyphClass: 3
Flags: W
AnchorPoint: "LatinBelow.mark" 150 -180 basechar 0
AnchorPoint: "LatinAbove.mark" 150 180 basechar 0
LayerCount: 2
Fore
SplineSet
-5 -151 m 1
 63 -129 103 -95 103 -14 c 2
 103 600 l 1
 217 600 l 1
 217 -21 l 2
 217 -134 128 -198 31 -224 c 1
 -5 -151 l 1
160 854 m 0
 205 854 240 826 240 780 c 0
 240 734 205 706 160 706 c 0
 115 706 80 734 80 780 c 0
 80 826 115 854 160 854 c 0
EndSplineSet
Substitution2: "Latin.ij.dotless subtable" uni0237
Ligature2: "Latin.ij subtable" uni0237 uni0307
Ligature2: "Latin.ij subtable" uni0237 uni200D uni0307
Ligature2: "Latin.ij subtable" dotlessi uni200D uni0307
EndChar

StartChar: k
Encoding: 107 107 79
Width: 605
GlyphClass: 2
Flags: W
AnchorPoint: "LatinBelow.mark" 360 0 basechar 0
AnchorPoint: "LatinAbove.mark" 135 180 basechar 0
LayerCount: 2
Fore
SplineSet
95 0 m 1
 95 810 l 1
 203 810 l 1
 203 329 l 1
 446 600 l 1
 570 593 l 1
 570 588 l 1
 333 344 l 1
 600 5 l 1
 600 0 l 1
 470 0 l 1
 262 271 l 1
 203 211 l 1
 203 0 l 1
 95 0 l 1
EndSplineSet
EndChar

StartChar: l
Encoding: 108 108 80
Width: 315
GlyphClass: 2
Flags: W
AnchorPoint: "LatinBelow.mark" 190 0 basechar 0
AnchorPoint: "LatinAbove.mark" 140 180 basechar 0
LayerCount: 2
Fore
SplineSet
90 128 m 2
 90 810 l 1
 203 810 l 1
 203 138 l 2
 203 83 239 66 305 60 c 1
 283 -14 l 1
 202 -8 90 15 90 128 c 2
EndSplineSet
EndChar

StartChar: m
Encoding: 109 109 81
Width: 945
GlyphClass: 2
Flags: W
AnchorPoint: "LatinBelow.mark" 480 0 basechar 0
AnchorPoint: "LatinAbove.mark" 480 0 basechar 0
LayerCount: 2
Fore
SplineSet
75 594 m 1
 178 603 l 1
 192 479 l 1
 225 550 280 610 372 610 c 0
 461 610 512 554 530 480 c 1
 563 551 618 610 710 610 c 0
 824 610 875 518 875 416 c 2
 875 0 l 1
 762 0 l 1
 762 412 l 2
 762 496 724 521 680 521 c 0
 601 521 553 421 537 322 c 1
 537 0 l 1
 423 0 l 1
 423 412 l 2
 423 496 386 521 342 521 c 0
 263 521 214 420 198 321 c 1
 198 0 l 1
 85 0 l 1
 85 420 l 1
 75 594 l 1
EndSplineSet
EndChar

StartChar: n
Encoding: 110 110 82
Width: 655
GlyphClass: 2
Flags: W
AnchorPoint: "LatinBelow.mark" 360 0 basechar 0
AnchorPoint: "LatinAbove.mark" 330 0 basechar 0
LayerCount: 2
Fore
SplineSet
85 0 m 1
 85 420 l 1
 75 594 l 1
 178 603 l 1
 194 453 l 1
 234 537 303 614 413 614 c 0
 530 614 585 520 585 416 c 2
 585 0 l 1
 472 0 l 1
 472 412 l 2
 472 497 429 524 383 524 c 0
 289 524 214 408 198 299 c 1
 198 0 l 1
 85 0 l 1
EndSplineSet
Substitution2: "Latin.sups subtable" n.sups
EndChar

StartChar: o
Encoding: 111 111 83
Width: 660
GlyphClass: 2
Flags: W
AnchorPoint: "LatinOgonek.mark" 400 0 basechar 0
AnchorPoint: "LatinBelow.mark" 330 0 basechar 0
AnchorPoint: "LatinAbove.mark" 330 0 basechar 0
LayerCount: 2
Fore
SplineSet
55 286 m 2
 55 314 l 2
 55 452 113 619 330 619 c 0
 547 619 605 452 605 314 c 2
 605 286 l 2
 605 148 547 -19 330 -19 c 0
 113 -19 55 148 55 286 c 2
330 63 m 0
 435 63 492 146 492 286 c 2
 492 314 l 2
 492 454 435 537 330 537 c 0
 225 537 168 454 168 314 c 2
 168 286 l 2
 168 146 225 63 330 63 c 0
EndSplineSet
EndChar

StartChar: p
Encoding: 112 112 84
Width: 675
GlyphClass: 2
Flags: W
AnchorPoint: "LatinBelow.mark" 150 -180 basechar 0
AnchorPoint: "LatinAbove.mark" 330 0 basechar 0
LayerCount: 2
Fore
SplineSet
620 311 m 2
 620 289 l 2
 620 151 555 -14 368 -14 c 0
 290 -14 235 27 198 80 c 1
 198 -210 l 1
 85 -210 l 1
 85 420 l 1
 75 594 l 1
 178 603 l 1
 188 508 l 1
 226 566 285 614 368 614 c 0
 555 614 620 449 620 311 c 2
198 215 m 1
 219 138 269 69 355 69 c 0
 452 69 507 148 507 289 c 2
 507 311 l 2
 507 452 452 531 355 531 c 0
 269 531 219 462 198 385 c 1
 198 215 l 1
EndSplineSet
EndChar

StartChar: q
Encoding: 113 113 85
Width: 675
GlyphClass: 2
Flags: W
AnchorPoint: "LatinBelow.mark" 535 -240 basechar 0
AnchorPoint: "LatinAbove.mark" 360 0 basechar 0
LayerCount: 2
Fore
SplineSet
55 289 m 2
 55 311 l 2
 55 449 120 614 307 614 c 0
 391 614 448 567 485 508 c 1
 494 600 l 1
 590 600 l 1
 590 -210 l 1
 480 -210 l 1
 480 82 l 1
 442 28 386 -14 307 -14 c 0
 120 -14 55 151 55 289 c 2
480 226 m 1
 480 374 l 1
 460 455 410 531 320 531 c 0
 223 531 168 452 168 311 c 2
 168 289 l 2
 168 148 223 69 320 69 c 0
 410 69 460 145 480 226 c 1
EndSplineSet
EndChar

StartChar: r
Encoding: 114 114 86
Width: 435
GlyphClass: 2
Flags: W
AnchorPoint: "LatinBelow.mark" 170 0 basechar 0
AnchorPoint: "LatinAbove.mark" 240 0 basechar 0
LayerCount: 2
Fore
SplineSet
70 592 m 1
 165 603 l 1
 199 465 l 1
 224 543 271 614 364 614 c 0
 392 614 415 608 435 599 c 1
 392 505 l 1
 379 512 365 517 346 517 c 0
 271 517 230 418 218 318 c 1
 218 0 l 1
 105 0 l 1
 105 435 l 1
 70 592 l 1
EndSplineSet
EndChar

StartChar: s
Encoding: 115 115 87
Width: 570
GlyphClass: 2
Flags: W
AnchorPoint: "LatinCedilla.mark" 310 0 basechar 0
AnchorPoint: "LatinBelow.mark" 285 0 basechar 0
AnchorPoint: "LatinAbove.mark" 285 0 basechar 0
LayerCount: 2
Fore
SplineSet
45 139 m 1
 155 153 l 1
 162 109 206 61 289 61 c 0
 371 61 417 99 417 156 c 0
 417 210 374 232 345 241 c 0
 300 254 237 272 193 288 c 0
 136 309 61 350 61 444 c 0
 61 544 149 619 285 619 c 0
 431 619 498 528 509 465 c 1
 399 450 l 1
 392 494 356 539 285 539 c 0
 214 539 169 504 169 448 c 0
 169 403 210 381 242 370 c 0
 285 356 350 337 387 326 c 0
 453 306 525 264 525 160 c 0
 525 59 434 -19 285 -19 c 0
 128 -19 57 74 45 139 c 1
EndSplineSet
EndChar

StartChar: t
Encoding: 116 116 88
Width: 415
GlyphClass: 2
Flags: W
AnchorPoint: "LatinCedilla.mark" 270 0 basechar 0
AnchorPoint: "LatinBelow.mark" 280 0 basechar 0
AnchorPoint: "LatinAbove.mark" 180 120 basechar 0
LayerCount: 2
Fore
SplineSet
30 528 m 1
 30 600 l 1
 124 600 l 1
 124 726 l 1
 231 735 l 1
 231 600 l 1
 380 600 l 1
 380 528 l 1
 233 528 l 1
 233 144 l 2
 233 83 251 67 288 67 c 0
 329 67 368 82 383 92 c 1
 410 18 l 1
 381 2 334 -14 274 -14 c 0
 182 -14 120 26 120 128 c 2
 120 528 l 1
 30 528 l 1
EndSplineSet
EndChar

StartChar: u
Encoding: 117 117 89
Width: 620
GlyphClass: 2
Flags: W
AnchorPoint: "LatinOgonek.mark" 380 0 basechar 0
AnchorPoint: "LatinBelow.mark" 310 0 basechar 0
AnchorPoint: "LatinAbove.mark" 310 0 basechar 0
LayerCount: 2
Fore
SplineSet
65 187 m 2
 65 600 l 1
 178 600 l 1
 178 187 l 2
 178 101 235 63 310 63 c 0
 385 63 442 101 442 187 c 2
 442 600 l 1
 555 600 l 1
 555 187 l 2
 555 72 461 -19 310 -19 c 0
 159 -19 65 72 65 187 c 2
EndSplineSet
EndChar

StartChar: v
Encoding: 118 118 90
Width: 600
GlyphClass: 2
Flags: W
AnchorPoint: "LatinBelow.mark" 300 0 basechar 0
AnchorPoint: "LatinAbove.mark" 300 0 basechar 0
LayerCount: 2
Fore
SplineSet
15 585 m 1
 15 591 l 1
 138 600 l 1
 300 133 l 1
 462 600 l 1
 585 591 l 1
 585 585 l 1
 346 0 l 1
 254 0 l 1
 15 585 l 1
EndSplineSet
EndChar

StartChar: w
Encoding: 119 119 91
Width: 830
GlyphClass: 2
Flags: W
AnchorPoint: "LatinBelow.mark" 415 0 basechar 0
AnchorPoint: "LatinAbove.mark" 415 0 basechar 0
LayerCount: 2
Fore
SplineSet
810 585 m 1
 635 0 l 1
 538 0 l 1
 415 428 l 1
 292 0 l 1
 195 0 l 1
 20 585 l 1
 20 591 l 1
 141 600 l 1
 252 159 l 1
 370 585 l 1
 460 585 l 1
 578 159 l 1
 689 600 l 1
 810 591 l 1
 810 585 l 1
EndSplineSet
EndChar

StartChar: x
Encoding: 120 120 92
Width: 600
GlyphClass: 2
Flags: W
AnchorPoint: "LatinBelow.mark" 300 0 basechar 0
AnchorPoint: "LatinAbove.mark" 300 0 basechar 0
LayerCount: 2
Fore
SplineSet
50 585 m 1
 50 591 l 1
 170 600 l 1
 300 394 l 1
 430 600 l 1
 550 591 l 1
 550 585 l 1
 362 323 l 1
 590 5 l 1
 590 0 l 1
 463 0 l 1
 300 234 l 1
 137 0 l 1
 10 0 l 1
 10 5 l 1
 238 323 l 1
 50 585 l 1
EndSplineSet
EndChar

StartChar: y
Encoding: 121 121 93
Width: 600
GlyphClass: 2
Flags: W
AnchorPoint: "LatinBelow.mark" 300 -180 basechar 0
AnchorPoint: "LatinAbove.mark" 300 0 basechar 0
LayerCount: 2
Fore
SplineSet
15 585 m 1
 15 591 l 1
 138 600 l 1
 300 132 l 1
 462 600 l 1
 585 591 l 1
 585 585 l 1
 340 -24 l 1
 298 -117 257 -229 139 -229 c 0
 86 -229 50 -207 25 -187 c 1
 80 -119 l 1
 97 -134 113 -150 135 -150 c 0
 180 -150 210 -90 248 -3 c 2
 252 6 l 1
 15 585 l 1
EndSplineSet
EndChar

StartChar: z
Encoding: 122 122 94
Width: 530
GlyphClass: 2
Flags: W
AnchorPoint: "LatinBelow.mark" 265 0 basechar 0
AnchorPoint: "LatinAbove.mark" 265 0 basechar 0
LayerCount: 2
Fore
SplineSet
30 57 m 1
 345 521 l 1
 52 521 l 1
 52 600 l 1
 487 600 l 1
 494 543 l 1
 179 79 l 1
 500 79 l 1
 500 0 l 1
 37 0 l 1
 30 57 l 1
EndSplineSet
EndChar

StartChar: braceleft
Encoding: 123 123 95
Width: 390
GlyphClass: 2
Flags: W
LayerCount: 2
Fore
SplineSet
45 370 m 1
 45 390 l 1
 45 410 l 1
 89 419 142 453 142 538 c 0
 142 577 108 675 108 735 c 0
 108 828 164 900 265 900 c 2
 315 900 l 1
 315 841 l 1
 278 841 l 2
 248 841 208 823 208 728 c 0
 208 678 238 579 238 528 c 0
 238 454 201 410 152 390 c 1
 201 370 238 326 238 252 c 0
 238 201 208 102 208 52 c 0
 208 -43 248 -61 278 -61 c 2
 315 -61 l 1
 315 -120 l 1
 265 -120 l 2
 164 -120 108 -48 108 45 c 0
 108 105 142 203 142 242 c 0
 142 327 89 361 45 370 c 1
EndSplineSet
EndChar

StartChar: bar
Encoding: 124 124 96
Width: 360
GlyphClass: 2
Flags: W
LayerCount: 2
Fore
SplineSet
130 -120 m 1
 130 900 l 1
 230 900 l 1
 230 -120 l 1
 130 -120 l 1
EndSplineSet
EndChar

StartChar: braceright
Encoding: 125 125 97
Width: 390
GlyphClass: 2
Flags: W
LayerCount: 2
Fore
SplineSet
345 410 m 1
 345 390 l 1
 345 370 l 1
 301 361 248 327 248 242 c 0
 248 203 282 105 282 45 c 0
 282 -48 226 -120 125 -120 c 2
 75 -120 l 1
 75 -61 l 1
 112 -61 l 2
 142 -61 182 -43 182 52 c 0
 182 102 152 201 152 252 c 0
 152 326 189 370 238 390 c 1
 189 410 152 454 152 528 c 0
 152 579 182 678 182 728 c 0
 182 823 142 841 112 841 c 2
 75 841 l 1
 75 900 l 1
 125 900 l 2
 226 900 282 828 282 735 c 0
 282 675 248 577 248 538 c 0
 248 453 301 419 345 410 c 1
EndSplineSet
EndChar

StartChar: asciitilde
Encoding: 126 126 98
Width: 600
GlyphClass: 2
Flags: W
LayerCount: 2
Fore
SplineSet
45 324 m 1
 71 399 109 489 202 489 c 0
 264 489 304 447 331 420 c 0
 361 390 381 373 402 373 c 0
 440 373 468 426 482 478 c 1
 555 456 l 1
 529 380 490 291 398 291 c 0
 336 291 296 333 269 360 c 0
 239 390 219 407 198 407 c 0
 160 407 133 355 118 302 c 1
 45 324 l 1
EndSplineSet
EndChar

StartChar: exclamdown
Encoding: 161 161 100
Width: 330
GlyphClass: 2
Flags: W
LayerCount: 2
Fore
SplineSet
234 -210 m 1
 96 -210 l 1
 125 330 l 1
 205 330 l 1
 234 -210 l 1
165 456 m 0
 120 456 85 484 85 530 c 0
 85 576 120 604 165 604 c 0
 210 604 245 576 245 530 c 0
 245 484 210 456 165 456 c 0
EndSplineSet
EndChar

StartChar: cent
Encoding: 162 162 101
Width: 605
GlyphClass: 2
Flags: W
LayerCount: 2
Fore
SplineSet
55 318 m 2
 55 344 l 2
 55 473 106 628 290 648 c 1
 290 781 l 1
 376 781 l 1
 376 647 l 1
 504 630 560 540 570 483 c 1
 456 473 l 1
 448 515 405 567 331 567 c 0
 230 567 171 484 171 344 c 2
 171 318 l 2
 171 178 230 95 331 95 c 0
 405 95 448 147 456 189 c 1
 570 179 l 1
 560 122 504 32 376 15 c 1
 376 -119 l 1
 290 -119 l 1
 290 14 l 1
 106 34 55 189 55 318 c 2
EndSplineSet
EndChar

StartChar: sterling
Encoding: 163 163 102
Width: 660
GlyphClass: 2
Flags: W
LayerCount: 2
Fore
SplineSet
75 357 m 1
 75 423 l 1
 173 423 l 1
 173 553 l 2
 173 600 178 799 379 799 c 0
 537 799 576 675 585 637 c 1
 473 624 l 1
 463 668 441 717 379 717 c 0
 304 717 287 625 287 553 c 2
 287 423 l 1
 505 423 l 1
 505 357 l 1
 287 357 l 1
 287 298 l 2
 287 204 268 135 224 82 c 1
 605 82 l 1
 605 0 l 1
 86 0 l 1
 75 69 l 1
 139 119 173 177 173 298 c 2
 173 357 l 1
 75 357 l 1
EndSplineSet
EndChar

StartChar: currency
Encoding: 164 164 103
Width: 720
GlyphClass: 2
Flags: W
LayerCount: 2
Fore
SplineSet
660 150 m 1
 599 90 l 1
 500 189 l 1
 462 165 415 152 360 152 c 0
 305 152 258 165 220 189 c 1
 121 90 l 1
 60 150 l 1
 158 248 l 1
 128 289 112 338 112 390 c 0
 112 442 128 491 158 532 c 1
 60 630 l 1
 121 690 l 1
 220 591 l 1
 258 615 305 628 360 628 c 0
 415 628 462 615 500 591 c 1
 599 690 l 1
 660 630 l 1
 562 532 l 1
 592 491 608 442 608 390 c 0
 608 338 592 289 562 248 c 1
 660 150 l 1
360 238 m 0
 442 238 501 293 501 390 c 0
 501 487 442 542 360 542 c 0
 278 542 219 487 219 390 c 0
 219 293 278 238 360 238 c 0
EndSplineSet
EndChar

StartChar: yen
Encoding: 165 165 104
Width: 660
GlyphClass: 2
Flags: W
LayerCount: 2
Fore
SplineSet
100 312 m 1
 100 378 l 1
 230 378 l 1
 25 761 l 1
 25 769 l 1
 160 780 l 1
 330 412 l 1
 500 780 l 1
 635 769 l 1
 635 761 l 1
 430 378 l 1
 560 378 l 1
 560 312 l 1
 395 312 l 1
 390 302 l 1
 390 228 l 1
 560 228 l 1
 560 162 l 1
 390 162 l 1
 390 0 l 1
 270 0 l 1
 270 162 l 1
 100 162 l 1
 100 228 l 1
 270 228 l 1
 270 302 l 1
 265 312 l 1
 100 312 l 1
EndSplineSet
EndChar

StartChar: brokenbar
Encoding: 166 166 105
Width: 360
GlyphClass: 2
Flags: W
LayerCount: 2
Fore
SplineSet
130 450 m 1
 130 900 l 1
 230 900 l 1
 230 450 l 1
 130 450 l 1
130 -120 m 1
 130 330 l 1
 230 330 l 1
 230 -120 l 1
 130 -120 l 1
EndSplineSet
EndChar

StartChar: section
Encoding: 167 167 106
Width: 660
GlyphClass: 2
Flags: W
LayerCount: 2
Fore
SplineSet
102 615 m 0
 102 732 190 829 341 829 c 0
 500 829 568 709 579 634 c 1
 470 625 l 1
 460 688 418 750 341 750 c 0
 265 750 212 703 212 615 c 0
 212 545 258 518 297 500 c 0
 343 480 407 454 451 439 c 0
 521 415 595 352 595 236 c 0
 595 186 573 139 535 101 c 1
 554 71 565 34 565 -11 c 0
 565 -129 476 -229 311 -229 c 0
 140 -229 67 -108 55 -30 c 1
 165 -21 l 1
 174 -83 219 -150 311 -150 c 0
 403 -150 455 -103 455 -11 c 0
 455 71 408 99 370 113 c 0
 323 131 260 157 210 179 c 0
 150 205 72 266 72 369 c 0
 72 420 93 468 137 504 c 1
 116 533 102 569 102 615 c 0
468 169 m 1
 478 186 485 207 485 236 c 0
 485 319 437 347 403 360 c 0
 356 378 290 404 240 426 c 0
 229 431 217 437 205 444 c 1
 191 424 182 401 182 369 c 0
 182 299 234 272 273 254 c 0
 319 234 379 207 421 192 c 0
 437 186 453 179 468 169 c 1
EndSplineSet
EndChar

StartChar: dieresis
Encoding: 168 168 107
Width: 510
GlyphClass: 2
Flags: W
LayerCount: 2
Fore
SplineSet
60 780 m 0
 60 822 92 848 134 848 c 0
 176 848 208 822 208 780 c 0
 208 738 176 712 134 712 c 0
 92 712 60 738 60 780 c 0
303 780 m 0
 303 822 335 848 377 848 c 0
 419 848 450 822 450 780 c 0
 450 738 419 712 377 712 c 0
 335 712 303 738 303 780 c 0
EndSplineSet
EndChar

StartChar: copyright
Encoding: 169 169 108
Width: 1020
GlyphClass: 2
Flags: W
LayerCount: 2
Fore
SplineSet
337 411 m 2
 337 501 377 608 517 608 c 0
 620 608 664 541 672 501 c 1
 597 494 l 1
 592 521 566 553 517 553 c 0
 450 553 413 501 413 411 c 2
 413 395 l 2
 413 305 450 253 517 253 c 0
 566 253 592 285 597 312 c 1
 672 305 l 1
 664 265 620 198 517 198 c 0
 377 198 337 305 337 395 c 2
 337 411 l 2
510 -9 m 0
 252 -9 87 169 87 405 c 0
 87 641 252 819 510 819 c 0
 768 819 933 641 933 405 c 0
 933 169 768 -9 510 -9 c 0
510 49 m 0
 726 49 867 193 867 405 c 0
 867 617 726 761 510 761 c 0
 294 761 153 617 153 405 c 0
 153 193 294 49 510 49 c 0
EndSplineSet
EndChar

StartChar: ordfeminine
Encoding: 170 170 109
Width: 313
GlyphClass: 2
Flags: W
LayerCount: 2
Fore
SplineSet
23 596 m 0
 23 634 54 673 125 673 c 0
 154 673 184 671 207 669 c 1
 207 718 l 2
 207 758 181 771 149 771 c 0
 120 771 99 755 94 720 c 1
 25 725 l 1
 31 771 71 820 149 820 c 0
 225 820 273 776 273 718 c 2
 273 584 l 2
 273 558 279 549 303 546 c 1
 286 502 l 1
 267 504 235 512 223 542 c 1
 205 520 177 502 135 502 c 0
 65 502 23 539 23 596 c 0
210 628 m 1
 188 630 159 634 129 634 c 0
 110 634 89 623 89 596 c 0
 89 558 116 544 143 544 c 0
 186 544 204 576 210 612 c 1
 210 628 l 1
EndSplineSet
EndChar

StartChar: guillemotleft
Encoding: 171 171 110
Width: 780
GlyphClass: 2
Flags: W
LayerCount: 2
Fore
SplineSet
75 338 m 1
 75 382 l 1
 375 645 l 1
 415 588 l 1
 195 360 l 1
 415 132 l 1
 375 75 l 1
 75 338 l 1
365 338 m 1
 365 382 l 1
 665 645 l 1
 705 588 l 1
 485 360 l 1
 705 132 l 1
 665 75 l 1
 365 338 l 1
EndSplineSet
EndChar

StartChar: logicalnot
Encoding: 172 172 111
Width: 600
GlyphClass: 2
Flags: W
LayerCount: 2
Fore
SplineSet
90 317 m 1
 90 403 l 1
 510 403 l 1
 510 190 l 1
 403 190 l 1
 403 317 l 1
 90 317 l 1
EndSplineSet
EndChar

StartChar: uni00AD
Encoding: 173 173 112
Width: 450
GlyphClass: 2
Flags: W
LayerCount: 2
Fore
SplineSet
75 403 m 1
 375 403 l 1
 375 317 l 1
 75 317 l 1
 75 403 l 1
EndSplineSet
EndChar

StartChar: registered
Encoding: 174 174 113
Width: 870
GlyphClass: 2
Flags: W
LayerCount: 2
Fore
SplineSet
435 266 m 0
 226 266 93 411 93 600 c 0
 93 789 226 934 435 934 c 0
 644 934 777 789 777 600 c 0
 777 411 644 266 435 266 c 0
435 312 m 0
 608 312 723 427 723 600 c 0
 723 773 608 888 435 888 c 0
 262 888 147 773 147 600 c 0
 147 427 262 312 435 312 c 0
406 555 m 1
 395 555 383 556 373 556 c 1
 373 400 l 1
 301 400 l 1
 301 560 l 1
 301 790 l 1
 305 790 371 794 435 794 c 0
 532 794 599 750 599 675 c 0
 599 614 554 572 484 559 c 1
 613 404 l 1
 613 400 l 1
 531 400 l 1
 406 555 l 1
373 608 m 1
 387 607 407 606 427 606 c 0
 483 606 527 623 527 675 c 0
 527 727 483 743 427 743 c 0
 407 743 387 742 373 741 c 1
 373 608 l 1
EndSplineSet
EndChar

StartChar: macron
Encoding: 175 175 114
Width: 510
GlyphClass: 2
Flags: W
LayerCount: 2
Fore
SplineSet
60 744 m 1
 60 816 l 1
 450 816 l 1
 450 744 l 1
 60 744 l 1
EndSplineSet
EndChar

StartChar: degree
Encoding: 176 176 115
Width: 330
GlyphClass: 2
Flags: W
LayerCount: 2
Fore
SplineSet
165 657 m 0
 83 657 35 716 35 780 c 0
 35 844 83 903 165 903 c 0
 247 903 295 844 295 780 c 0
 295 716 247 657 165 657 c 0
165 710 m 0
 200 710 229 734 229 780 c 0
 229 826 200 850 165 850 c 0
 130 850 101 826 101 780 c 0
 101 734 130 710 165 710 c 0
EndSplineSet
EndChar

StartChar: plusminus
Encoding: 177 177 116
Width: 600
GlyphClass: 2
Flags: W
LayerCount: 2
Fore
SplineSet
90 183 m 1
 90 263 l 1
 510 263 l 1
 510 183 l 1
 90 183 l 1
90 457 m 1
 90 537 l 1
 250 537 l 1
 250 652 l 1
 350 652 l 1
 350 537 l 1
 510 537 l 1
 510 457 l 1
 350 457 l 1
 350 342 l 1
 250 342 l 1
 250 457 l 1
 90 457 l 1
EndSplineSet
EndChar

StartChar: two.sups
Encoding: 178 178 117
Width: 330
GlyphClass: 2
Flags: W
LayerCount: 2
Fore
SplineSet
31 536 m 0
 31 624 105 677 159 712 c 0
 197 737 226 760 226 797 c 0
 226 828 212 858 166 858 c 0
 135 858 112 832 107 806 c 1
 34 814 l 1
 41 850 78 910 165 910 c 0
 279 910 296 829 296 797 c 0
 296 733 240 692 203 668 c 0
 157 637 120 608 110 566 c 1
 298 566 l 1
 298 510 l 1
 35 510 l 1
 35 510 31 521 31 536 c 0
EndSplineSet
EndChar

StartChar: three.sups
Encoding: 179 179 118
Width: 330
GlyphClass: 2
Flags: W
LayerCount: 2
Fore
SplineSet
16 577 m 1
 86 590 l 1
 92 576 107 552 152 552 c 0
 209 552 224 586 224 618 c 0
 224 652 207 678 156 678 c 2
 100 678 l 1
 100 730 l 1
 148 730 l 2
 186 730 214 756 214 796 c 0
 214 827 199 858 153 858 c 0
 122 858 99 832 94 806 c 1
 22 813 l 1
 29 849 65 910 152 910 c 0
 266 910 283 828 283 796 c 0
 283 754 260 728 234 711 c 1
 282 693 296 651 296 623 c 0
 296 583 276 500 152 500 c 0
 60 500 24 555 16 577 c 1
EndSplineSet
EndChar

StartChar: acute
Encoding: 180 180 119
Width: 390
GlyphClass: 2
Flags: W
LayerCount: 2
Fore
SplineSet
390 824 m 1
 88 549 l 1
 30 589 l 1
 304 888 l 1
 390 824 l 1
EndSplineSet
EndChar

StartChar: mu
Encoding: 181 181 120
Width: 665
GlyphClass: 2
Flags: W
LayerCount: 2
Fore
SplineSet
85 600 m 1
 198 600 l 1
 198 302 l 1
 215 193 296 76 392 76 c 0
 439 76 482 103 482 188 c 2
 482 600 l 1
 595 600 l 1
 595 184 l 2
 595 80 541 -14 422 -14 c 0
 309 -14 237 66 195 152 c 1
 195 -210 l 1
 85 -210 l 1
 85 600 l 1
EndSplineSet
EndChar

StartChar: paragraph
Encoding: 182 182 121
Width: 725
GlyphClass: 2
Flags: W
LayerCount: 2
Fore
SplineSet
315 410 m 1
 315 699 l 1
 227 686 164 644 164 554 c 0
 164 464 227 422 315 410 c 1
525 698 m 1
 501 699 460 702 415 703 c 1
 415 -210 l 1
 315 -210 l 1
 315 322 l 1
 155 336 45 419 45 554 c 0
 45 703 178 789 365 789 c 0
 486 789 607 781 625 780 c 1
 625 -210 l 1
 525 -210 l 1
 525 698 l 1
EndSplineSet
EndChar

StartChar: periodcentered
Encoding: 183 183 122
Width: 330
GlyphClass: 2
Flags: W
LayerCount: 2
Fore
SplineSet
165 434 m 0
 210 434 245 406 245 360 c 0
 245 314 210 286 165 286 c 0
 120 286 85 314 85 360 c 0
 85 406 120 434 165 434 c 0
EndSplineSet
EndChar

StartChar: cedilla
Encoding: 184 184 123
Width: 330
GlyphClass: 2
Flags: W
LayerCount: 2
Fore
SplineSet
50 -278 m 1
 116 -262 197 -234 197 -175 c 0
 197 -155 182 -137 128 -137 c 0
 113 -137 94 -140 83 -142 c 1
 50 -108 l 1
 118 15 l 1
 182 15 l 1
 126 -85 l 1
 140 -85 l 2
 220 -85 270 -116 270 -175 c 0
 270 -286 121 -317 68 -330 c 1
 50 -278 l 1
EndSplineSet
EndChar

StartChar: one.sups
Encoding: 185 185 124
Width: 330
GlyphClass: 2
Flags: W
LayerCount: 2
Fore
SplineSet
44 825 m 1
 176 903 l 1
 226 898 l 1
 226 566 l 1
 299 566 l 1
 299 510 l 1
 64 510 l 1
 64 566 l 1
 156 566 l 1
 156 825 l 1
 74 774 l 1
 44 825 l 1
EndSplineSet
EndChar

StartChar: ordmasculine
Encoding: 186 186 125
Width: 330
GlyphClass: 2
Flags: W
LayerCount: 2
Fore
SplineSet
24 654 m 2
 24 666 l 2
 24 733 52 820 165 820 c 0
 278 820 306 733 306 666 c 2
 306 654 l 2
 306 587 278 500 165 500 c 0
 52 500 24 587 24 654 c 2
165 549 m 0
 210 549 238 586 238 654 c 2
 238 666 l 2
 238 734 210 771 165 771 c 0
 120 771 92 734 92 666 c 2
 92 654 l 2
 92 586 120 549 165 549 c 0
EndSplineSet
EndChar

StartChar: guillemotright
Encoding: 187 187 126
Width: 780
GlyphClass: 2
Flags: W
LayerCount: 2
Fore
SplineSet
705 382 m 1
 705 338 l 1
 405 75 l 1
 365 132 l 1
 585 360 l 1
 365 588 l 1
 405 645 l 1
 705 382 l 1
415 382 m 1
 415 338 l 1
 115 75 l 1
 75 132 l 1
 295 360 l 1
 75 588 l 1
 115 645 l 1
 415 382 l 1
EndSplineSet
EndChar

StartChar: onequarter
Encoding: 188 188 127
Width: 780
GlyphClass: 3
Flags: W
LayerCount: 2
Fore
SplineSet
638 94 m 1
 466 94 l 1
 462 128 l 1
 647 393 l 1
 706 388 l 1
 706 146 l 1
 769 146 l 1
 769 94 l 1
 706 94 l 1
 706 0 l 1
 638 0 l 1
 638 94 l 1
640 146 m 1
 640 296 l 1
 537 146 l 1
 640 146 l 1
44 705 m 1
 176 783 l 1
 226 778 l 1
 226 446 l 1
 299 446 l 1
 299 390 l 1
 64 390 l 1
 64 446 l 1
 156 446 l 1
 156 705 l 1
 74 654 l 1
 44 705 l 1
75 0 m 1
 75 6 l 1
 631 780 l 1
 705 780 l 1
 705 774 l 1
 149 0 l 1
 75 0 l 1
EndSplineSet
Ligature2: "LatinLiga.frac subtable" one.numr fraction four.dnom
Ligature2: "LatinLiga.frac subtable" one.numr fraction four
Ligature2: "LatinLiga.frac subtable" one fraction four.dnom
Ligature2: "LatinLiga.frac subtable" one fraction four
EndChar

StartChar: onehalf
Encoding: 189 189 128
Width: 780
GlyphClass: 3
Flags: W
LayerCount: 2
Fore
SplineSet
481 26 m 0
 481 114 555 167 609 202 c 0
 647 227 676 250 676 287 c 0
 676 318 662 348 616 348 c 0
 585 348 562 322 557 296 c 1
 484 304 l 1
 491 340 528 400 615 400 c 0
 729 400 746 319 746 287 c 0
 746 223 690 182 653 158 c 0
 607 127 570 98 560 56 c 1
 748 56 l 1
 748 0 l 1
 485 0 l 1
 485 0 481 11 481 26 c 0
75 0 m 1
 75 6 l 1
 631 780 l 1
 705 780 l 1
 705 774 l 1
 149 0 l 1
 75 0 l 1
44 705 m 1
 176 783 l 1
 226 778 l 1
 226 446 l 1
 299 446 l 1
 299 390 l 1
 64 390 l 1
 64 446 l 1
 156 446 l 1
 156 705 l 1
 74 654 l 1
 44 705 l 1
EndSplineSet
Ligature2: "LatinLiga.frac subtable" one.numr fraction two.dnom
Ligature2: "LatinLiga.frac subtable" one.numr fraction two
Ligature2: "LatinLiga.frac subtable" one fraction two.dnom
Ligature2: "LatinLiga.frac subtable" one fraction two
EndChar

StartChar: threequarters
Encoding: 190 190 129
Width: 780
GlyphClass: 3
Flags: W
LayerCount: 2
Fore
SplineSet
16 457 m 1
 86 470 l 1
 92 456 107 432 152 432 c 0
 209 432 224 466 224 498 c 0
 224 532 207 558 156 558 c 2
 100 558 l 1
 100 610 l 1
 148 610 l 2
 186 610 214 636 214 676 c 0
 214 707 199 738 153 738 c 0
 122 738 99 712 94 686 c 1
 22 693 l 1
 29 729 65 790 152 790 c 0
 266 790 283 708 283 676 c 0
 283 634 260 608 234 591 c 1
 282 573 296 531 296 503 c 0
 296 463 276 380 152 380 c 0
 60 380 24 435 16 457 c 1
75 0 m 1
 75 6 l 1
 631 780 l 1
 705 780 l 1
 705 774 l 1
 149 0 l 1
 75 0 l 1
638 94 m 1
 466 94 l 1
 462 128 l 1
 647 393 l 1
 706 388 l 1
 706 146 l 1
 769 146 l 1
 769 94 l 1
 706 94 l 1
 706 0 l 1
 638 0 l 1
 638 94 l 1
640 146 m 1
 640 296 l 1
 537 146 l 1
 640 146 l 1
EndSplineSet
Ligature2: "LatinLiga.frac subtable" three.numr fraction four.dnom
Ligature2: "LatinLiga.frac subtable" three.numr fraction four
Ligature2: "LatinLiga.frac subtable" three fraction four.dnom
Ligature2: "LatinLiga.frac subtable" three fraction four
EndChar

StartChar: questiondown
Encoding: 191 191 130
Width: 570
GlyphClass: 2
Flags: W
LayerCount: 2
Fore
SplineSet
515 -47 m 0
 515 -150 427 -229 285 -229 c 0
 151 -229 65 -154 65 -34 c 0
 65 130 265 170 265 284 c 0
 265 303 261 321 253 338 c 1
 346 349 l 1
 359 325 365 302 365 277 c 0
 365 122 186 96 186 -31 c 0
 186 -116 238 -141 289 -141 c 0
 351 -141 395 -110 395 -47 c 0
 395 -27 392 -5 383 13 c 1
 496 42 l 1
 509 14 515 -17 515 -47 c 0
285 456 m 0
 240 456 205 484 205 530 c 0
 205 576 240 604 285 604 c 0
 330 604 365 576 365 530 c 0
 365 484 330 456 285 456 c 0
EndSplineSet
EndChar

StartChar: Agrave
Encoding: 192 192 131
Width: 750
GlyphClass: 2
Flags: W
AnchorPoint: "LatinBelow.mark" 375 0 basechar 0
AnchorPoint: "LatinAbove.mark" 375 330 basechar 0
LayerCount: 2
Fore
SplineSet
220 978 m 1
 269 1055 l 1
 485 890 l 1
 454 845 l 1
 220 978 l 1
735 0 m 1
 599 0 l 1
 540 167 l 1
 210 167 l 1
 151 0 l 1
 15 0 l 1
 15 8 l 1
 325 780 l 1
 425 780 l 1
 735 8 l 1
 735 0 l 1
510 253 m 1
 375 638 l 1
 240 253 l 1
 510 253 l 1
EndSplineSet
EndChar

StartChar: Aacute
Encoding: 193 193 132
Width: 750
GlyphClass: 2
Flags: W
AnchorPoint: "LatinBelow.mark" 375 0 basechar 0
AnchorPoint: "LatinAbove.mark" 375 330 basechar 0
LayerCount: 2
Fore
SplineSet
530 978 m 1
 296 845 l 1
 265 890 l 1
 481 1055 l 1
 530 978 l 1
735 0 m 1
 599 0 l 1
 540 167 l 1
 210 167 l 1
 151 0 l 1
 15 0 l 1
 15 8 l 1
 325 780 l 1
 425 780 l 1
 735 8 l 1
 735 0 l 1
510 253 m 1
 375 638 l 1
 240 253 l 1
 510 253 l 1
EndSplineSet
EndChar

StartChar: Acircumflex
Encoding: 194 194 133
Width: 750
GlyphClass: 2
Flags: W
AnchorPoint: "LatinBelow.mark" 375 0 basechar 0
AnchorPoint: "LatinAbove.mark" 375 330 basechar 0
LayerCount: 2
Fore
SplineSet
180 867 m 1
 360 1015 l 1
 390 1015 l 1
 570 867 l 1
 536 830 l 1
 375 927 l 1
 214 830 l 1
 180 867 l 1
735 0 m 1
 599 0 l 1
 540 167 l 1
 210 167 l 1
 151 0 l 1
 15 0 l 1
 15 8 l 1
 325 780 l 1
 425 780 l 1
 735 8 l 1
 735 0 l 1
510 253 m 1
 375 638 l 1
 240 253 l 1
 510 253 l 1
EndSplineSet
EndChar

StartChar: Atilde
Encoding: 195 195 134
Width: 750
GlyphClass: 2
Flags: W
AnchorPoint: "LatinBelow.mark" 375 0 basechar 0
AnchorPoint: "LatinAbove.mark" 375 330 basechar 0
LayerCount: 2
Fore
SplineSet
180 888 m 1
 202 944 232 1010 299 1010 c 0
 352 1010 382 979 404 959 c 0
 424 940 438 922 454 922 c 0
 484 922 503 979 512 1003 c 1
 570 982 l 1
 549 926 518 860 451 860 c 0
 398 860 368 891 346 911 c 0
 326 930 312 948 296 948 c 0
 266 948 248 891 238 867 c 1
 180 888 l 1
735 0 m 1
 599 0 l 1
 540 167 l 1
 210 167 l 1
 151 0 l 1
 15 0 l 1
 15 8 l 1
 325 780 l 1
 425 780 l 1
 735 8 l 1
 735 0 l 1
510 253 m 1
 375 638 l 1
 240 253 l 1
 510 253 l 1
EndSplineSet
EndChar

StartChar: Adieresis
Encoding: 196 196 135
Width: 750
GlyphClass: 2
Flags: W
AnchorPoint: "LatinBelow.mark" 375 0 basechar 0
AnchorPoint: "LatinAbove.mark" 375 330 basechar 0
LayerCount: 2
Fore
SplineSet
180 930 m 0
 180 972 212 998 254 998 c 0
 296 998 328 972 328 930 c 0
 328 888 296 862 254 862 c 0
 212 862 180 888 180 930 c 0
423 930 m 0
 423 972 455 998 497 998 c 0
 539 998 570 972 570 930 c 0
 570 888 539 862 497 862 c 0
 455 862 423 888 423 930 c 0
735 0 m 1
 599 0 l 1
 540 167 l 1
 210 167 l 1
 151 0 l 1
 15 0 l 1
 15 8 l 1
 325 780 l 1
 425 780 l 1
 735 8 l 1
 735 0 l 1
510 253 m 1
 375 638 l 1
 240 253 l 1
 510 253 l 1
EndSplineSet
EndChar

StartChar: Aring
Encoding: 197 197 136
Width: 750
GlyphClass: 2
Flags: W
AnchorPoint: "LatinBelow.mark" 375 0 basechar 0
AnchorPoint: "LatinAbove.mark" 375 330 basechar 0
LayerCount: 2
Fore
SplineSet
375 803 m 0
 306 803 255 848 255 915 c 0
 255 982 306 1027 375 1027 c 0
 444 1027 495 982 495 915 c 0
 495 848 444 803 375 803 c 0
375 855 m 0
 412 855 436 880 436 915 c 0
 436 950 412 975 375 975 c 0
 338 975 314 950 314 915 c 0
 314 880 338 855 375 855 c 0
735 0 m 1
 599 0 l 1
 540 167 l 1
 210 167 l 1
 151 0 l 1
 15 0 l 1
 15 8 l 1
 325 780 l 1
 425 780 l 1
 735 8 l 1
 735 0 l 1
510 253 m 1
 375 638 l 1
 240 253 l 1
 510 253 l 1
EndSplineSet
EndChar

StartChar: AE
Encoding: 198 198 137
Width: 980
GlyphClass: 2
Flags: W
AnchorPoint: "LatinBelow.mark" 510 0 basechar 0
AnchorPoint: "LatinAbove.mark" 510 150 basechar 0
LayerCount: 2
Fore
SplineSet
20 0 m 1
 20 8 l 1
 406 780 l 1
 455 780 l 1
 507 780 l 1
 910 780 l 1
 910 687 l 1
 575 687 l 1
 575 428 l 1
 874 428 l 1
 874 342 l 1
 575 342 l 1
 575 93 l 1
 925 93 l 1
 925 0 l 1
 455 0 l 1
 455 167 l 1
 230 167 l 1
 155 0 l 1
 20 0 l 1
455 665 m 1
 269 253 l 1
 455 253 l 1
 455 665 l 1
EndSplineSet
EndChar

StartChar: Ccedilla
Encoding: 199 199 138
Width: 755
GlyphClass: 2
Flags: W
AnchorPoint: "LatinAbove.mark" 410 150 basechar 0
LayerCount: 2
Fore
SplineSet
317 -278 m 1
 383 -262 464 -234 464 -175 c 0
 464 -155 449 -137 395 -137 c 0
 380 -137 361 -140 350 -142 c 1
 317 -108 l 1
 367 -17 l 1
 131 5 60 200 60 374 c 2
 60 406 l 2
 60 590 140 799 412 799 c 0
 612 799 700 670 715 589 c 1
 592 577 l 1
 581 634 522 708 412 708 c 0
 261 708 186 590 186 406 c 2
 186 374 l 2
 186 190 261 72 412 72 c 0
 522 72 581 146 592 203 c 1
 715 191 l 1
 700 112 617 -11 430 -19 c 1
 393 -85 l 1
 407 -85 l 2
 487 -85 537 -116 537 -175 c 0
 537 -286 388 -317 335 -330 c 1
 317 -278 l 1
EndSplineSet
EndChar

StartChar: Egrave
Encoding: 200 200 139
Width: 675
GlyphClass: 2
Flags: W
AnchorPoint: "LatinBelow.mark" 350 0 basechar 0
AnchorPoint: "LatinAbove.mark" 350 330 basechar 0
LayerCount: 2
Fore
SplineSet
195 978 m 1
 244 1055 l 1
 460 890 l 1
 429 845 l 1
 195 978 l 1
90 0 m 1
 90 780 l 1
 605 780 l 1
 605 687 l 1
 210 687 l 1
 210 428 l 1
 569 428 l 1
 569 342 l 1
 210 342 l 1
 210 93 l 1
 620 93 l 1
 620 0 l 1
 90 0 l 1
EndSplineSet
EndChar

StartChar: Eacute
Encoding: 201 201 140
Width: 675
GlyphClass: 2
Flags: W
AnchorPoint: "LatinBelow.mark" 350 0 basechar 0
AnchorPoint: "LatinAbove.mark" 350 330 basechar 0
LayerCount: 2
Fore
SplineSet
505 978 m 1
 271 845 l 1
 240 890 l 1
 456 1055 l 1
 505 978 l 1
90 0 m 1
 90 780 l 1
 605 780 l 1
 605 687 l 1
 210 687 l 1
 210 428 l 1
 569 428 l 1
 569 342 l 1
 210 342 l 1
 210 93 l 1
 620 93 l 1
 620 0 l 1
 90 0 l 1
EndSplineSet
EndChar

StartChar: Ecircumflex
Encoding: 202 202 141
Width: 675
GlyphClass: 2
Flags: W
AnchorPoint: "LatinBelow.mark" 350 0 basechar 0
AnchorPoint: "LatinAbove.mark" 350 330 basechar 0
LayerCount: 2
Fore
SplineSet
155 867 m 1
 335 1015 l 1
 365 1015 l 1
 545 867 l 1
 511 830 l 1
 350 927 l 1
 189 830 l 1
 155 867 l 1
90 0 m 1
 90 780 l 1
 605 780 l 1
 605 687 l 1
 210 687 l 1
 210 428 l 1
 569 428 l 1
 569 342 l 1
 210 342 l 1
 210 93 l 1
 620 93 l 1
 620 0 l 1
 90 0 l 1
EndSplineSet
EndChar

StartChar: Edieresis
Encoding: 203 203 142
Width: 675
GlyphClass: 2
Flags: W
AnchorPoint: "LatinBelow.mark" 350 0 basechar 0
AnchorPoint: "LatinAbove.mark" 350 330 basechar 0
LayerCount: 2
Fore
SplineSet
155 930 m 0
 155 972 187 998 229 998 c 0
 271 998 303 972 303 930 c 0
 303 888 271 862 229 862 c 0
 187 862 155 888 155 930 c 0
398 930 m 0
 398 972 430 998 472 998 c 0
 514 998 545 972 545 930 c 0
 545 888 514 862 472 862 c 0
 430 862 398 888 398 930 c 0
90 0 m 1
 90 780 l 1
 605 780 l 1
 605 687 l 1
 210 687 l 1
 210 428 l 1
 569 428 l 1
 569 342 l 1
 210 342 l 1
 210 93 l 1
 620 93 l 1
 620 0 l 1
 90 0 l 1
EndSplineSet
EndChar

StartChar: Igrave
Encoding: 204 204 143
Width: 320
GlyphClass: 2
Flags: W
AnchorPoint: "LatinBelow.mark" 160 0 basechar 0
AnchorPoint: "LatinAbove.mark" 160 330 basechar 0
LayerCount: 2
Fore
SplineSet
5 978 m 1
 54 1055 l 1
 270 890 l 1
 239 845 l 1
 5 978 l 1
100 0 m 1
 100 780 l 1
 220 780 l 1
 220 0 l 1
 100 0 l 1
EndSplineSet
EndChar

StartChar: Iacute
Encoding: 205 205 144
Width: 320
GlyphClass: 2
Flags: W
AnchorPoint: "LatinBelow.mark" 160 0 basechar 0
AnchorPoint: "LatinAbove.mark" 160 330 basechar 0
LayerCount: 2
Fore
SplineSet
315 978 m 1
 81 845 l 1
 50 890 l 1
 266 1055 l 1
 315 978 l 1
100 0 m 1
 100 780 l 1
 220 780 l 1
 220 0 l 1
 100 0 l 1
EndSplineSet
EndChar

StartChar: Icircumflex
Encoding: 206 206 145
Width: 320
GlyphClass: 2
Flags: W
AnchorPoint: "LatinBelow.mark" 160 0 basechar 0
AnchorPoint: "LatinAbove.mark" 160 330 basechar 0
LayerCount: 2
Fore
SplineSet
-35 867 m 1
 145 1015 l 1
 175 1015 l 1
 355 867 l 1
 321 830 l 1
 160 927 l 1
 -1 830 l 1
 -35 867 l 1
100 0 m 1
 100 780 l 1
 220 780 l 1
 220 0 l 1
 100 0 l 1
EndSplineSet
EndChar

StartChar: Idieresis
Encoding: 207 207 146
Width: 320
GlyphClass: 2
Flags: W
AnchorPoint: "LatinBelow.mark" 160 0 basechar 0
AnchorPoint: "LatinAbove.mark" 160 330 basechar 0
LayerCount: 2
Fore
SplineSet
-35 930 m 0
 -35 972 -3 998 39 998 c 0
 81 998 113 972 113 930 c 0
 113 888 81 862 39 862 c 0
 -3 862 -35 888 -35 930 c 0
208 930 m 0
 208 972 240 998 282 998 c 0
 324 998 355 972 355 930 c 0
 355 888 324 862 282 862 c 0
 240 862 208 888 208 930 c 0
100 0 m 1
 100 780 l 1
 220 780 l 1
 220 0 l 1
 100 0 l 1
EndSplineSet
EndChar

StartChar: Eth
Encoding: 208 208 147
Width: 770
GlyphClass: 2
Flags: W
AnchorPoint: "LatinBelow.mark" 320 0 basechar 0
AnchorPoint: "LatinAbove.mark" 320 150 basechar 0
LayerCount: 2
Fore
SplineSet
10 357 m 1
 10 423 l 1
 90 423 l 1
 90 780 l 1
 90 780 200 789 293 789 c 0
 606 789 710 592 710 404 c 2
 710 376 l 2
 710 188 606 -9 293 -9 c 0
 200 -9 90 0 90 0 c 1
 90 357 l 1
 10 357 l 1
210 80 m 1
 237 79 269 78 293 78 c 0
 511 78 590 202 590 376 c 2
 590 404 l 2
 590 578 511 702 293 702 c 0
 269 702 237 701 210 700 c 1
 210 423 l 1
 410 423 l 1
 410 357 l 1
 210 357 l 1
 210 80 l 1
EndSplineSet
EndChar

StartChar: Ntilde
Encoding: 209 209 148
Width: 790
GlyphClass: 2
Flags: W
AnchorPoint: "LatinBelow.mark" 395 0 basechar 0
LayerCount: 2
Fore
SplineSet
200 888 m 1
 222 944 252 1010 319 1010 c 0
 372 1010 402 979 424 959 c 0
 444 940 458 922 474 922 c 0
 504 922 523 979 532 1003 c 1
 590 982 l 1
 569 926 538 860 471 860 c 0
 418 860 388 891 366 911 c 0
 346 930 332 948 316 948 c 0
 286 948 268 891 258 867 c 1
 200 888 l 1
90 0 m 1
 90 769 l 1
 193 780 l 1
 583 193 l 1
 583 780 l 1
 700 780 l 1
 700 0 l 1
 597 0 l 1
 207 587 l 1
 207 0 l 1
 90 0 l 1
EndSplineSet
EndChar

StartChar: Ograve
Encoding: 210 210 149
Width: 820
GlyphClass: 2
Flags: W
AnchorPoint: "LatinBelow.mark" 410 0 basechar 0
AnchorPoint: "LatinAbove.mark" 410 330 basechar 0
LayerCount: 2
Fore
SplineSet
255 978 m 1
 304 1055 l 1
 520 890 l 1
 489 845 l 1
 255 978 l 1
60 372 m 2
 60 408 l 2
 60 590 138 799 410 799 c 0
 682 799 760 590 760 408 c 2
 760 372 l 2
 760 190 682 -19 410 -19 c 0
 138 -19 60 190 60 372 c 2
410 71 m 0
 563 71 637 189 637 372 c 2
 637 408 l 2
 637 591 563 709 410 709 c 0
 257 709 183 591 183 408 c 2
 183 372 l 2
 183 189 257 71 410 71 c 0
EndSplineSet
EndChar

StartChar: Oacute
Encoding: 211 211 150
Width: 820
GlyphClass: 2
Flags: W
AnchorPoint: "LatinBelow.mark" 410 0 basechar 0
AnchorPoint: "LatinAbove.mark" 410 330 basechar 0
LayerCount: 2
Fore
SplineSet
565 978 m 1
 331 845 l 1
 300 890 l 1
 516 1055 l 1
 565 978 l 1
60 372 m 2
 60 408 l 2
 60 590 138 799 410 799 c 0
 682 799 760 590 760 408 c 2
 760 372 l 2
 760 190 682 -19 410 -19 c 0
 138 -19 60 190 60 372 c 2
410 71 m 0
 563 71 637 189 637 372 c 2
 637 408 l 2
 637 591 563 709 410 709 c 0
 257 709 183 591 183 408 c 2
 183 372 l 2
 183 189 257 71 410 71 c 0
EndSplineSet
EndChar

StartChar: Ocircumflex
Encoding: 212 212 151
Width: 820
GlyphClass: 2
Flags: W
AnchorPoint: "LatinBelow.mark" 410 0 basechar 0
AnchorPoint: "LatinAbove.mark" 410 330 basechar 0
LayerCount: 2
Fore
SplineSet
215 867 m 1
 395 1015 l 1
 425 1015 l 1
 605 867 l 1
 571 830 l 1
 410 927 l 1
 249 830 l 1
 215 867 l 1
60 372 m 2
 60 408 l 2
 60 590 138 799 410 799 c 0
 682 799 760 590 760 408 c 2
 760 372 l 2
 760 190 682 -19 410 -19 c 0
 138 -19 60 190 60 372 c 2
410 71 m 0
 563 71 637 189 637 372 c 2
 637 408 l 2
 637 591 563 709 410 709 c 0
 257 709 183 591 183 408 c 2
 183 372 l 2
 183 189 257 71 410 71 c 0
EndSplineSet
EndChar

StartChar: Otilde
Encoding: 213 213 152
Width: 820
GlyphClass: 2
Flags: W
AnchorPoint: "LatinBelow.mark" 410 0 basechar 0
AnchorPoint: "LatinAbove.mark" 410 330 basechar 0
LayerCount: 2
Fore
SplineSet
215 888 m 1
 237 944 267 1010 334 1010 c 0
 387 1010 417 979 439 959 c 0
 459 940 473 922 489 922 c 0
 519 922 538 979 547 1003 c 1
 605 982 l 1
 584 926 553 860 486 860 c 0
 433 860 403 891 381 911 c 0
 361 930 347 948 331 948 c 0
 301 948 283 891 273 867 c 1
 215 888 l 1
60 372 m 2
 60 408 l 2
 60 590 138 799 410 799 c 0
 682 799 760 590 760 408 c 2
 760 372 l 2
 760 190 682 -19 410 -19 c 0
 138 -19 60 190 60 372 c 2
410 71 m 0
 563 71 637 189 637 372 c 2
 637 408 l 2
 637 591 563 709 410 709 c 0
 257 709 183 591 183 408 c 2
 183 372 l 2
 183 189 257 71 410 71 c 0
EndSplineSet
EndChar

StartChar: Odieresis
Encoding: 214 214 153
Width: 820
GlyphClass: 2
Flags: W
AnchorPoint: "LatinBelow.mark" 410 0 basechar 0
AnchorPoint: "LatinAbove.mark" 410 330 basechar 0
LayerCount: 2
Fore
SplineSet
215 930 m 0
 215 972 247 998 289 998 c 0
 331 998 363 972 363 930 c 0
 363 888 331 862 289 862 c 0
 247 862 215 888 215 930 c 0
458 930 m 0
 458 972 490 998 532 998 c 0
 574 998 605 972 605 930 c 0
 605 888 574 862 532 862 c 0
 490 862 458 888 458 930 c 0
60 372 m 2
 60 408 l 2
 60 590 138 799 410 799 c 0
 682 799 760 590 760 408 c 2
 760 372 l 2
 760 190 682 -19 410 -19 c 0
 138 -19 60 190 60 372 c 2
410 71 m 0
 563 71 637 189 637 372 c 2
 637 408 l 2
 637 591 563 709 410 709 c 0
 257 709 183 591 183 408 c 2
 183 372 l 2
 183 189 257 71 410 71 c 0
EndSplineSet
EndChar

StartChar: multiply
Encoding: 215 215 154
Width: 600
GlyphClass: 2
Flags: W
LayerCount: 2
Fore
SplineSet
98 501 m 1
 158 562 l 1
 300 420 l 1
 442 562 l 1
 502 501 l 1
 361 360 l 1
 502 219 l 1
 441 158 l 1
 300 299 l 1
 159 158 l 1
 98 219 l 1
 239 360 l 1
 98 501 l 1
EndSplineSet
EndChar

StartChar: Oslash
Encoding: 216 216 155
Width: 820
GlyphClass: 2
Flags: W
AnchorPoint: "LatinBelow.mark" 410 0 basechar 0
AnchorPoint: "LatinAbove.mark" 410 150 basechar 0
LayerCount: 2
Fore
SplineSet
60 372 m 2
 60 408 l 2
 60 590 138 799 410 799 c 0
 510 799 583 770 636 726 c 1
 698 803 l 1
 750 766 l 1
 681 680 l 1
 739 604 760 502 760 408 c 2
 760 372 l 2
 760 190 682 -19 410 -19 c 0
 308 -19 234 11 180 57 c 1
 122 -15 l 1
 70 22 l 1
 136 104 l 1
 80 180 60 279 60 372 c 2
569 642 m 1
 532 685 479 709 410 709 c 0
 257 709 183 591 183 408 c 2
 183 372 l 2
 183 305 193 247 213 200 c 1
 569 642 l 1
605 585 m 1
 248 142 l 1
 285 97 339 71 410 71 c 0
 563 71 637 189 637 372 c 2
 637 408 l 2
 637 477 627 537 605 585 c 1
EndSplineSet
EndChar

StartChar: Ugrave
Encoding: 217 217 156
Width: 770
GlyphClass: 2
Flags: W
AnchorPoint: "LatinBelow.mark" 385 0 basechar 0
AnchorPoint: "LatinAbove.mark" 385 330 basechar 0
LayerCount: 2
Fore
SplineSet
230 978 m 1
 279 1055 l 1
 495 890 l 1
 464 845 l 1
 230 978 l 1
80 240 m 2
 80 780 l 1
 202 780 l 1
 202 240 l 2
 202 127 279 71 385 71 c 0
 491 71 568 127 568 240 c 2
 568 780 l 1
 690 780 l 1
 690 240 l 2
 690 93 571 -18 385 -18 c 0
 199 -18 80 93 80 240 c 2
EndSplineSet
EndChar

StartChar: Uacute
Encoding: 218 218 157
Width: 770
GlyphClass: 2
Flags: W
AnchorPoint: "LatinBelow.mark" 385 0 basechar 0
AnchorPoint: "LatinAbove.mark" 385 330 basechar 0
LayerCount: 2
Fore
SplineSet
540 978 m 1
 306 845 l 1
 275 890 l 1
 491 1055 l 1
 540 978 l 1
80 240 m 2
 80 780 l 1
 202 780 l 1
 202 240 l 2
 202 127 279 71 385 71 c 0
 491 71 568 127 568 240 c 2
 568 780 l 1
 690 780 l 1
 690 240 l 2
 690 93 571 -18 385 -18 c 0
 199 -18 80 93 80 240 c 2
EndSplineSet
EndChar

StartChar: Ucircumflex
Encoding: 219 219 158
Width: 770
GlyphClass: 2
Flags: W
AnchorPoint: "LatinBelow.mark" 385 0 basechar 0
AnchorPoint: "LatinAbove.mark" 385 330 basechar 0
LayerCount: 2
Fore
SplineSet
190 867 m 1
 370 1015 l 1
 400 1015 l 1
 580 867 l 1
 546 830 l 1
 385 927 l 1
 224 830 l 1
 190 867 l 1
80 240 m 2
 80 780 l 1
 202 780 l 1
 202 240 l 2
 202 127 279 71 385 71 c 0
 491 71 568 127 568 240 c 2
 568 780 l 1
 690 780 l 1
 690 240 l 2
 690 93 571 -18 385 -18 c 0
 199 -18 80 93 80 240 c 2
EndSplineSet
EndChar

StartChar: Udieresis
Encoding: 220 220 159
Width: 770
GlyphClass: 2
Flags: W
AnchorPoint: "LatinBelow.mark" 385 0 basechar 0
AnchorPoint: "LatinAbove.mark" 385 330 basechar 0
LayerCount: 2
Fore
SplineSet
190 930 m 0
 190 972 222 998 264 998 c 0
 306 998 338 972 338 930 c 0
 338 888 306 862 264 862 c 0
 222 862 190 888 190 930 c 0
433 930 m 0
 433 972 465 998 507 998 c 0
 549 998 580 972 580 930 c 0
 580 888 549 862 507 862 c 0
 465 862 433 888 433 930 c 0
80 240 m 2
 80 780 l 1
 202 780 l 1
 202 240 l 2
 202 127 279 71 385 71 c 0
 491 71 568 127 568 240 c 2
 568 780 l 1
 690 780 l 1
 690 240 l 2
 690 93 571 -18 385 -18 c 0
 199 -18 80 93 80 240 c 2
EndSplineSet
EndChar

StartChar: Yacute
Encoding: 221 221 160
Width: 670
GlyphClass: 2
Flags: W
AnchorPoint: "LatinBelow.mark" 335 0 basechar 0
AnchorPoint: "LatinAbove.mark" 345 330 basechar 0
LayerCount: 2
Fore
SplineSet
490 978 m 1
 256 845 l 1
 225 890 l 1
 441 1055 l 1
 490 978 l 1
10 761 m 1
 10 769 l 1
 145 780 l 1
 335 412 l 1
 525 780 l 1
 660 769 l 1
 660 761 l 1
 395 295 l 1
 395 0 l 1
 275 0 l 1
 275 295 l 1
 10 761 l 1
EndSplineSet
EndChar

StartChar: Thorn
Encoding: 222 222 161
Width: 725
GlyphClass: 2
Flags: W
AnchorPoint: "LatinBelow.mark" 160 0 basechar 0
AnchorPoint: "LatinAbove.mark" 160 150 basechar 0
LayerCount: 2
Fore
SplineSet
209 270 m 1
 241 268 288 266 336 266 c 0
 455 266 551 303 551 414 c 0
 551 525 455 563 336 563 c 0
 288 563 241 561 209 559 c 1
 209 270 l 1
209 646 m 1
 251 648 301 649 350 649 c 0
 537 649 670 563 670 414 c 0
 670 265 537 180 350 180 c 0
 301 180 251 181 209 183 c 1
 209 0 l 1
 90 0 l 1
 90 189 l 1
 90 640 l 1
 90 780 l 1
 209 780 l 1
 209 646 l 1
EndSplineSet
EndChar

StartChar: germandbls
Encoding: 223 223 162
Width: 780
GlyphClass: 2
Flags: W
AnchorPoint: "LatinBelow.mark" 350 0 basechar 0
AnchorPoint: "LatinAbove.mark" 350 180 basechar 0
LayerCount: 2
Fore
SplineSet
327 140 m 1
 434 148 l 1
 441 101 478 62 534 62 c 0
 592 62 633 90 633 154 c 0
 633 207 589 232 568 240 c 0
 532 254 488 273 453 288 c 0
 402 309 340 354 340 442 c 0
 340 537 408 604 523 604 c 0
 529 604 534 604 540 603 c 1
 517 708 439 748 358 748 c 0
 282 748 203 712 203 576 c 2
 203 0 l 1
 90 0 l 1
 90 576 l 2
 90 736 203 829 358 829 c 0
 528 829 632 711 642 566 c 1
 588 519 l 1
 579 524 561 532 527 532 c 0
 482 532 446 508 446 452 c 0
 446 396 488 375 511 365 c 0
 546 350 591 331 623 318 c 0
 676 297 740 248 740 154 c 0
 740 63 670 -19 534 -19 c 0
 391 -19 335 81 327 140 c 1
EndSplineSet
EndChar

StartChar: agrave
Encoding: 224 224 163
Width: 625
GlyphClass: 2
Flags: W
AnchorPoint: "LatinBelow.mark" 330 0 basechar 0
AnchorPoint: "LatinAbove.mark" 310 180 basechar 0
LayerCount: 2
Fore
SplineSet
155 828 m 1
 204 905 l 1
 420 740 l 1
 389 695 l 1
 155 828 l 1
55 173 m 0
 55 249 118 323 252 323 c 0
 317 323 381 318 430 313 c 1
 430 419 l 2
 430 503 373 537 300 537 c 0
 231 537 183 497 173 424 c 1
 60 433 l 1
 73 526 149 619 300 619 c 0
 447 619 540 534 540 419 c 2
 540 143 l 2
 540 87 554 66 605 60 c 1
 577 -14 l 1
 536 -9 473 9 453 75 c 1
 418 26 362 -14 273 -14 c 0
 138 -14 55 58 55 173 c 0
436 245 m 1
 392 251 328 257 258 257 c 0
 210 257 165 228 165 171 c 0
 165 88 224 55 287 55 c 0
 385 55 424 135 436 210 c 1
 436 245 l 1
EndSplineSet
MultipleSubs2: "Latin.a.decomp subtable" uni0251 uni0300
EndChar

StartChar: aacute
Encoding: 225 225 164
Width: 625
GlyphClass: 2
Flags: W
AnchorPoint: "LatinBelow.mark" 330 0 basechar 0
AnchorPoint: "LatinAbove.mark" 310 180 basechar 0
LayerCount: 2
Fore
SplineSet
465 828 m 1
 231 695 l 1
 200 740 l 1
 416 905 l 1
 465 828 l 1
55 173 m 0
 55 249 118 323 252 323 c 0
 317 323 381 318 430 313 c 1
 430 419 l 2
 430 503 373 537 300 537 c 0
 231 537 183 497 173 424 c 1
 60 433 l 1
 73 526 149 619 300 619 c 0
 447 619 540 534 540 419 c 2
 540 143 l 2
 540 87 554 66 605 60 c 1
 577 -14 l 1
 536 -9 473 9 453 75 c 1
 418 26 362 -14 273 -14 c 0
 138 -14 55 58 55 173 c 0
436 245 m 1
 392 251 328 257 258 257 c 0
 210 257 165 228 165 171 c 0
 165 88 224 55 287 55 c 0
 385 55 424 135 436 210 c 1
 436 245 l 1
EndSplineSet
MultipleSubs2: "Latin.a.decomp subtable" uni0251 uni0301
EndChar

StartChar: acircumflex
Encoding: 226 226 165
Width: 625
GlyphClass: 2
Flags: W
AnchorPoint: "LatinBelow.mark" 330 0 basechar 0
AnchorPoint: "LatinAbove.mark" 310 180 basechar 0
LayerCount: 2
Fore
SplineSet
115 717 m 1
 295 865 l 1
 325 865 l 1
 505 717 l 1
 471 680 l 1
 310 777 l 1
 149 680 l 1
 115 717 l 1
55 173 m 0
 55 249 118 323 252 323 c 0
 317 323 381 318 430 313 c 1
 430 419 l 2
 430 503 373 537 300 537 c 0
 231 537 183 497 173 424 c 1
 60 433 l 1
 73 526 149 619 300 619 c 0
 447 619 540 534 540 419 c 2
 540 143 l 2
 540 87 554 66 605 60 c 1
 577 -14 l 1
 536 -9 473 9 453 75 c 1
 418 26 362 -14 273 -14 c 0
 138 -14 55 58 55 173 c 0
436 245 m 1
 392 251 328 257 258 257 c 0
 210 257 165 228 165 171 c 0
 165 88 224 55 287 55 c 0
 385 55 424 135 436 210 c 1
 436 245 l 1
EndSplineSet
MultipleSubs2: "Latin.a.decomp subtable" uni0251 uni0302
EndChar

StartChar: atilde
Encoding: 227 227 166
Width: 625
GlyphClass: 2
Flags: W
AnchorPoint: "LatinBelow.mark" 330 0 basechar 0
AnchorPoint: "LatinAbove.mark" 310 180 basechar 0
LayerCount: 2
Fore
SplineSet
115 738 m 1
 137 794 167 860 234 860 c 0
 287 860 317 829 339 809 c 0
 359 790 373 772 389 772 c 0
 419 772 438 829 447 853 c 1
 505 832 l 1
 484 776 453 710 386 710 c 0
 333 710 303 741 281 761 c 0
 261 780 247 798 231 798 c 0
 201 798 183 741 173 717 c 1
 115 738 l 1
55 173 m 0
 55 249 118 323 252 323 c 0
 317 323 381 318 430 313 c 1
 430 419 l 2
 430 503 373 537 300 537 c 0
 231 537 183 497 173 424 c 1
 60 433 l 1
 73 526 149 619 300 619 c 0
 447 619 540 534 540 419 c 2
 540 143 l 2
 540 87 554 66 605 60 c 1
 577 -14 l 1
 536 -9 473 9 453 75 c 1
 418 26 362 -14 273 -14 c 0
 138 -14 55 58 55 173 c 0
436 245 m 1
 392 251 328 257 258 257 c 0
 210 257 165 228 165 171 c 0
 165 88 224 55 287 55 c 0
 385 55 424 135 436 210 c 1
 436 245 l 1
EndSplineSet
MultipleSubs2: "Latin.a.decomp subtable" uni0251 uni0303
EndChar

StartChar: adieresis
Encoding: 228 228 167
Width: 625
GlyphClass: 2
Flags: W
AnchorPoint: "LatinBelow.mark" 330 0 basechar 0
AnchorPoint: "LatinAbove.mark" 310 180 basechar 0
LayerCount: 2
Fore
SplineSet
115 780 m 0
 115 822 147 848 189 848 c 0
 231 848 263 822 263 780 c 0
 263 738 231 712 189 712 c 0
 147 712 115 738 115 780 c 0
358 780 m 0
 358 822 390 848 432 848 c 0
 474 848 505 822 505 780 c 0
 505 738 474 712 432 712 c 0
 390 712 358 738 358 780 c 0
55 173 m 0
 55 249 118 323 252 323 c 0
 317 323 381 318 430 313 c 1
 430 419 l 2
 430 503 373 537 300 537 c 0
 231 537 183 497 173 424 c 1
 60 433 l 1
 73 526 149 619 300 619 c 0
 447 619 540 534 540 419 c 2
 540 143 l 2
 540 87 554 66 605 60 c 1
 577 -14 l 1
 536 -9 473 9 453 75 c 1
 418 26 362 -14 273 -14 c 0
 138 -14 55 58 55 173 c 0
436 245 m 1
 392 251 328 257 258 257 c 0
 210 257 165 228 165 171 c 0
 165 88 224 55 287 55 c 0
 385 55 424 135 436 210 c 1
 436 245 l 1
EndSplineSet
MultipleSubs2: "Latin.a.decomp subtable" uni0251 uni0308
EndChar

StartChar: aring
Encoding: 229 229 168
Width: 625
GlyphClass: 2
Flags: W
AnchorPoint: "LatinBelow.mark" 330 0 basechar 0
AnchorPoint: "LatinAbove.mark" 310 180 basechar 0
LayerCount: 2
Fore
SplineSet
310 653 m 0
 241 653 190 698 190 765 c 0
 190 832 241 877 310 877 c 0
 379 877 430 832 430 765 c 0
 430 698 379 653 310 653 c 0
310 705 m 0
 347 705 371 730 371 765 c 0
 371 800 347 825 310 825 c 0
 273 825 249 800 249 765 c 0
 249 730 273 705 310 705 c 0
55 173 m 0
 55 249 118 323 252 323 c 0
 317 323 381 318 430 313 c 1
 430 419 l 2
 430 503 373 537 300 537 c 0
 231 537 183 497 173 424 c 1
 60 433 l 1
 73 526 149 619 300 619 c 0
 447 619 540 534 540 419 c 2
 540 143 l 2
 540 87 554 66 605 60 c 1
 577 -14 l 1
 536 -9 473 9 453 75 c 1
 418 26 362 -14 273 -14 c 0
 138 -14 55 58 55 173 c 0
436 245 m 1
 392 251 328 257 258 257 c 0
 210 257 165 228 165 171 c 0
 165 88 224 55 287 55 c 0
 385 55 424 135 436 210 c 1
 436 245 l 1
EndSplineSet
MultipleSubs2: "Latin.a.decomp subtable" uni0251 uni030A
EndChar

StartChar: ae
Encoding: 230 230 169
Width: 960
GlyphClass: 2
Flags: W
AnchorPoint: "LatinBelow.mark" 480 0 basechar 0
AnchorPoint: "LatinAbove.mark" 480 0 basechar 0
LayerCount: 2
Fore
SplineSet
55 173 m 0
 55 250 114 323 245 323 c 0
 307 323 366 318 412 313 c 1
 412 419 l 2
 412 503 359 537 292 537 c 0
 228 537 183 497 173 424 c 1
 60 433 l 1
 73 526 146 619 292 619 c 0
 379 619 445 585 482 530 c 1
 519 583 577 619 664 619 c 0
 828 619 905 493 905 360 c 0
 905 333 902 305 897 279 c 1
 522 279 l 1
 524 143 571 61 664 61 c 0
 740 61 776 115 783 158 c 1
 892 148 l 1
 881 84 810 -19 664 -19 c 0
 565 -19 504 26 468 89 c 1
 435 32 374 -19 267 -19 c 0
 136 -19 55 56 55 173 c 0
523 351 m 1
 799 351 l 1
 799 361 l 2
 799 480 746 539 664 539 c 0
 584 539 532 469 523 351 c 1
417 245 m 1
 376 251 320 257 254 257 c 0
 206 257 165 229 165 171 c 0
 165 88 221 57 280 57 c 0
 368 57 406 127 417 201 c 1
 417 245 l 1
EndSplineSet
EndChar

StartChar: ccedilla
Encoding: 231 231 170
Width: 605
GlyphClass: 2
Flags: W
AnchorPoint: "LatinAbove.mark" 330 0 basechar 0
LayerCount: 2
Fore
SplineSet
235 -278 m 1
 301 -262 382 -234 382 -175 c 0
 382 -155 367 -137 313 -137 c 0
 298 -137 279 -140 268 -142 c 1
 235 -108 l 1
 286 -16 l 1
 105 6 55 159 55 287 c 2
 55 313 l 2
 55 451 113 619 331 619 c 0
 491 619 559 515 570 452 c 1
 456 442 l 1
 448 484 405 536 331 536 c 0
 230 536 171 453 171 313 c 2
 171 287 l 2
 171 147 230 64 331 64 c 0
 405 64 448 116 456 158 c 1
 570 148 l 1
 559 87 496 -12 348 -19 c 1
 311 -85 l 1
 325 -85 l 2
 405 -85 455 -116 455 -175 c 0
 455 -286 306 -317 253 -330 c 1
 235 -278 l 1
EndSplineSet
EndChar

StartChar: egrave
Encoding: 232 232 171
Width: 640
GlyphClass: 2
Flags: W
AnchorPoint: "LatinBelow.mark" 330 0 basechar 0
AnchorPoint: "LatinAbove.mark" 330 180 basechar 0
LayerCount: 2
Fore
SplineSet
175 828 m 1
 224 905 l 1
 440 740 l 1
 409 695 l 1
 175 828 l 1
55 286 m 2
 55 314 l 2
 55 452 116 619 327 619 c 0
 500 619 585 492 585 360 c 0
 585 333 582 306 577 279 c 1
 166 279 l 1
 168 144 224 61 327 61 c 0
 407 61 452 115 459 158 c 1
 568 148 l 1
 557 83 485 -19 327 -19 c 0
 112 -19 55 147 55 286 c 2
167 351 m 1
 479 351 l 1
 479 361 l 2
 479 481 415 539 327 539 c 0
 232 539 176 468 167 351 c 1
EndSplineSet
EndChar

StartChar: eacute
Encoding: 233 233 172
Width: 640
GlyphClass: 2
Flags: W
AnchorPoint: "LatinBelow.mark" 330 0 basechar 0
AnchorPoint: "LatinAbove.mark" 330 180 basechar 0
LayerCount: 2
Fore
SplineSet
485 828 m 1
 251 695 l 1
 220 740 l 1
 436 905 l 1
 485 828 l 1
55 286 m 2
 55 314 l 2
 55 452 116 619 327 619 c 0
 500 619 585 492 585 360 c 0
 585 333 582 306 577 279 c 1
 166 279 l 1
 168 144 224 61 327 61 c 0
 407 61 452 115 459 158 c 1
 568 148 l 1
 557 83 485 -19 327 -19 c 0
 112 -19 55 147 55 286 c 2
167 351 m 1
 479 351 l 1
 479 361 l 2
 479 481 415 539 327 539 c 0
 232 539 176 468 167 351 c 1
EndSplineSet
EndChar

StartChar: ecircumflex
Encoding: 234 234 173
Width: 640
GlyphClass: 2
Flags: W
AnchorPoint: "LatinBelow.mark" 330 0 basechar 0
AnchorPoint: "LatinAbove.mark" 330 180 basechar 0
LayerCount: 2
Fore
SplineSet
135 717 m 1
 315 865 l 1
 345 865 l 1
 525 717 l 1
 491 680 l 1
 330 777 l 1
 169 680 l 1
 135 717 l 1
55 286 m 2
 55 314 l 2
 55 452 116 619 327 619 c 0
 500 619 585 492 585 360 c 0
 585 333 582 306 577 279 c 1
 166 279 l 1
 168 144 224 61 327 61 c 0
 407 61 452 115 459 158 c 1
 568 148 l 1
 557 83 485 -19 327 -19 c 0
 112 -19 55 147 55 286 c 2
167 351 m 1
 479 351 l 1
 479 361 l 2
 479 481 415 539 327 539 c 0
 232 539 176 468 167 351 c 1
EndSplineSet
EndChar

StartChar: edieresis
Encoding: 235 235 174
Width: 640
GlyphClass: 2
Flags: W
AnchorPoint: "LatinBelow.mark" 330 0 basechar 0
AnchorPoint: "LatinAbove.mark" 330 180 basechar 0
LayerCount: 2
Fore
SplineSet
135 780 m 0
 135 822 167 848 209 848 c 0
 251 848 283 822 283 780 c 0
 283 738 251 712 209 712 c 0
 167 712 135 738 135 780 c 0
378 780 m 0
 378 822 410 848 452 848 c 0
 494 848 525 822 525 780 c 0
 525 738 494 712 452 712 c 0
 410 712 378 738 378 780 c 0
55 286 m 2
 55 314 l 2
 55 452 116 619 327 619 c 0
 500 619 585 492 585 360 c 0
 585 333 582 306 577 279 c 1
 166 279 l 1
 168 144 224 61 327 61 c 0
 407 61 452 115 459 158 c 1
 568 148 l 1
 557 83 485 -19 327 -19 c 0
 112 -19 55 147 55 286 c 2
167 351 m 1
 479 351 l 1
 479 361 l 2
 479 481 415 539 327 539 c 0
 232 539 176 468 167 351 c 1
EndSplineSet
EndChar

StartChar: igrave
Encoding: 236 236 175
Width: 300
GlyphClass: 2
Flags: W
AnchorPoint: "LatinBelow.mark" 150 0 basechar 0
AnchorPoint: "LatinAbove.mark" 150 180 basechar 0
LayerCount: 2
Fore
SplineSet
-5 828 m 1
 44 905 l 1
 260 740 l 1
 229 695 l 1
 -5 828 l 1
93 0 m 1
 93 600 l 1
 207 600 l 1
 207 0 l 1
 93 0 l 1
EndSplineSet
EndChar

StartChar: iacute
Encoding: 237 237 176
Width: 300
GlyphClass: 2
Flags: W
AnchorPoint: "LatinBelow.mark" 150 0 basechar 0
AnchorPoint: "LatinAbove.mark" 150 180 basechar 0
LayerCount: 2
Fore
SplineSet
305 828 m 1
 71 695 l 1
 40 740 l 1
 256 905 l 1
 305 828 l 1
93 0 m 1
 93 600 l 1
 207 600 l 1
 207 0 l 1
 93 0 l 1
EndSplineSet
EndChar

StartChar: icircumflex
Encoding: 238 238 177
Width: 300
GlyphClass: 2
Flags: W
AnchorPoint: "LatinBelow.mark" 150 0 basechar 0
AnchorPoint: "LatinAbove.mark" 150 180 basechar 0
LayerCount: 2
Fore
SplineSet
-45 717 m 1
 135 865 l 1
 165 865 l 1
 345 717 l 1
 311 680 l 1
 150 777 l 1
 -11 680 l 1
 -45 717 l 1
93 0 m 1
 93 600 l 1
 207 600 l 1
 207 0 l 1
 93 0 l 1
EndSplineSet
EndChar

StartChar: idieresis
Encoding: 239 239 178
Width: 300
GlyphClass: 2
Flags: W
AnchorPoint: "LatinBelow.mark" 150 0 basechar 0
AnchorPoint: "LatinAbove.mark" 150 180 basechar 0
LayerCount: 2
Fore
SplineSet
-45 780 m 0
 -45 822 -13 848 29 848 c 0
 71 848 103 822 103 780 c 0
 103 738 71 712 29 712 c 0
 -13 712 -45 738 -45 780 c 0
198 780 m 0
 198 822 230 848 272 848 c 0
 314 848 345 822 345 780 c 0
 345 738 314 712 272 712 c 0
 230 712 198 738 198 780 c 0
93 0 m 1
 93 600 l 1
 207 600 l 1
 207 0 l 1
 93 0 l 1
EndSplineSet
EndChar

StartChar: eth
Encoding: 240 240 179
Width: 660
GlyphClass: 2
Flags: W
AnchorPoint: "LatinBelow.mark" 330 0 basechar 0
AnchorPoint: "LatinAbove.mark" 350 180 basechar 0
LayerCount: 2
Fore
SplineSet
386 787 m 1
 525 822 l 1
 540 765 l 1
 437 739 l 1
 555 616 605 469 605 307 c 2
 605 280 l 2
 605 145 548 -19 330 -19 c 0
 112 -19 55 145 55 280 c 2
 55 311 l 2
 55 449 120 609 307 609 c 0
 365 609 411 587 447 554 c 1
 422 612 387 666 337 714 c 1
 135 663 l 1
 120 720 l 1
 282 761 l 1
 259 778 235 795 208 811 c 1
 272 869 l 1
 315 843 352 816 386 787 c 1
489 376 m 0
 468 456 409 526 320 526 c 0
 223 526 168 452 168 311 c 2
 168 280 l 2
 168 143 226 61 330 61 c 0
 434 61 492 143 492 280 c 2
 492 307 l 2
 492 331 491 354 489 376 c 0
EndSplineSet
EndChar

StartChar: ntilde
Encoding: 241 241 180
Width: 655
GlyphClass: 2
Flags: W
AnchorPoint: "LatinBelow.mark" 360 0 basechar 0
LayerCount: 2
Fore
SplineSet
135 738 m 1
 157 794 187 860 254 860 c 0
 307 860 337 829 359 809 c 0
 379 790 393 772 409 772 c 0
 439 772 458 829 467 853 c 1
 525 832 l 1
 504 776 473 710 406 710 c 0
 353 710 323 741 301 761 c 0
 281 780 267 798 251 798 c 0
 221 798 203 741 193 717 c 1
 135 738 l 1
85 0 m 1
 85 420 l 1
 75 594 l 1
 178 603 l 1
 194 453 l 1
 234 537 303 614 413 614 c 0
 530 614 585 520 585 416 c 2
 585 0 l 1
 472 0 l 1
 472 412 l 2
 472 497 429 524 383 524 c 0
 289 524 214 408 198 299 c 1
 198 0 l 1
 85 0 l 1
EndSplineSet
EndChar

StartChar: ograve
Encoding: 242 242 181
Width: 660
GlyphClass: 2
Flags: W
AnchorPoint: "LatinBelow.mark" 330 0 basechar 0
AnchorPoint: "LatinAbove.mark" 330 180 basechar 0
LayerCount: 2
Fore
SplineSet
175 828 m 1
 224 905 l 1
 440 740 l 1
 409 695 l 1
 175 828 l 1
55 286 m 2
 55 314 l 2
 55 452 113 619 330 619 c 0
 547 619 605 452 605 314 c 2
 605 286 l 2
 605 148 547 -19 330 -19 c 0
 113 -19 55 148 55 286 c 2
330 63 m 0
 435 63 492 146 492 286 c 2
 492 314 l 2
 492 454 435 537 330 537 c 0
 225 537 168 454 168 314 c 2
 168 286 l 2
 168 146 225 63 330 63 c 0
EndSplineSet
EndChar

StartChar: oacute
Encoding: 243 243 182
Width: 660
GlyphClass: 2
Flags: W
AnchorPoint: "LatinBelow.mark" 330 0 basechar 0
AnchorPoint: "LatinAbove.mark" 330 180 basechar 0
LayerCount: 2
Fore
SplineSet
485 828 m 1
 251 695 l 1
 220 740 l 1
 436 905 l 1
 485 828 l 1
55 286 m 2
 55 314 l 2
 55 452 113 619 330 619 c 0
 547 619 605 452 605 314 c 2
 605 286 l 2
 605 148 547 -19 330 -19 c 0
 113 -19 55 148 55 286 c 2
330 63 m 0
 435 63 492 146 492 286 c 2
 492 314 l 2
 492 454 435 537 330 537 c 0
 225 537 168 454 168 314 c 2
 168 286 l 2
 168 146 225 63 330 63 c 0
EndSplineSet
EndChar

StartChar: ocircumflex
Encoding: 244 244 183
Width: 660
GlyphClass: 2
Flags: W
AnchorPoint: "LatinBelow.mark" 330 0 basechar 0
AnchorPoint: "LatinAbove.mark" 330 180 basechar 0
LayerCount: 2
Fore
SplineSet
135 717 m 1
 315 865 l 1
 345 865 l 1
 525 717 l 1
 491 680 l 1
 330 777 l 1
 169 680 l 1
 135 717 l 1
55 286 m 2
 55 314 l 2
 55 452 113 619 330 619 c 0
 547 619 605 452 605 314 c 2
 605 286 l 2
 605 148 547 -19 330 -19 c 0
 113 -19 55 148 55 286 c 2
330 63 m 0
 435 63 492 146 492 286 c 2
 492 314 l 2
 492 454 435 537 330 537 c 0
 225 537 168 454 168 314 c 2
 168 286 l 2
 168 146 225 63 330 63 c 0
EndSplineSet
EndChar

StartChar: otilde
Encoding: 245 245 184
Width: 660
GlyphClass: 2
Flags: W
AnchorPoint: "LatinBelow.mark" 330 0 basechar 0
AnchorPoint: "LatinAbove.mark" 330 180 basechar 0
LayerCount: 2
Fore
SplineSet
135 738 m 1
 157 794 187 860 254 860 c 0
 307 860 337 829 359 809 c 0
 379 790 393 772 409 772 c 0
 439 772 458 829 467 853 c 1
 525 832 l 1
 504 776 473 710 406 710 c 0
 353 710 323 741 301 761 c 0
 281 780 267 798 251 798 c 0
 221 798 203 741 193 717 c 1
 135 738 l 1
55 286 m 2
 55 314 l 2
 55 452 113 619 330 619 c 0
 547 619 605 452 605 314 c 2
 605 286 l 2
 605 148 547 -19 330 -19 c 0
 113 -19 55 148 55 286 c 2
330 63 m 0
 435 63 492 146 492 286 c 2
 492 314 l 2
 492 454 435 537 330 537 c 0
 225 537 168 454 168 314 c 2
 168 286 l 2
 168 146 225 63 330 63 c 0
EndSplineSet
EndChar

StartChar: odieresis
Encoding: 246 246 185
Width: 660
GlyphClass: 2
Flags: W
AnchorPoint: "LatinBelow.mark" 330 0 basechar 0
AnchorPoint: "LatinAbove.mark" 330 180 basechar 0
LayerCount: 2
Fore
SplineSet
135 780 m 0
 135 822 167 848 209 848 c 0
 251 848 283 822 283 780 c 0
 283 738 251 712 209 712 c 0
 167 712 135 738 135 780 c 0
378 780 m 0
 378 822 410 848 452 848 c 0
 494 848 525 822 525 780 c 0
 525 738 494 712 452 712 c 0
 410 712 378 738 378 780 c 0
55 286 m 2
 55 314 l 2
 55 452 113 619 330 619 c 0
 547 619 605 452 605 314 c 2
 605 286 l 2
 605 148 547 -19 330 -19 c 0
 113 -19 55 148 55 286 c 2
330 63 m 0
 435 63 492 146 492 286 c 2
 492 314 l 2
 492 454 435 537 330 537 c 0
 225 537 168 454 168 314 c 2
 168 286 l 2
 168 146 225 63 330 63 c 0
EndSplineSet
EndChar

StartChar: divide
Encoding: 247 247 186
Width: 600
GlyphClass: 2
Flags: W
LayerCount: 2
Fore
SplineSet
90 320 m 1
 90 400 l 1
 510 400 l 1
 510 320 l 1
 90 320 l 1
230 215 m 0
 230 255 261 280 300 280 c 0
 339 280 370 255 370 215 c 0
 370 175 339 150 300 150 c 0
 261 150 230 175 230 215 c 0
230 505 m 0
 230 545 261 570 300 570 c 0
 339 570 370 545 370 505 c 0
 370 465 339 440 300 440 c 0
 261 440 230 465 230 505 c 0
EndSplineSet
EndChar

StartChar: oslash
Encoding: 248 248 187
Width: 660
GlyphClass: 2
Flags: W
AnchorPoint: "LatinBelow.mark" 330 0 basechar 0
AnchorPoint: "LatinAbove.mark" 330 0 basechar 0
LayerCount: 2
Fore
SplineSet
55 286 m 2
 55 314 l 2
 55 452 113 619 330 619 c 0
 406 619 463 599 504 566 c 1
 547 619 l 1
 595 585 l 1
 545 523 l 1
 589 463 605 385 605 314 c 2
 605 286 l 2
 605 148 547 -19 330 -19 c 0
 254 -19 197 1 156 34 c 1
 113 -19 l 1
 65 15 l 1
 115 77 l 1
 71 137 55 215 55 286 c 2
443 488 m 1
 416 520 378 537 330 537 c 0
 225 537 168 454 168 314 c 2
 168 286 l 2
 168 240 174 200 186 167 c 1
 443 488 l 1
474 433 m 1
 217 112 l 1
 244 80 282 63 330 63 c 0
 435 63 492 146 492 286 c 2
 492 314 l 2
 492 360 486 400 474 433 c 1
EndSplineSet
EndChar

StartChar: ugrave
Encoding: 249 249 188
Width: 620
GlyphClass: 2
Flags: W
AnchorPoint: "LatinBelow.mark" 310 0 basechar 0
AnchorPoint: "LatinAbove.mark" 310 180 basechar 0
LayerCount: 2
Fore
SplineSet
155 828 m 1
 204 905 l 1
 420 740 l 1
 389 695 l 1
 155 828 l 1
65 187 m 2
 65 600 l 1
 178 600 l 1
 178 187 l 2
 178 101 235 63 310 63 c 0
 385 63 442 101 442 187 c 2
 442 600 l 1
 555 600 l 1
 555 187 l 2
 555 72 461 -19 310 -19 c 0
 159 -19 65 72 65 187 c 2
EndSplineSet
EndChar

StartChar: uacute
Encoding: 250 250 189
Width: 620
GlyphClass: 2
Flags: W
AnchorPoint: "LatinBelow.mark" 310 0 basechar 0
AnchorPoint: "LatinAbove.mark" 310 180 basechar 0
LayerCount: 2
Fore
SplineSet
465 828 m 1
 231 695 l 1
 200 740 l 1
 416 905 l 1
 465 828 l 1
65 187 m 2
 65 600 l 1
 178 600 l 1
 178 187 l 2
 178 101 235 63 310 63 c 0
 385 63 442 101 442 187 c 2
 442 600 l 1
 555 600 l 1
 555 187 l 2
 555 72 461 -19 310 -19 c 0
 159 -19 65 72 65 187 c 2
EndSplineSet
EndChar

StartChar: ucircumflex
Encoding: 251 251 190
Width: 620
GlyphClass: 2
Flags: W
AnchorPoint: "LatinBelow.mark" 310 0 basechar 0
AnchorPoint: "LatinAbove.mark" 310 180 basechar 0
LayerCount: 2
Fore
SplineSet
115 717 m 1
 295 865 l 1
 325 865 l 1
 505 717 l 1
 471 680 l 1
 310 777 l 1
 149 680 l 1
 115 717 l 1
65 187 m 2
 65 600 l 1
 178 600 l 1
 178 187 l 2
 178 101 235 63 310 63 c 0
 385 63 442 101 442 187 c 2
 442 600 l 1
 555 600 l 1
 555 187 l 2
 555 72 461 -19 310 -19 c 0
 159 -19 65 72 65 187 c 2
EndSplineSet
EndChar

StartChar: udieresis
Encoding: 252 252 191
Width: 620
GlyphClass: 2
Flags: W
AnchorPoint: "LatinBelow.mark" 310 0 basechar 0
AnchorPoint: "LatinAbove.mark" 310 180 basechar 0
LayerCount: 2
Fore
SplineSet
115 780 m 0
 115 822 147 848 189 848 c 0
 231 848 263 822 263 780 c 0
 263 738 231 712 189 712 c 0
 147 712 115 738 115 780 c 0
358 780 m 0
 358 822 390 848 432 848 c 0
 474 848 505 822 505 780 c 0
 505 738 474 712 432 712 c 0
 390 712 358 738 358 780 c 0
65 187 m 2
 65 600 l 1
 178 600 l 1
 178 187 l 2
 178 101 235 63 310 63 c 0
 385 63 442 101 442 187 c 2
 442 600 l 1
 555 600 l 1
 555 187 l 2
 555 72 461 -19 310 -19 c 0
 159 -19 65 72 65 187 c 2
EndSplineSet
EndChar

StartChar: yacute
Encoding: 253 253 192
Width: 600
GlyphClass: 2
Flags: W
AnchorPoint: "LatinBelow.mark" 300 -180 basechar 0
AnchorPoint: "LatinAbove.mark" 300 180 basechar 0
LayerCount: 2
Fore
SplineSet
455 828 m 1
 221 695 l 1
 190 740 l 1
 406 905 l 1
 455 828 l 1
15 585 m 1
 15 591 l 1
 138 600 l 1
 300 132 l 1
 462 600 l 1
 585 591 l 1
 585 585 l 1
 340 -24 l 1
 298 -117 257 -229 139 -229 c 0
 86 -229 50 -207 25 -187 c 1
 80 -119 l 1
 97 -134 113 -150 135 -150 c 0
 180 -150 210 -90 248 -3 c 2
 252 6 l 1
 15 585 l 1
EndSplineSet
EndChar

StartChar: thorn
Encoding: 254 254 193
Width: 675
GlyphClass: 2
Flags: W
AnchorPoint: "LatinBelow.mark" 150 -180 basechar 0
AnchorPoint: "LatinAbove.mark" 135 180 basechar 0
LayerCount: 2
Fore
SplineSet
620 311 m 2
 620 289 l 2
 620 151 555 -14 368 -14 c 0
 290 -14 235 27 198 80 c 1
 198 -210 l 1
 85 -210 l 1
 85 810 l 1
 195 810 l 1
 195 518 l 1
 233 572 289 614 368 614 c 0
 555 614 620 449 620 311 c 2
198 215 m 1
 219 138 269 69 355 69 c 0
 452 69 507 148 507 289 c 2
 507 311 l 2
 507 452 452 531 355 531 c 0
 269 531 219 462 198 385 c 1
 198 215 l 1
EndSplineSet
EndChar

StartChar: ydieresis
Encoding: 255 255 194
Width: 600
GlyphClass: 2
Flags: W
AnchorPoint: "LatinBelow.mark" 300 -180 basechar 0
AnchorPoint: "LatinAbove.mark" 300 180 basechar 0
LayerCount: 2
Fore
SplineSet
105 780 m 0
 105 822 137 848 179 848 c 0
 221 848 253 822 253 780 c 0
 253 738 221 712 179 712 c 0
 137 712 105 738 105 780 c 0
348 780 m 0
 348 822 380 848 422 848 c 0
 464 848 495 822 495 780 c 0
 495 738 464 712 422 712 c 0
 380 712 348 738 348 780 c 0
15 585 m 1
 15 591 l 1
 138 600 l 1
 300 132 l 1
 462 600 l 1
 585 591 l 1
 585 585 l 1
 340 -24 l 1
 298 -117 257 -229 139 -229 c 0
 86 -229 50 -207 25 -187 c 1
 80 -119 l 1
 97 -134 113 -150 135 -150 c 0
 180 -150 210 -90 248 -3 c 2
 252 6 l 1
 15 585 l 1
EndSplineSet
EndChar

StartChar: Amacron
Encoding: 256 256 195
Width: 750
GlyphClass: 2
Flags: W
AnchorPoint: "LatinBelow.mark" 375 0 basechar 0
AnchorPoint: "LatinAbove.mark" 375 330 basechar 0
LayerCount: 2
Fore
SplineSet
180 894 m 1
 180 966 l 1
 570 966 l 1
 570 894 l 1
 180 894 l 1
735 0 m 1
 599 0 l 1
 540 167 l 1
 210 167 l 1
 151 0 l 1
 15 0 l 1
 15 8 l 1
 325 780 l 1
 425 780 l 1
 735 8 l 1
 735 0 l 1
510 253 m 1
 375 638 l 1
 240 253 l 1
 510 253 l 1
EndSplineSet
EndChar

StartChar: amacron
Encoding: 257 257 196
Width: 625
GlyphClass: 2
Flags: W
AnchorPoint: "LatinBelow.mark" 330 0 basechar 0
AnchorPoint: "LatinAbove.mark" 310 180 basechar 0
LayerCount: 2
Fore
SplineSet
115 744 m 1
 115 816 l 1
 505 816 l 1
 505 744 l 1
 115 744 l 1
55 173 m 0
 55 249 118 323 252 323 c 0
 317 323 381 318 430 313 c 1
 430 419 l 2
 430 503 373 537 300 537 c 0
 231 537 183 497 173 424 c 1
 60 433 l 1
 73 526 149 619 300 619 c 0
 447 619 540 534 540 419 c 2
 540 143 l 2
 540 87 554 66 605 60 c 1
 577 -14 l 1
 536 -9 473 9 453 75 c 1
 418 26 362 -14 273 -14 c 0
 138 -14 55 58 55 173 c 0
436 245 m 1
 392 251 328 257 258 257 c 0
 210 257 165 228 165 171 c 0
 165 88 224 55 287 55 c 0
 385 55 424 135 436 210 c 1
 436 245 l 1
EndSplineSet
MultipleSubs2: "Latin.a.decomp subtable" uni0251 uni0304
EndChar

StartChar: Abreve
Encoding: 258 258 197
Width: 750
GlyphClass: 2
Flags: W
AnchorPoint: "LatinBelow.mark" 375 0 basechar 0
AnchorPoint: "LatinAbove.mark" 375 330 basechar 0
LayerCount: 2
Fore
SplineSet
180 987 m 1
 250 1010 l 1
 262 967 291 915 375 915 c 0
 459 915 488 967 500 1010 c 1
 570 987 l 1
 551 919 496 845 375 845 c 0
 254 845 199 919 180 987 c 1
735 0 m 1
 599 0 l 1
 540 167 l 1
 210 167 l 1
 151 0 l 1
 15 0 l 1
 15 8 l 1
 325 780 l 1
 425 780 l 1
 735 8 l 1
 735 0 l 1
510 253 m 1
 375 638 l 1
 240 253 l 1
 510 253 l 1
EndSplineSet
EndChar

StartChar: abreve
Encoding: 259 259 198
Width: 625
GlyphClass: 2
Flags: W
AnchorPoint: "LatinBelow.mark" 330 0 basechar 0
AnchorPoint: "LatinAbove.mark" 310 180 basechar 0
LayerCount: 2
Fore
SplineSet
115 837 m 1
 185 860 l 1
 197 817 226 765 310 765 c 0
 394 765 423 817 435 860 c 1
 505 837 l 1
 486 769 431 695 310 695 c 0
 189 695 134 769 115 837 c 1
55 173 m 0
 55 249 118 323 252 323 c 0
 317 323 381 318 430 313 c 1
 430 419 l 2
 430 503 373 537 300 537 c 0
 231 537 183 497 173 424 c 1
 60 433 l 1
 73 526 149 619 300 619 c 0
 447 619 540 534 540 419 c 2
 540 143 l 2
 540 87 554 66 605 60 c 1
 577 -14 l 1
 536 -9 473 9 453 75 c 1
 418 26 362 -14 273 -14 c 0
 138 -14 55 58 55 173 c 0
436 245 m 1
 392 251 328 257 258 257 c 0
 210 257 165 228 165 171 c 0
 165 88 224 55 287 55 c 0
 385 55 424 135 436 210 c 1
 436 245 l 1
EndSplineSet
MultipleSubs2: "Latin.a.decomp subtable" uni0251 uni0306
EndChar

StartChar: Aogonek
Encoding: 260 260 199
Width: 750
GlyphClass: 2
Flags: W
AnchorPoint: "LatinAbove.mark" 375 150 basechar 0
LayerCount: 2
Fore
SplineSet
510 253 m 1
 375 638 l 1
 240 253 l 1
 510 253 l 1
642 0 m 1
 599 0 l 1
 540 167 l 1
 210 167 l 1
 151 0 l 1
 15 0 l 1
 15 8 l 1
 325 780 l 1
 425 780 l 1
 735 8 l 1
 735 0 l 1
 708 0 l 1
 682 -31 661 -74 661 -132 c 0
 661 -180 686 -196 716 -196 c 0
 744 -196 769 -186 779 -180 c 1
 798 -234 l 1
 772 -247 741 -255 703 -255 c 0
 627 -255 588 -209 588 -142 c 0
 588 -83 613 -36 642 0 c 1
EndSplineSet
EndChar

StartChar: aogonek
Encoding: 261 261 200
Width: 625
GlyphClass: 2
Flags: W
AnchorPoint: "LatinAbove.mark" 310 0 basechar 0
LayerCount: 2
Fore
SplineSet
436 245 m 1
 392 251 328 257 258 257 c 0
 210 257 165 228 165 171 c 0
 165 88 224 55 287 55 c 0
 385 55 424 135 436 210 c 1
 436 245 l 1
55 173 m 0
 55 249 118 323 252 323 c 0
 317 323 381 318 430 313 c 1
 430 419 l 2
 430 503 373 537 300 537 c 0
 231 537 183 497 173 424 c 1
 60 433 l 1
 73 526 149 619 300 619 c 0
 447 619 540 534 540 419 c 2
 540 143 l 2
 540 87 554 66 605 60 c 1
 577 -14 l 1
 568 -13 558 -11 547 -8 c 1
 524 -38 506 -79 506 -132 c 0
 506 -180 531 -196 561 -196 c 0
 589 -196 614 -186 624 -180 c 1
 643 -234 l 1
 617 -247 586 -255 548 -255 c 0
 472 -255 433 -209 433 -142 c 0
 433 -75 464 -24 498 13 c 1
 478 26 462 46 453 75 c 1
 418 26 362 -14 273 -14 c 0
 138 -14 55 58 55 173 c 0
EndSplineSet
MultipleSubs2: "Latin.a.decomp subtable" uni0251 uni0328
EndChar

StartChar: Cacute
Encoding: 262 262 201
Width: 755
GlyphClass: 2
Flags: W
AnchorPoint: "LatinBelow.mark" 410 0 basechar 0
LayerCount: 2
Fore
SplineSet
565 978 m 1
 331 845 l 1
 300 890 l 1
 516 1055 l 1
 565 978 l 1
60 406 m 2
 60 590 140 799 412 799 c 0
 612 799 700 670 715 589 c 1
 592 577 l 1
 581 634 522 708 412 708 c 0
 261 708 186 590 186 406 c 2
 186 374 l 2
 186 190 261 72 412 72 c 0
 522 72 581 146 592 203 c 1
 715 191 l 1
 700 110 612 -19 412 -19 c 0
 140 -19 60 190 60 374 c 2
 60 406 l 2
EndSplineSet
EndChar

StartChar: cacute
Encoding: 263 263 202
Width: 605
GlyphClass: 2
Flags: W
AnchorPoint: "LatinBelow.mark" 330 0 basechar 0
LayerCount: 2
Fore
SplineSet
485 828 m 1
 251 695 l 1
 220 740 l 1
 436 905 l 1
 485 828 l 1
55 287 m 2
 55 313 l 2
 55 451 113 619 331 619 c 0
 491 619 559 515 570 452 c 1
 456 442 l 1
 448 484 405 536 331 536 c 0
 230 536 171 453 171 313 c 2
 171 287 l 2
 171 147 230 64 331 64 c 0
 405 64 448 116 456 158 c 1
 570 148 l 1
 559 85 491 -19 331 -19 c 0
 113 -19 55 149 55 287 c 2
EndSplineSet
EndChar

StartChar: Ccircumflex
Encoding: 264 264 203
Width: 755
GlyphClass: 2
Flags: W
AnchorPoint: "LatinBelow.mark" 410 0 basechar 0
LayerCount: 2
Fore
SplineSet
215 867 m 1
 395 1015 l 1
 425 1015 l 1
 605 867 l 1
 571 830 l 1
 410 927 l 1
 249 830 l 1
 215 867 l 1
60 406 m 2
 60 590 140 799 412 799 c 0
 612 799 700 670 715 589 c 1
 592 577 l 1
 581 634 522 708 412 708 c 0
 261 708 186 590 186 406 c 2
 186 374 l 2
 186 190 261 72 412 72 c 0
 522 72 581 146 592 203 c 1
 715 191 l 1
 700 110 612 -19 412 -19 c 0
 140 -19 60 190 60 374 c 2
 60 406 l 2
EndSplineSet
EndChar

StartChar: ccircumflex
Encoding: 265 265 204
Width: 605
GlyphClass: 2
Flags: W
AnchorPoint: "LatinBelow.mark" 330 0 basechar 0
LayerCount: 2
Fore
SplineSet
135 717 m 1
 315 865 l 1
 345 865 l 1
 525 717 l 1
 491 680 l 1
 330 777 l 1
 169 680 l 1
 135 717 l 1
55 287 m 2
 55 313 l 2
 55 451 113 619 331 619 c 0
 491 619 559 515 570 452 c 1
 456 442 l 1
 448 484 405 536 331 536 c 0
 230 536 171 453 171 313 c 2
 171 287 l 2
 171 147 230 64 331 64 c 0
 405 64 448 116 456 158 c 1
 570 148 l 1
 559 85 491 -19 331 -19 c 0
 113 -19 55 149 55 287 c 2
EndSplineSet
EndChar

StartChar: Cdotaccent
Encoding: 266 266 205
Width: 755
GlyphClass: 2
Flags: W
AnchorPoint: "LatinBelow.mark" 410 0 basechar 0
LayerCount: 2
Fore
SplineSet
410 1004 m 0
 455 1004 490 976 490 930 c 0
 490 884 455 856 410 856 c 0
 365 856 330 884 330 930 c 0
 330 976 365 1004 410 1004 c 0
60 406 m 2
 60 590 140 799 412 799 c 0
 612 799 700 670 715 589 c 1
 592 577 l 1
 581 634 522 708 412 708 c 0
 261 708 186 590 186 406 c 2
 186 374 l 2
 186 190 261 72 412 72 c 0
 522 72 581 146 592 203 c 1
 715 191 l 1
 700 110 612 -19 412 -19 c 0
 140 -19 60 190 60 374 c 2
 60 406 l 2
EndSplineSet
EndChar

StartChar: cdotaccent
Encoding: 267 267 206
Width: 605
GlyphClass: 2
Flags: W
AnchorPoint: "LatinBelow.mark" 330 0 basechar 0
LayerCount: 2
Fore
SplineSet
330 854 m 0
 375 854 410 826 410 780 c 0
 410 734 375 706 330 706 c 0
 285 706 250 734 250 780 c 0
 250 826 285 854 330 854 c 0
55 287 m 2
 55 313 l 2
 55 451 113 619 331 619 c 0
 491 619 559 515 570 452 c 1
 456 442 l 1
 448 484 405 536 331 536 c 0
 230 536 171 453 171 313 c 2
 171 287 l 2
 171 147 230 64 331 64 c 0
 405 64 448 116 456 158 c 1
 570 148 l 1
 559 85 491 -19 331 -19 c 0
 113 -19 55 149 55 287 c 2
EndSplineSet
EndChar

StartChar: Ccaron
Encoding: 268 268 207
Width: 755
GlyphClass: 2
Flags: W
AnchorPoint: "LatinBelow.mark" 410 0 basechar 0
LayerCount: 2
Fore
SplineSet
605 988 m 1
 425 840 l 1
 395 840 l 1
 215 988 l 1
 249 1025 l 1
 410 928 l 1
 571 1025 l 1
 605 988 l 1
60 406 m 2
 60 590 140 799 412 799 c 0
 612 799 700 670 715 589 c 1
 592 577 l 1
 581 634 522 708 412 708 c 0
 261 708 186 590 186 406 c 2
 186 374 l 2
 186 190 261 72 412 72 c 0
 522 72 581 146 592 203 c 1
 715 191 l 1
 700 110 612 -19 412 -19 c 0
 140 -19 60 190 60 374 c 2
 60 406 l 2
EndSplineSet
EndChar

StartChar: ccaron
Encoding: 269 269 208
Width: 605
GlyphClass: 2
Flags: W
AnchorPoint: "LatinBelow.mark" 330 0 basechar 0
LayerCount: 2
Fore
SplineSet
525 838 m 1
 345 690 l 1
 315 690 l 1
 135 838 l 1
 169 875 l 1
 330 778 l 1
 491 875 l 1
 525 838 l 1
55 287 m 2
 55 313 l 2
 55 451 113 619 331 619 c 0
 491 619 559 515 570 452 c 1
 456 442 l 1
 448 484 405 536 331 536 c 0
 230 536 171 453 171 313 c 2
 171 287 l 2
 171 147 230 64 331 64 c 0
 405 64 448 116 456 158 c 1
 570 148 l 1
 559 85 491 -19 331 -19 c 0
 113 -19 55 149 55 287 c 2
EndSplineSet
EndChar

StartChar: Dcaron
Encoding: 270 270 209
Width: 770
GlyphClass: 2
Flags: W
AnchorPoint: "LatinBelow.mark" 320 0 basechar 0
LayerCount: 2
Fore
SplineSet
515 988 m 1
 335 840 l 1
 305 840 l 1
 125 988 l 1
 159 1025 l 1
 320 928 l 1
 481 1025 l 1
 515 988 l 1
210 80 m 1
 237 79 269 78 293 78 c 0
 511 78 590 202 590 376 c 2
 590 404 l 2
 590 578 511 702 293 702 c 0
 269 702 237 701 210 700 c 1
 210 80 l 1
90 780 m 1
 90 780 200 789 293 789 c 0
 606 789 710 592 710 404 c 2
 710 376 l 2
 710 188 606 -9 293 -9 c 0
 200 -9 90 0 90 0 c 1
 90 780 l 1
EndSplineSet
EndChar

StartChar: dcaron
Encoding: 271 271 210
Width: 890
GlyphClass: 2
Flags: W
AnchorPoint: "LatinBelow.mark" 360 0 basechar 0
AnchorPoint: "LatinAbove.mark" 525 180 basechar 0
LayerCount: 2
Fore
SplineSet
801 698 m 1
 794 696 785 695 777 695 c 0
 739 695 710 718 710 756 c 0
 710 798 737 830 785 830 c 0
 849 830 870 780 870 736 c 0
 870 636 801 578 745 555 c 1
 717 592 l 1
 751 606 790 642 801 698 c 1
55 289 m 2
 55 311 l 2
 55 449 120 614 307 614 c 0
 387 614 443 570 480 515 c 1
 480 810 l 1
 590 810 l 1
 590 143 l 2
 590 87 604 66 655 60 c 1
 627 -14 l 1
 579 -8 503 15 497 110 c 1
 459 44 399 -14 307 -14 c 0
 120 -14 55 151 55 289 c 2
480 374 m 1
 460 455 410 531 320 531 c 0
 223 531 168 452 168 311 c 2
 168 289 l 2
 168 148 223 69 320 69 c 0
 410 69 460 145 480 226 c 1
 480 374 l 1
EndSplineSet
EndChar

StartChar: Dcroat
Encoding: 272 272 211
Width: 770
GlyphClass: 2
Flags: W
AnchorPoint: "LatinBelow.mark" 320 0 basechar 0
AnchorPoint: "LatinAbove.mark" 320 150 basechar 0
LayerCount: 2
Fore
SplineSet
10 357 m 1
 10 423 l 1
 90 423 l 1
 90 780 l 1
 90 780 200 789 293 789 c 0
 606 789 710 592 710 404 c 2
 710 376 l 2
 710 188 606 -9 293 -9 c 0
 200 -9 90 0 90 0 c 1
 90 357 l 1
 10 357 l 1
210 80 m 1
 237 79 269 78 293 78 c 0
 511 78 590 202 590 376 c 2
 590 404 l 2
 590 578 511 702 293 702 c 0
 269 702 237 701 210 700 c 1
 210 423 l 1
 410 423 l 1
 410 357 l 1
 210 357 l 1
 210 80 l 1
EndSplineSet
EndChar

StartChar: dcroat
Encoding: 273 273 212
Width: 680
GlyphClass: 2
Flags: W
AnchorPoint: "LatinBelow.mark" 360 0 basechar 0
AnchorPoint: "LatinAbove.mark" 525 180 basechar 0
LayerCount: 2
Fore
SplineSet
320 687 m 1
 320 753 l 1
 480 753 l 1
 480 810 l 1
 590 810 l 1
 590 753 l 1
 660 753 l 1
 660 687 l 1
 590 687 l 1
 590 143 l 2
 590 87 604 66 655 60 c 1
 627 -14 l 1
 579 -8 503 15 497 110 c 1
 459 44 399 -14 307 -14 c 0
 120 -14 55 151 55 289 c 2
 55 311 l 2
 55 449 120 614 307 614 c 0
 387 614 443 570 480 515 c 1
 480 687 l 1
 320 687 l 1
480 374 m 1
 460 455 410 531 320 531 c 0
 223 531 168 452 168 311 c 2
 168 289 l 2
 168 148 223 69 320 69 c 0
 410 69 460 145 480 226 c 1
 480 374 l 1
EndSplineSet
EndChar

StartChar: Emacron
Encoding: 274 274 213
Width: 675
GlyphClass: 2
Flags: W
AnchorPoint: "LatinBelow.mark" 350 0 basechar 0
AnchorPoint: "LatinAbove.mark" 350 330 basechar 0
LayerCount: 2
Fore
SplineSet
155 894 m 1
 155 966 l 1
 545 966 l 1
 545 894 l 1
 155 894 l 1
90 0 m 1
 90 780 l 1
 605 780 l 1
 605 687 l 1
 210 687 l 1
 210 428 l 1
 569 428 l 1
 569 342 l 1
 210 342 l 1
 210 93 l 1
 620 93 l 1
 620 0 l 1
 90 0 l 1
EndSplineSet
EndChar

StartChar: emacron
Encoding: 275 275 214
Width: 640
GlyphClass: 2
Flags: W
AnchorPoint: "LatinBelow.mark" 330 0 basechar 0
AnchorPoint: "LatinAbove.mark" 330 180 basechar 0
LayerCount: 2
Fore
SplineSet
135 744 m 1
 135 816 l 1
 525 816 l 1
 525 744 l 1
 135 744 l 1
55 286 m 2
 55 314 l 2
 55 452 116 619 327 619 c 0
 500 619 585 492 585 360 c 0
 585 333 582 306 577 279 c 1
 166 279 l 1
 168 144 224 61 327 61 c 0
 407 61 452 115 459 158 c 1
 568 148 l 1
 557 83 485 -19 327 -19 c 0
 112 -19 55 147 55 286 c 2
167 351 m 1
 479 351 l 1
 479 361 l 2
 479 481 415 539 327 539 c 0
 232 539 176 468 167 351 c 1
EndSplineSet
EndChar

StartChar: Ebreve
Encoding: 276 276 215
Width: 675
GlyphClass: 2
Flags: W
AnchorPoint: "LatinBelow.mark" 350 0 basechar 0
AnchorPoint: "LatinAbove.mark" 350 330 basechar 0
LayerCount: 2
Fore
SplineSet
155 987 m 1
 225 1010 l 1
 237 967 266 915 350 915 c 0
 434 915 463 967 475 1010 c 1
 545 987 l 1
 526 919 471 845 350 845 c 0
 229 845 174 919 155 987 c 1
90 0 m 1
 90 780 l 1
 605 780 l 1
 605 687 l 1
 210 687 l 1
 210 428 l 1
 569 428 l 1
 569 342 l 1
 210 342 l 1
 210 93 l 1
 620 93 l 1
 620 0 l 1
 90 0 l 1
EndSplineSet
EndChar

StartChar: ebreve
Encoding: 277 277 216
Width: 640
GlyphClass: 2
Flags: W
AnchorPoint: "LatinBelow.mark" 330 0 basechar 0
AnchorPoint: "LatinAbove.mark" 330 180 basechar 0
LayerCount: 2
Fore
SplineSet
135 837 m 1
 205 860 l 1
 217 817 246 765 330 765 c 0
 414 765 443 817 455 860 c 1
 525 837 l 1
 506 769 451 695 330 695 c 0
 209 695 154 769 135 837 c 1
55 286 m 2
 55 314 l 2
 55 452 116 619 327 619 c 0
 500 619 585 492 585 360 c 0
 585 333 582 306 577 279 c 1
 166 279 l 1
 168 144 224 61 327 61 c 0
 407 61 452 115 459 158 c 1
 568 148 l 1
 557 83 485 -19 327 -19 c 0
 112 -19 55 147 55 286 c 2
167 351 m 1
 479 351 l 1
 479 361 l 2
 479 481 415 539 327 539 c 0
 232 539 176 468 167 351 c 1
EndSplineSet
EndChar

StartChar: Edotaccent
Encoding: 278 278 217
Width: 675
GlyphClass: 2
Flags: W
AnchorPoint: "LatinBelow.mark" 350 0 basechar 0
AnchorPoint: "LatinAbove.mark" 350 330 basechar 0
LayerCount: 2
Fore
SplineSet
350 1004 m 0
 395 1004 430 976 430 930 c 0
 430 884 395 856 350 856 c 0
 305 856 270 884 270 930 c 0
 270 976 305 1004 350 1004 c 0
90 0 m 1
 90 780 l 1
 605 780 l 1
 605 687 l 1
 210 687 l 1
 210 428 l 1
 569 428 l 1
 569 342 l 1
 210 342 l 1
 210 93 l 1
 620 93 l 1
 620 0 l 1
 90 0 l 1
EndSplineSet
EndChar

StartChar: edotaccent
Encoding: 279 279 218
Width: 640
GlyphClass: 2
Flags: W
AnchorPoint: "LatinBelow.mark" 330 0 basechar 0
AnchorPoint: "LatinAbove.mark" 330 180 basechar 0
LayerCount: 2
Fore
SplineSet
330 854 m 0
 375 854 410 826 410 780 c 0
 410 734 375 706 330 706 c 0
 285 706 250 734 250 780 c 0
 250 826 285 854 330 854 c 0
55 286 m 2
 55 314 l 2
 55 452 116 619 327 619 c 0
 500 619 585 492 585 360 c 0
 585 333 582 306 577 279 c 1
 166 279 l 1
 168 144 224 61 327 61 c 0
 407 61 452 115 459 158 c 1
 568 148 l 1
 557 83 485 -19 327 -19 c 0
 112 -19 55 147 55 286 c 2
167 351 m 1
 479 351 l 1
 479 361 l 2
 479 481 415 539 327 539 c 0
 232 539 176 468 167 351 c 1
EndSplineSet
EndChar

StartChar: Eogonek
Encoding: 280 280 219
Width: 675
GlyphClass: 2
Flags: W
AnchorPoint: "LatinAbove.mark" 350 150 basechar 0
LayerCount: 2
Fore
SplineSet
90 0 m 1
 90 780 l 1
 605 780 l 1
 605 687 l 1
 210 687 l 1
 210 428 l 1
 569 428 l 1
 569 342 l 1
 210 342 l 1
 210 93 l 1
 620 93 l 1
 620 0 l 1
 583 0 l 1
 557 -31 536 -74 536 -132 c 0
 536 -180 561 -196 591 -196 c 0
 619 -196 644 -186 654 -180 c 1
 673 -234 l 1
 647 -247 616 -255 578 -255 c 0
 502 -255 463 -209 463 -142 c 0
 463 -83 488 -36 517 0 c 1
 90 0 l 1
EndSplineSet
EndChar

StartChar: eogonek
Encoding: 281 281 220
Width: 640
GlyphClass: 2
Flags: W
AnchorPoint: "LatinAbove.mark" 330 0 basechar 0
LayerCount: 2
Fore
SplineSet
167 351 m 1
 479 351 l 1
 479 361 l 2
 479 481 415 539 327 539 c 0
 232 539 176 468 167 351 c 1
55 286 m 2
 55 314 l 2
 55 452 116 619 327 619 c 0
 500 619 585 492 585 360 c 0
 585 333 582 306 577 279 c 1
 166 279 l 1
 168 144 224 61 327 61 c 0
 407 61 452 115 459 158 c 1
 568 148 l 1
 561 105 526 45 457 10 c 1
 427 -22 401 -67 401 -132 c 0
 401 -180 426 -196 456 -196 c 0
 484 -196 509 -186 519 -180 c 1
 538 -234 l 1
 512 -247 481 -255 443 -255 c 0
 367 -255 328 -209 328 -142 c 0
 328 -91 346 -49 370 -16 c 1
 357 -18 342 -19 327 -19 c 0
 112 -19 55 147 55 286 c 2
EndSplineSet
EndChar

StartChar: Ecaron
Encoding: 282 282 221
Width: 675
GlyphClass: 2
Flags: W
AnchorPoint: "LatinBelow.mark" 350 0 basechar 0
AnchorPoint: "LatinAbove.mark" 350 330 basechar 0
LayerCount: 2
Fore
SplineSet
545 988 m 1
 365 840 l 1
 335 840 l 1
 155 988 l 1
 189 1025 l 1
 350 928 l 1
 511 1025 l 1
 545 988 l 1
90 0 m 1
 90 780 l 1
 605 780 l 1
 605 687 l 1
 210 687 l 1
 210 428 l 1
 569 428 l 1
 569 342 l 1
 210 342 l 1
 210 93 l 1
 620 93 l 1
 620 0 l 1
 90 0 l 1
EndSplineSet
EndChar

StartChar: ecaron
Encoding: 283 283 222
Width: 640
GlyphClass: 2
Flags: W
AnchorPoint: "LatinBelow.mark" 330 0 basechar 0
AnchorPoint: "LatinAbove.mark" 330 180 basechar 0
LayerCount: 2
Fore
SplineSet
525 838 m 1
 345 690 l 1
 315 690 l 1
 135 838 l 1
 169 875 l 1
 330 778 l 1
 491 875 l 1
 525 838 l 1
55 286 m 2
 55 314 l 2
 55 452 116 619 327 619 c 0
 500 619 585 492 585 360 c 0
 585 333 582 306 577 279 c 1
 166 279 l 1
 168 144 224 61 327 61 c 0
 407 61 452 115 459 158 c 1
 568 148 l 1
 557 83 485 -19 327 -19 c 0
 112 -19 55 147 55 286 c 2
167 351 m 1
 479 351 l 1
 479 361 l 2
 479 481 415 539 327 539 c 0
 232 539 176 468 167 351 c 1
EndSplineSet
EndChar

StartChar: Gcircumflex
Encoding: 284 284 223
Width: 770
GlyphClass: 2
Flags: W
AnchorPoint: "LatinBelow.mark" 410 0 basechar 0
LayerCount: 2
Fore
SplineSet
215 867 m 1
 395 1015 l 1
 425 1015 l 1
 605 867 l 1
 571 830 l 1
 410 927 l 1
 249 830 l 1
 215 867 l 1
419 302 m 1
 419 388 l 1
 710 388 l 1
 710 137 l 1
 677 71 585 -19 412 -19 c 0
 140 -19 60 190 60 374 c 2
 60 406 l 2
 60 590 140 799 412 799 c 0
 612 799 700 670 715 589 c 1
 593 577 l 1
 582 634 524 709 412 709 c 0
 259 709 183 592 183 406 c 2
 183 374 l 2
 183 188 259 71 412 71 c 0
 519 71 572 112 600 151 c 1
 600 302 l 1
 419 302 l 1
EndSplineSet
EndChar

StartChar: gcircumflex
Encoding: 285 285 224
Width: 670
GlyphClass: 2
Flags: W
AnchorPoint: "LatinBelow.mark" 360 -180 basechar 0
LayerCount: 2
Fore
SplineSet
165 717 m 1
 345 865 l 1
 375 865 l 1
 555 717 l 1
 521 680 l 1
 360 777 l 1
 199 680 l 1
 165 717 l 1
55 315 m 0
 55 448 120 614 307 614 c 0
 391 614 448 565 485 506 c 1
 494 600 l 1
 590 600 l 1
 590 -26 l 2
 590 -143 495 -229 348 -229 c 0
 203 -229 126 -158 110 -114 c 1
 215 -85 l 1
 223 -109 265 -151 348 -151 c 0
 428 -151 484 -112 484 -26 c 2
 484 122 l 1
 447 64 390 16 307 16 c 0
 120 16 55 182 55 315 c 0
480 372 m 1
 460 453 410 531 320 531 c 0
 223 531 168 451 168 315 c 0
 168 179 223 99 320 99 c 0
 410 99 460 177 480 258 c 1
 480 372 l 1
EndSplineSet
MultipleSubs2: "Latin.g.decomp subtable" g.alt uni0302
EndChar

StartChar: Gbreve
Encoding: 286 286 225
Width: 770
GlyphClass: 2
Flags: W
AnchorPoint: "LatinBelow.mark" 410 0 basechar 0
LayerCount: 2
Fore
SplineSet
215 987 m 1
 285 1010 l 1
 297 967 326 915 410 915 c 0
 494 915 523 967 535 1010 c 1
 605 987 l 1
 586 919 531 845 410 845 c 0
 289 845 234 919 215 987 c 1
419 302 m 1
 419 388 l 1
 710 388 l 1
 710 137 l 1
 677 71 585 -19 412 -19 c 0
 140 -19 60 190 60 374 c 2
 60 406 l 2
 60 590 140 799 412 799 c 0
 612 799 700 670 715 589 c 1
 593 577 l 1
 582 634 524 709 412 709 c 0
 259 709 183 592 183 406 c 2
 183 374 l 2
 183 188 259 71 412 71 c 0
 519 71 572 112 600 151 c 1
 600 302 l 1
 419 302 l 1
EndSplineSet
EndChar

StartChar: gbreve
Encoding: 287 287 226
Width: 670
GlyphClass: 2
Flags: W
AnchorPoint: "LatinBelow.mark" 360 -180 basechar 0
LayerCount: 2
Fore
SplineSet
165 837 m 1
 235 860 l 1
 247 817 276 765 360 765 c 0
 444 765 473 817 485 860 c 1
 555 837 l 1
 536 769 481 695 360 695 c 0
 239 695 184 769 165 837 c 1
55 315 m 0
 55 448 120 614 307 614 c 0
 391 614 448 565 485 506 c 1
 494 600 l 1
 590 600 l 1
 590 -26 l 2
 590 -143 495 -229 348 -229 c 0
 203 -229 126 -158 110 -114 c 1
 215 -85 l 1
 223 -109 265 -151 348 -151 c 0
 428 -151 484 -112 484 -26 c 2
 484 122 l 1
 447 64 390 16 307 16 c 0
 120 16 55 182 55 315 c 0
480 372 m 1
 460 453 410 531 320 531 c 0
 223 531 168 451 168 315 c 0
 168 179 223 99 320 99 c 0
 410 99 460 177 480 258 c 1
 480 372 l 1
EndSplineSet
MultipleSubs2: "Latin.g.decomp subtable" g.alt uni0306
EndChar

StartChar: Gdotaccent
Encoding: 288 288 227
Width: 770
GlyphClass: 2
Flags: W
AnchorPoint: "LatinBelow.mark" 410 0 basechar 0
LayerCount: 2
Fore
SplineSet
410 1004 m 0
 455 1004 490 976 490 930 c 0
 490 884 455 856 410 856 c 0
 365 856 330 884 330 930 c 0
 330 976 365 1004 410 1004 c 0
419 302 m 1
 419 388 l 1
 710 388 l 1
 710 137 l 1
 677 71 585 -19 412 -19 c 0
 140 -19 60 190 60 374 c 2
 60 406 l 2
 60 590 140 799 412 799 c 0
 612 799 700 670 715 589 c 1
 593 577 l 1
 582 634 524 709 412 709 c 0
 259 709 183 592 183 406 c 2
 183 374 l 2
 183 188 259 71 412 71 c 0
 519 71 572 112 600 151 c 1
 600 302 l 1
 419 302 l 1
EndSplineSet
EndChar

StartChar: gdotaccent
Encoding: 289 289 228
Width: 670
GlyphClass: 2
Flags: W
AnchorPoint: "LatinBelow.mark" 360 -180 basechar 0
LayerCount: 2
Fore
SplineSet
360 854 m 0
 405 854 440 826 440 780 c 0
 440 734 405 706 360 706 c 0
 315 706 280 734 280 780 c 0
 280 826 315 854 360 854 c 0
55 315 m 0
 55 448 120 614 307 614 c 0
 391 614 448 565 485 506 c 1
 494 600 l 1
 590 600 l 1
 590 -26 l 2
 590 -143 495 -229 348 -229 c 0
 203 -229 126 -158 110 -114 c 1
 215 -85 l 1
 223 -109 265 -151 348 -151 c 0
 428 -151 484 -112 484 -26 c 2
 484 122 l 1
 447 64 390 16 307 16 c 0
 120 16 55 182 55 315 c 0
480 372 m 1
 460 453 410 531 320 531 c 0
 223 531 168 451 168 315 c 0
 168 179 223 99 320 99 c 0
 410 99 460 177 480 258 c 1
 480 372 l 1
EndSplineSet
MultipleSubs2: "Latin.g.decomp subtable" g.alt uni0307
EndChar

StartChar: uni0122
Encoding: 290 290 229
Width: 770
GlyphClass: 2
Flags: W
AnchorPoint: "LatinAbove.mark" 410 150 basechar 0
LayerCount: 2
Fore
SplineSet
416 -202 m 1
 409 -204 400 -205 392 -205 c 0
 354 -205 325 -182 325 -144 c 0
 325 -102 352 -70 400 -70 c 0
 464 -70 485 -120 485 -164 c 0
 485 -264 416 -322 360 -345 c 1
 332 -308 l 1
 366 -294 405 -258 416 -202 c 1
419 302 m 1
 419 388 l 1
 710 388 l 1
 710 137 l 1
 677 71 585 -19 412 -19 c 0
 140 -19 60 190 60 374 c 2
 60 406 l 2
 60 590 140 799 412 799 c 0
 612 799 700 670 715 589 c 1
 593 577 l 1
 582 634 524 709 412 709 c 0
 259 709 183 592 183 406 c 2
 183 374 l 2
 183 188 259 71 412 71 c 0
 519 71 572 112 600 151 c 1
 600 302 l 1
 419 302 l 1
EndSplineSet
EndChar

StartChar: uni0123
Encoding: 291 291 230
Width: 670
GlyphClass: 2
Flags: W
AnchorPoint: "LatinBelow.mark" 360 -180 basechar 0
LayerCount: 2
Fore
SplineSet
354 832 m 1
 361 834 370 835 378 835 c 0
 416 835 445 812 445 774 c 0
 445 732 418 700 370 700 c 0
 306 700 285 750 285 794 c 0
 285 894 354 952 410 975 c 1
 438 938 l 1
 404 924 365 888 354 832 c 1
55 315 m 0
 55 448 120 614 307 614 c 0
 391 614 448 565 485 506 c 1
 494 600 l 1
 590 600 l 1
 590 -26 l 2
 590 -143 495 -229 348 -229 c 0
 203 -229 126 -158 110 -114 c 1
 215 -85 l 1
 223 -109 265 -151 348 -151 c 0
 428 -151 484 -112 484 -26 c 2
 484 122 l 1
 447 64 390 16 307 16 c 0
 120 16 55 182 55 315 c 0
480 372 m 1
 460 453 410 531 320 531 c 0
 223 531 168 451 168 315 c 0
 168 179 223 99 320 99 c 0
 410 99 460 177 480 258 c 1
 480 372 l 1
EndSplineSet
MultipleSubs2: "Latin.g.decomp subtable" g.alt uni0312
EndChar

StartChar: Hcircumflex
Encoding: 292 292 231
Width: 790
GlyphClass: 2
Flags: W
AnchorPoint: "LatinBelow.mark" 395 0 basechar 0
LayerCount: 2
Fore
SplineSet
200 867 m 1
 380 1015 l 1
 410 1015 l 1
 590 867 l 1
 556 830 l 1
 395 927 l 1
 234 830 l 1
 200 867 l 1
90 0 m 1
 90 780 l 1
 210 780 l 1
 210 436 l 1
 580 436 l 1
 580 780 l 1
 700 780 l 1
 700 0 l 1
 580 0 l 1
 580 344 l 1
 210 344 l 1
 210 0 l 1
 90 0 l 1
EndSplineSet
EndChar

StartChar: hcircumflex
Encoding: 293 293 232
Width: 665
GlyphClass: 2
Flags: W
AnchorPoint: "LatinBelow.mark" 360 0 basechar 0
LayerCount: 2
Fore
SplineSet
-60 897 m 1
 120 1045 l 1
 150 1045 l 1
 330 897 l 1
 296 860 l 1
 135 957 l 1
 -26 860 l 1
 -60 897 l 1
85 0 m 1
 85 810 l 1
 195 810 l 1
 195 448 l 1
 237 534 309 614 422 614 c 0
 541 614 595 520 595 416 c 2
 595 0 l 1
 482 0 l 1
 482 412 l 2
 482 497 439 524 392 524 c 0
 296 524 215 407 198 298 c 1
 198 0 l 1
 85 0 l 1
EndSplineSet
EndChar

StartChar: Hbar
Encoding: 294 294 233
Width: 790
GlyphClass: 2
Flags: W
AnchorPoint: "LatinBelow.mark" 395 0 basechar 0
AnchorPoint: "LatinAbove.mark" 395 150 basechar 0
LayerCount: 2
Fore
SplineSet
20 627 m 1
 20 693 l 1
 90 693 l 1
 90 780 l 1
 210 780 l 1
 210 693 l 1
 580 693 l 1
 580 780 l 1
 700 780 l 1
 700 693 l 1
 770 693 l 1
 770 627 l 1
 700 627 l 1
 700 0 l 1
 580 0 l 1
 580 344 l 1
 210 344 l 1
 210 0 l 1
 90 0 l 1
 90 627 l 1
 20 627 l 1
580 627 m 1
 210 627 l 1
 210 436 l 1
 580 436 l 1
 580 627 l 1
EndSplineSet
EndChar

StartChar: hbar
Encoding: 295 295 234
Width: 665
GlyphClass: 2
Flags: W
AnchorPoint: "LatinBelow.mark" 360 0 basechar 0
LayerCount: 2
Fore
SplineSet
15 687 m 1
 15 753 l 1
 85 753 l 1
 85 810 l 1
 195 810 l 1
 195 753 l 1
 355 753 l 1
 355 687 l 1
 195 687 l 1
 195 448 l 1
 237 534 309 614 422 614 c 0
 541 614 595 520 595 416 c 2
 595 0 l 1
 482 0 l 1
 482 412 l 2
 482 497 439 524 392 524 c 0
 296 524 215 407 198 298 c 1
 198 0 l 1
 85 0 l 1
 85 687 l 1
 15 687 l 1
EndSplineSet
EndChar

StartChar: Itilde
Encoding: 296 296 235
Width: 320
GlyphClass: 2
Flags: W
AnchorPoint: "LatinBelow.mark" 160 0 basechar 0
AnchorPoint: "LatinAbove.mark" 160 330 basechar 0
LayerCount: 2
Fore
SplineSet
-35 888 m 1
 -13 944 17 1010 84 1010 c 0
 137 1010 167 979 189 959 c 0
 209 940 223 922 239 922 c 0
 269 922 288 979 297 1003 c 1
 355 982 l 1
 334 926 303 860 236 860 c 0
 183 860 153 891 131 911 c 0
 111 930 97 948 81 948 c 0
 51 948 33 891 23 867 c 1
 -35 888 l 1
100 0 m 1
 100 780 l 1
 220 780 l 1
 220 0 l 1
 100 0 l 1
EndSplineSet
EndChar

StartChar: itilde
Encoding: 297 297 236
Width: 300
GlyphClass: 2
Flags: W
AnchorPoint: "LatinBelow.mark" 150 0 basechar 0
AnchorPoint: "LatinAbove.mark" 150 180 basechar 0
LayerCount: 2
Fore
SplineSet
-45 738 m 1
 -23 794 7 860 74 860 c 0
 127 860 157 829 179 809 c 0
 199 790 213 772 229 772 c 0
 259 772 278 829 287 853 c 1
 345 832 l 1
 324 776 293 710 226 710 c 0
 173 710 143 741 121 761 c 0
 101 780 87 798 71 798 c 0
 41 798 23 741 13 717 c 1
 -45 738 l 1
93 0 m 1
 93 600 l 1
 207 600 l 1
 207 0 l 1
 93 0 l 1
EndSplineSet
EndChar

StartChar: Imacron
Encoding: 298 298 237
Width: 320
GlyphClass: 2
Flags: W
AnchorPoint: "LatinBelow.mark" 160 0 basechar 0
AnchorPoint: "LatinAbove.mark" 160 330 basechar 0
LayerCount: 2
Fore
SplineSet
-35 894 m 1
 -35 966 l 1
 355 966 l 1
 355 894 l 1
 -35 894 l 1
100 0 m 1
 100 780 l 1
 220 780 l 1
 220 0 l 1
 100 0 l 1
EndSplineSet
EndChar

StartChar: imacron
Encoding: 299 299 238
Width: 300
GlyphClass: 2
Flags: W
AnchorPoint: "LatinBelow.mark" 150 0 basechar 0
AnchorPoint: "LatinAbove.mark" 150 180 basechar 0
LayerCount: 2
Fore
SplineSet
-45 744 m 1
 -45 816 l 1
 345 816 l 1
 345 744 l 1
 -45 744 l 1
93 0 m 1
 93 600 l 1
 207 600 l 1
 207 0 l 1
 93 0 l 1
EndSplineSet
EndChar

StartChar: Ibreve
Encoding: 300 300 239
Width: 320
GlyphClass: 2
Flags: W
LayerCount: 2
Fore
SplineSet
-35 987 m 1
 35 1010 l 1
 47 967 76 915 160 915 c 0
 244 915 273 967 285 1010 c 1
 355 987 l 1
 336 919 281 845 160 845 c 0
 39 845 -16 919 -35 987 c 1
100 0 m 1
 100 780 l 1
 220 780 l 1
 220 0 l 1
 100 0 l 1
EndSplineSet
EndChar

StartChar: ibreve
Encoding: 301 301 240
Width: 300
GlyphClass: 2
Flags: W
LayerCount: 2
Fore
SplineSet
-45 837 m 1
 25 860 l 1
 37 817 66 765 150 765 c 0
 234 765 263 817 275 860 c 1
 345 837 l 1
 326 769 271 695 150 695 c 0
 29 695 -26 769 -45 837 c 1
93 0 m 1
 93 600 l 1
 207 600 l 1
 207 0 l 1
 93 0 l 1
EndSplineSet
EndChar

StartChar: Iogonek
Encoding: 302 302 241
Width: 320
GlyphClass: 2
Flags: W
AnchorPoint: "LatinAbove.mark" 160 150 basechar 0
LayerCount: 2
Fore
SplineSet
100 0 m 1
 100 780 l 1
 220 780 l 1
 220 0 l 1
 203 0 l 1
 177 -31 156 -74 156 -132 c 0
 156 -180 181 -196 211 -196 c 0
 239 -196 264 -186 274 -180 c 1
 293 -234 l 1
 267 -247 236 -255 198 -255 c 0
 122 -255 83 -209 83 -142 c 0
 83 -83 108 -36 137 0 c 1
 100 0 l 1
EndSplineSet
EndChar

StartChar: iogonek
Encoding: 303 303 242
Width: 300
GlyphClass: 2
Flags: W
AnchorPoint: "LatinAbove.mark" 150 180 basechar 0
LayerCount: 2
Fore
SplineSet
150 854 m 0
 195 854 230 826 230 780 c 0
 230 734 195 706 150 706 c 0
 105 706 70 734 70 780 c 0
 70 826 105 854 150 854 c 0
93 0 m 1
 93 600 l 1
 207 600 l 1
 207 0 l 1
 193 0 l 1
 167 -31 146 -74 146 -132 c 0
 146 -180 171 -196 201 -196 c 0
 229 -196 254 -186 264 -180 c 1
 283 -234 l 1
 257 -247 226 -255 188 -255 c 0
 112 -255 73 -209 73 -142 c 0
 73 -83 98 -36 127 0 c 1
 93 0 l 1
EndSplineSet
EndChar

StartChar: Idotaccent
Encoding: 304 304 243
Width: 320
GlyphClass: 2
Flags: W
AnchorPoint: "LatinBelow.mark" 160 0 basechar 0
AnchorPoint: "LatinAbove.mark" 160 330 basechar 0
LayerCount: 2
Fore
SplineSet
160 1004 m 0
 205 1004 240 976 240 930 c 0
 240 884 205 856 160 856 c 0
 115 856 80 884 80 930 c 0
 80 976 115 1004 160 1004 c 0
100 0 m 1
 100 780 l 1
 220 780 l 1
 220 0 l 1
 100 0 l 1
EndSplineSet
EndChar

StartChar: dotlessi
Encoding: 305 305 244
Width: 300
GlyphClass: 2
Flags: W
AnchorPoint: "LatinOgonek.mark" 155 0 basechar 0
AnchorPoint: "LatinBelow.mark" 150 0 basechar 0
AnchorPoint: "LatinAbove.mark" 150 0 basechar 0
LayerCount: 2
Fore
SplineSet
93 0 m 1
 93 600 l 1
 207 600 l 1
 207 0 l 1
 93 0 l 1
EndSplineSet
EndChar

StartChar: Jcircumflex
Encoding: 308 308 245
Width: 520
GlyphClass: 2
Flags: W
AnchorPoint: "LatinBelow.mark" 230 0 basechar 0
LayerCount: 2
Fore
SplineSet
165 867 m 1
 345 1015 l 1
 375 1015 l 1
 555 867 l 1
 521 830 l 1
 360 927 l 1
 199 830 l 1
 165 867 l 1
20 138 m 1
 141 147 l 1
 149 93 181 67 225 67 c 0
 269 67 309 91 309 164 c 2
 309 780 l 1
 430 780 l 1
 430 164 l 2
 430 66 356 -19 225 -19 c 0
 94 -19 31 64 20 138 c 1
EndSplineSet
EndChar

StartChar: jcircumflex
Encoding: 309 309 246
Width: 310
GlyphClass: 2
Flags: W
AnchorPoint: "LatinBelow.mark" 150 -180 basechar 0
AnchorPoint: "LatinAbove.mark" 150 180 basechar 0
LayerCount: 2
Fore
SplineSet
-35 717 m 1
 145 865 l 1
 175 865 l 1
 355 717 l 1
 321 680 l 1
 160 777 l 1
 -1 680 l 1
 -35 717 l 1
-5 -151 m 1
 63 -129 103 -95 103 -14 c 2
 103 600 l 1
 217 600 l 1
 217 -21 l 2
 217 -134 128 -198 31 -224 c 1
 -5 -151 l 1
EndSplineSet
EndChar

StartChar: uni0136
Encoding: 310 310 247
Width: 715
GlyphClass: 2
Flags: W
LayerCount: 2
Fore
SplineSet
366 -202 m 1
 359 -204 350 -205 342 -205 c 0
 304 -205 275 -182 275 -144 c 0
 275 -102 302 -70 350 -70 c 0
 414 -70 435 -120 435 -164 c 0
 435 -264 366 -322 310 -345 c 1
 282 -308 l 1
 316 -294 355 -258 366 -202 c 1
90 0 m 1
 90 780 l 1
 206 780 l 1
 206 408 l 1
 534 780 l 1
 668 771 l 1
 668 765 l 1
 367 450 l 1
 710 6 l 1
 710 0 l 1
 569 0 l 1
 291 369 l 1
 206 281 l 1
 206 0 l 1
 90 0 l 1
EndSplineSet
EndChar

StartChar: uni0137
Encoding: 311 311 248
Width: 605
GlyphClass: 2
Flags: W
AnchorPoint: "LatinAbove.mark" 135 180 basechar 0
LayerCount: 2
Fore
SplineSet
366 -202 m 1
 359 -204 350 -205 342 -205 c 0
 304 -205 275 -182 275 -144 c 0
 275 -102 302 -70 350 -70 c 0
 414 -70 435 -120 435 -164 c 0
 435 -264 366 -322 310 -345 c 1
 282 -308 l 1
 316 -294 355 -258 366 -202 c 1
95 0 m 1
 95 810 l 1
 203 810 l 1
 203 329 l 1
 446 600 l 1
 570 593 l 1
 570 588 l 1
 333 344 l 1
 600 5 l 1
 600 0 l 1
 470 0 l 1
 262 271 l 1
 203 211 l 1
 203 0 l 1
 95 0 l 1
EndSplineSet
EndChar

StartChar: kgreenlandic
Encoding: 312 312 249
Width: 610
GlyphClass: 2
Flags: W
AnchorPoint: "LatinBelow.mark" 360 0 basechar 0
AnchorPoint: "LatinAbove.mark" 330 0 basechar 0
LayerCount: 2
Fore
SplineSet
95 0 m 1
 95 600 l 1
 203 600 l 1
 203 329 l 1
 446 600 l 1
 570 593 l 1
 570 588 l 1
 333 344 l 1
 600 5 l 1
 600 0 l 1
 470 0 l 1
 262 271 l 1
 203 211 l 1
 203 0 l 1
 95 0 l 1
EndSplineSet
EndChar

StartChar: Lacute
Encoding: 313 313 250
Width: 570
GlyphClass: 2
Flags: W
AnchorPoint: "LatinBelow.mark" 320 0 basechar 0
LayerCount: 2
Fore
SplineSet
315 978 m 1
 81 845 l 1
 50 890 l 1
 266 1055 l 1
 315 978 l 1
90 0 m 1
 90 780 l 1
 212 780 l 1
 212 93 l 1
 545 93 l 1
 545 0 l 1
 90 0 l 1
EndSplineSet
EndChar

StartChar: lacute
Encoding: 314 314 251
Width: 315
GlyphClass: 2
Flags: W
AnchorPoint: "LatinBelow.mark" 190 0 basechar 0
LayerCount: 2
Fore
SplineSet
295 1008 m 1
 61 875 l 1
 30 920 l 1
 246 1085 l 1
 295 1008 l 1
90 128 m 2
 90 810 l 1
 203 810 l 1
 203 138 l 2
 203 83 239 66 305 60 c 1
 283 -14 l 1
 202 -8 90 15 90 128 c 2
EndSplineSet
EndChar

StartChar: uni013B
Encoding: 315 315 252
Width: 570
GlyphClass: 2
Flags: W
AnchorPoint: "LatinAbove.mark" 160 150 basechar 0
LayerCount: 2
Fore
SplineSet
326 -202 m 1
 319 -204 310 -205 302 -205 c 0
 264 -205 235 -182 235 -144 c 0
 235 -102 262 -70 310 -70 c 0
 374 -70 395 -120 395 -164 c 0
 395 -264 326 -322 270 -345 c 1
 242 -308 l 1
 276 -294 315 -258 326 -202 c 1
90 0 m 1
 90 780 l 1
 212 780 l 1
 212 93 l 1
 545 93 l 1
 545 0 l 1
 90 0 l 1
EndSplineSet
EndChar

StartChar: uni013C
Encoding: 316 316 253
Width: 315
GlyphClass: 2
Flags: W
AnchorPoint: "LatinAbove.mark" 140 180 basechar 0
LayerCount: 2
Fore
SplineSet
196 -202 m 1
 189 -204 180 -205 172 -205 c 0
 134 -205 105 -182 105 -144 c 0
 105 -102 132 -70 180 -70 c 0
 244 -70 265 -120 265 -164 c 0
 265 -264 196 -322 140 -345 c 1
 112 -308 l 1
 146 -294 185 -258 196 -202 c 1
90 128 m 2
 90 810 l 1
 203 810 l 1
 203 138 l 2
 203 83 239 66 305 60 c 1
 283 -14 l 1
 202 -8 90 15 90 128 c 2
EndSplineSet
EndChar

StartChar: Lcaron
Encoding: 317 317 254
Width: 570
GlyphClass: 2
Flags: W
LayerCount: 2
Fore
SplineSet
451 698 m 1
 444 696 435 695 427 695 c 0
 389 695 360 718 360 756 c 0
 360 798 387 830 435 830 c 0
 499 830 520 780 520 736 c 0
 520 636 451 578 395 555 c 1
 367 592 l 1
 401 606 440 642 451 698 c 1
90 0 m 1
 90 780 l 1
 212 780 l 1
 212 93 l 1
 545 93 l 1
 545 0 l 1
 90 0 l 1
EndSplineSet
EndChar

StartChar: lcaron
Encoding: 318 318 255
Width: 525
GlyphClass: 2
Flags: W
LayerCount: 2
Fore
SplineSet
436 698 m 1
 429 696 420 695 412 695 c 0
 374 695 345 718 345 756 c 0
 345 798 372 830 420 830 c 0
 484 830 505 780 505 736 c 0
 505 636 436 578 380 555 c 1
 352 592 l 1
 386 606 425 642 436 698 c 1
90 128 m 2
 90 810 l 1
 203 810 l 1
 203 138 l 2
 203 83 239 66 305 60 c 1
 283 -14 l 1
 202 -8 90 15 90 128 c 2
EndSplineSet
EndChar

StartChar: Ldot
Encoding: 319 319 256
Width: 570
GlyphClass: 2
Flags: W
LayerCount: 2
Fore
SplineSet
435 434 m 0
 480 434 515 406 515 360 c 0
 515 314 480 286 435 286 c 0
 390 286 355 314 355 360 c 0
 355 406 390 434 435 434 c 0
90 0 m 1
 90 780 l 1
 212 780 l 1
 212 93 l 1
 545 93 l 1
 545 0 l 1
 90 0 l 1
EndSplineSet
EndChar

StartChar: ldot
Encoding: 320 320 257
Width: 510
GlyphClass: 2
Flags: W
LayerCount: 2
Fore
SplineSet
385 434 m 0
 430 434 465 406 465 360 c 0
 465 314 430 286 385 286 c 0
 340 286 305 314 305 360 c 0
 305 406 340 434 385 434 c 0
90 128 m 2
 90 810 l 1
 203 810 l 1
 203 138 l 2
 203 83 239 66 305 60 c 1
 283 -14 l 1
 202 -8 90 15 90 128 c 2
EndSplineSet
EndChar

StartChar: Lslash
Encoding: 321 321 258
Width: 580
GlyphClass: 2
Flags: W
LayerCount: 2
Fore
SplineSet
222 453 m 1
 351 537 l 1
 360 465 l 1
 222 375 l 1
 222 93 l 1
 555 93 l 1
 555 0 l 1
 100 0 l 1
 100 296 l 1
 19 243 l 1
 10 315 l 1
 100 374 l 1
 100 780 l 1
 222 780 l 1
 222 453 l 1
EndSplineSet
EndChar

StartChar: lslash
Encoding: 322 322 259
Width: 360
GlyphClass: 2
Flags: W
AnchorPoint: "LatinBelow.mark" 190 0 basechar 0
LayerCount: 2
Fore
SplineSet
213 447 m 1
 351 537 l 1
 360 465 l 1
 213 369 l 1
 213 138 l 2
 213 83 249 66 315 60 c 1
 293 -14 l 1
 212 -8 100 15 100 128 c 2
 100 296 l 1
 19 243 l 1
 10 315 l 1
 100 374 l 1
 100 810 l 1
 213 810 l 1
 213 447 l 1
EndSplineSet
EndChar

StartChar: Nacute
Encoding: 323 323 260
Width: 790
GlyphClass: 2
Flags: W
AnchorPoint: "LatinBelow.mark" 395 0 basechar 0
LayerCount: 2
Fore
SplineSet
550 978 m 1
 316 845 l 1
 285 890 l 1
 501 1055 l 1
 550 978 l 1
90 0 m 1
 90 769 l 1
 193 780 l 1
 583 193 l 1
 583 780 l 1
 700 780 l 1
 700 0 l 1
 597 0 l 1
 207 587 l 1
 207 0 l 1
 90 0 l 1
EndSplineSet
EndChar

StartChar: nacute
Encoding: 324 324 261
Width: 655
GlyphClass: 2
Flags: W
AnchorPoint: "LatinBelow.mark" 360 0 basechar 0
LayerCount: 2
Fore
SplineSet
485 828 m 1
 251 695 l 1
 220 740 l 1
 436 905 l 1
 485 828 l 1
85 0 m 1
 85 420 l 1
 75 594 l 1
 178 603 l 1
 194 453 l 1
 234 537 303 614 413 614 c 0
 530 614 585 520 585 416 c 2
 585 0 l 1
 472 0 l 1
 472 412 l 2
 472 497 429 524 383 524 c 0
 289 524 214 408 198 299 c 1
 198 0 l 1
 85 0 l 1
EndSplineSet
EndChar

StartChar: uni0145
Encoding: 325 325 262
Width: 790
GlyphClass: 2
Flags: W
AnchorPoint: "LatinAbove.mark" 395 150 basechar 0
LayerCount: 2
Fore
SplineSet
401 -202 m 1
 394 -204 385 -205 377 -205 c 0
 339 -205 310 -182 310 -144 c 0
 310 -102 337 -70 385 -70 c 0
 449 -70 470 -120 470 -164 c 0
 470 -264 401 -322 345 -345 c 1
 317 -308 l 1
 351 -294 390 -258 401 -202 c 1
90 0 m 1
 90 769 l 1
 193 780 l 1
 583 193 l 1
 583 780 l 1
 700 780 l 1
 700 0 l 1
 597 0 l 1
 207 587 l 1
 207 0 l 1
 90 0 l 1
EndSplineSet
EndChar

StartChar: uni0146
Encoding: 326 326 263
Width: 655
GlyphClass: 2
Flags: W
AnchorPoint: "LatinAbove.mark" 330 0 basechar 0
LayerCount: 2
Fore
SplineSet
366 -202 m 1
 359 -204 350 -205 342 -205 c 0
 304 -205 275 -182 275 -144 c 0
 275 -102 302 -70 350 -70 c 0
 414 -70 435 -120 435 -164 c 0
 435 -264 366 -322 310 -345 c 1
 282 -308 l 1
 316 -294 355 -258 366 -202 c 1
85 0 m 1
 85 420 l 1
 75 594 l 1
 178 603 l 1
 194 453 l 1
 234 537 303 614 413 614 c 0
 530 614 585 520 585 416 c 2
 585 0 l 1
 472 0 l 1
 472 412 l 2
 472 497 429 524 383 524 c 0
 289 524 214 408 198 299 c 1
 198 0 l 1
 85 0 l 1
EndSplineSet
EndChar

StartChar: Ncaron
Encoding: 327 327 264
Width: 790
GlyphClass: 2
Flags: W
AnchorPoint: "LatinBelow.mark" 395 0 basechar 0
LayerCount: 2
Fore
SplineSet
590 988 m 1
 410 840 l 1
 380 840 l 1
 200 988 l 1
 234 1025 l 1
 395 928 l 1
 556 1025 l 1
 590 988 l 1
90 0 m 1
 90 769 l 1
 193 780 l 1
 583 193 l 1
 583 780 l 1
 700 780 l 1
 700 0 l 1
 597 0 l 1
 207 587 l 1
 207 0 l 1
 90 0 l 1
EndSplineSet
EndChar

StartChar: ncaron
Encoding: 328 328 265
Width: 655
GlyphClass: 2
Flags: W
AnchorPoint: "LatinBelow.mark" 360 0 basechar 0
LayerCount: 2
Fore
SplineSet
525 838 m 1
 345 690 l 1
 315 690 l 1
 135 838 l 1
 169 875 l 1
 330 778 l 1
 491 875 l 1
 525 838 l 1
85 0 m 1
 85 420 l 1
 75 594 l 1
 178 603 l 1
 194 453 l 1
 234 537 303 614 413 614 c 0
 530 614 585 520 585 416 c 2
 585 0 l 1
 472 0 l 1
 472 412 l 2
 472 497 429 524 383 524 c 0
 289 524 214 408 198 299 c 1
 198 0 l 1
 85 0 l 1
EndSplineSet
EndChar

StartChar: napostrophe
Encoding: 329 329 266
Width: 865
GlyphClass: 2
Flags: W
LayerCount: 2
Fore
SplineSet
295 0 m 1
 295 420 l 1
 285 594 l 1
 388 603 l 1
 404 453 l 1
 444 537 513 614 623 614 c 0
 740 614 795 520 795 416 c 2
 795 0 l 1
 682 0 l 1
 682 412 l 2
 682 497 639 524 593 524 c 0
 499 524 424 408 408 299 c 1
 408 0 l 1
 295 0 l 1
25 808 m 0
 25 853 56 886 105 886 c 0
 173 886 200 829 200 772 c 0
 200 662 127 583 60 540 c 1
 25 587 l 1
 72 617 112 667 122 738 c 1
 116 737 109 736 102 736 c 0
 59 736 25 764 25 808 c 0
EndSplineSet
EndChar

StartChar: Omacron
Encoding: 332 332 267
Width: 820
GlyphClass: 2
Flags: W
AnchorPoint: "LatinBelow.mark" 410 0 basechar 0
AnchorPoint: "LatinAbove.mark" 410 330 basechar 0
LayerCount: 2
Fore
SplineSet
215 894 m 1
 215 966 l 1
 605 966 l 1
 605 894 l 1
 215 894 l 1
60 372 m 2
 60 408 l 2
 60 590 138 799 410 799 c 0
 682 799 760 590 760 408 c 2
 760 372 l 2
 760 190 682 -19 410 -19 c 0
 138 -19 60 190 60 372 c 2
410 71 m 0
 563 71 637 189 637 372 c 2
 637 408 l 2
 637 591 563 709 410 709 c 0
 257 709 183 591 183 408 c 2
 183 372 l 2
 183 189 257 71 410 71 c 0
EndSplineSet
EndChar

StartChar: omacron
Encoding: 333 333 268
Width: 660
GlyphClass: 2
Flags: W
AnchorPoint: "LatinBelow.mark" 330 0 basechar 0
AnchorPoint: "LatinAbove.mark" 330 180 basechar 0
LayerCount: 2
Fore
SplineSet
135 744 m 1
 135 816 l 1
 525 816 l 1
 525 744 l 1
 135 744 l 1
55 286 m 2
 55 314 l 2
 55 452 113 619 330 619 c 0
 547 619 605 452 605 314 c 2
 605 286 l 2
 605 148 547 -19 330 -19 c 0
 113 -19 55 148 55 286 c 2
330 63 m 0
 435 63 492 146 492 286 c 2
 492 314 l 2
 492 454 435 537 330 537 c 0
 225 537 168 454 168 314 c 2
 168 286 l 2
 168 146 225 63 330 63 c 0
EndSplineSet
EndChar

StartChar: Obreve
Encoding: 334 334 269
Width: 820
GlyphClass: 2
Flags: W
AnchorPoint: "LatinBelow.mark" 410 0 basechar 0
AnchorPoint: "LatinAbove.mark" 410 330 basechar 0
LayerCount: 2
Fore
SplineSet
215 987 m 1
 285 1010 l 1
 297 967 326 915 410 915 c 0
 494 915 523 967 535 1010 c 1
 605 987 l 1
 586 919 531 845 410 845 c 0
 289 845 234 919 215 987 c 1
60 372 m 2
 60 408 l 2
 60 590 138 799 410 799 c 0
 682 799 760 590 760 408 c 2
 760 372 l 2
 760 190 682 -19 410 -19 c 0
 138 -19 60 190 60 372 c 2
410 71 m 0
 563 71 637 189 637 372 c 2
 637 408 l 2
 637 591 563 709 410 709 c 0
 257 709 183 591 183 408 c 2
 183 372 l 2
 183 189 257 71 410 71 c 0
EndSplineSet
EndChar

StartChar: obreve
Encoding: 335 335 270
Width: 660
GlyphClass: 2
Flags: W
AnchorPoint: "LatinBelow.mark" 330 0 basechar 0
AnchorPoint: "LatinAbove.mark" 330 180 basechar 0
LayerCount: 2
Fore
SplineSet
135 837 m 1
 205 860 l 1
 217 817 246 765 330 765 c 0
 414 765 443 817 455 860 c 1
 525 837 l 1
 506 769 451 695 330 695 c 0
 209 695 154 769 135 837 c 1
55 286 m 2
 55 314 l 2
 55 452 113 619 330 619 c 0
 547 619 605 452 605 314 c 2
 605 286 l 2
 605 148 547 -19 330 -19 c 0
 113 -19 55 148 55 286 c 2
330 63 m 0
 435 63 492 146 492 286 c 2
 492 314 l 2
 492 454 435 537 330 537 c 0
 225 537 168 454 168 314 c 2
 168 286 l 2
 168 146 225 63 330 63 c 0
EndSplineSet
EndChar

StartChar: Ohungarumlaut
Encoding: 336 336 271
Width: 820
GlyphClass: 2
Flags: W
AnchorPoint: "LatinBelow.mark" 410 0 basechar 0
AnchorPoint: "LatinAbove.mark" 410 330 basechar 0
LayerCount: 2
Fore
SplineSet
245 875 m 1
 358 1065 l 1
 425 1017 l 1
 286 845 l 1
 245 875 l 1
455 875 m 1
 568 1065 l 1
 635 1017 l 1
 496 845 l 1
 455 875 l 1
60 372 m 2
 60 408 l 2
 60 590 138 799 410 799 c 0
 682 799 760 590 760 408 c 2
 760 372 l 2
 760 190 682 -19 410 -19 c 0
 138 -19 60 190 60 372 c 2
410 71 m 0
 563 71 637 189 637 372 c 2
 637 408 l 2
 637 591 563 709 410 709 c 0
 257 709 183 591 183 408 c 2
 183 372 l 2
 183 189 257 71 410 71 c 0
EndSplineSet
EndChar

StartChar: ohungarumlaut
Encoding: 337 337 272
Width: 660
GlyphClass: 2
Flags: W
AnchorPoint: "LatinBelow.mark" 330 0 basechar 0
AnchorPoint: "LatinAbove.mark" 330 180 basechar 0
LayerCount: 2
Fore
SplineSet
165 725 m 1
 278 915 l 1
 345 867 l 1
 206 695 l 1
 165 725 l 1
375 725 m 1
 488 915 l 1
 555 867 l 1
 416 695 l 1
 375 725 l 1
55 286 m 2
 55 314 l 2
 55 452 113 619 330 619 c 0
 547 619 605 452 605 314 c 2
 605 286 l 2
 605 148 547 -19 330 -19 c 0
 113 -19 55 148 55 286 c 2
330 63 m 0
 435 63 492 146 492 286 c 2
 492 314 l 2
 492 454 435 537 330 537 c 0
 225 537 168 454 168 314 c 2
 168 286 l 2
 168 146 225 63 330 63 c 0
EndSplineSet
EndChar

StartChar: OE
Encoding: 338 338 273
Width: 980
GlyphClass: 2
Flags: W
AnchorPoint: "LatinBelow.mark" 510 0 basechar 0
AnchorPoint: "LatinAbove.mark" 510 150 basechar 0
LayerCount: 2
Fore
SplineSet
60 372 m 2
 60 408 l 2
 60 590 138 799 410 799 c 0
 460 799 503 793 540 780 c 1
 910 780 l 1
 910 687 l 1
 575 687 l 1
 575 428 l 1
 874 428 l 1
 874 342 l 1
 575 342 l 1
 575 93 l 1
 925 93 l 1
 925 0 l 1
 540 0 l 1
 503 -13 460 -19 410 -19 c 0
 138 -19 60 190 60 372 c 2
455 705 m 1
 441 708 426 709 410 709 c 0
 257 709 183 591 183 408 c 2
 183 372 l 2
 183 189 257 71 410 71 c 0
 426 71 441 72 455 75 c 1
 455 705 l 1
EndSplineSet
EndChar

StartChar: oe
Encoding: 339 339 274
Width: 960
GlyphClass: 2
Flags: W
AnchorPoint: "LatinBelow.mark" 480 0 basechar 0
AnchorPoint: "LatinAbove.mark" 480 0 basechar 0
LayerCount: 2
Fore
SplineSet
55 286 m 2
 55 314 l 2
 55 448 100 619 295 619 c 0
 388 619 444 579 477 523 c 1
 514 579 574 619 664 619 c 0
 828 619 905 493 905 360 c 0
 905 333 902 305 897 279 c 1
 522 279 l 1
 524 143 571 61 664 61 c 0
 740 61 776 115 783 158 c 1
 892 148 l 1
 881 84 810 -19 664 -19 c 0
 572 -19 513 20 476 76 c 1
 443 20 387 -19 295 -19 c 0
 100 -19 55 152 55 286 c 2
295 537 m 0
 216 537 168 458 168 314 c 2
 168 286 l 2
 168 142 216 63 295 63 c 0
 372 63 418 142 418 286 c 2
 418 314 l 2
 418 458 372 537 295 537 c 0
523 351 m 1
 799 351 l 1
 799 361 l 2
 799 480 746 539 664 539 c 0
 584 539 532 469 523 351 c 1
EndSplineSet
EndChar

StartChar: Racute
Encoding: 340 340 275
Width: 730
GlyphClass: 2
Flags: W
AnchorPoint: "LatinBelow.mark" 360 0 basechar 0
LayerCount: 2
Fore
SplineSet
515 978 m 1
 281 845 l 1
 250 890 l 1
 466 1055 l 1
 515 978 l 1
304 320 m 1
 271 321 238 322 209 323 c 1
 209 0 l 1
 90 0 l 1
 90 329 l 1
 90 780 l 1
 108 781 229 789 350 789 c 0
 537 789 670 703 670 554 c 0
 670 428 576 348 434 326 c 1
 700 6 l 1
 700 0 l 1
 564 0 l 1
 304 320 l 1
209 410 m 1
 241 408 288 406 336 406 c 0
 455 406 551 443 551 554 c 0
 551 665 455 703 336 703 c 0
 288 703 241 701 209 699 c 1
 209 410 l 1
EndSplineSet
EndChar

StartChar: racute
Encoding: 341 341 276
Width: 435
GlyphClass: 2
Flags: W
AnchorPoint: "LatinBelow.mark" 170 0 basechar 0
LayerCount: 2
Fore
SplineSet
395 828 m 1
 161 695 l 1
 130 740 l 1
 346 905 l 1
 395 828 l 1
70 592 m 1
 165 603 l 1
 199 465 l 1
 224 543 271 614 364 614 c 0
 392 614 415 608 435 599 c 1
 392 505 l 1
 379 512 365 517 346 517 c 0
 271 517 230 418 218 318 c 1
 218 0 l 1
 105 0 l 1
 105 435 l 1
 70 592 l 1
EndSplineSet
EndChar

StartChar: uni0156
Encoding: 342 342 277
Width: 730
GlyphClass: 2
Flags: W
AnchorPoint: "LatinAbove.mark" 360 150 basechar 0
LayerCount: 2
Fore
SplineSet
366 -202 m 1
 359 -204 350 -205 342 -205 c 0
 304 -205 275 -182 275 -144 c 0
 275 -102 302 -70 350 -70 c 0
 414 -70 435 -120 435 -164 c 0
 435 -264 366 -322 310 -345 c 1
 282 -308 l 1
 316 -294 355 -258 366 -202 c 1
304 320 m 1
 271 321 238 322 209 323 c 1
 209 0 l 1
 90 0 l 1
 90 329 l 1
 90 780 l 1
 108 781 229 789 350 789 c 0
 537 789 670 703 670 554 c 0
 670 428 576 348 434 326 c 1
 700 6 l 1
 700 0 l 1
 564 0 l 1
 304 320 l 1
209 410 m 1
 241 408 288 406 336 406 c 0
 455 406 551 443 551 554 c 0
 551 665 455 703 336 703 c 0
 288 703 241 701 209 699 c 1
 209 410 l 1
EndSplineSet
EndChar

StartChar: uni0157
Encoding: 343 343 278
Width: 435
GlyphClass: 2
Flags: W
AnchorPoint: "LatinAbove.mark" 240 0 basechar 0
LayerCount: 2
Fore
SplineSet
176 -202 m 1
 169 -204 160 -205 152 -205 c 0
 114 -205 85 -182 85 -144 c 0
 85 -102 112 -70 160 -70 c 0
 224 -70 245 -120 245 -164 c 0
 245 -264 176 -322 120 -345 c 1
 92 -308 l 1
 126 -294 165 -258 176 -202 c 1
70 592 m 1
 165 603 l 1
 199 465 l 1
 224 543 271 614 364 614 c 0
 392 614 415 608 435 599 c 1
 392 505 l 1
 379 512 365 517 346 517 c 0
 271 517 230 418 218 318 c 1
 218 0 l 1
 105 0 l 1
 105 435 l 1
 70 592 l 1
EndSplineSet
EndChar

StartChar: Rcaron
Encoding: 344 344 279
Width: 730
GlyphClass: 2
Flags: W
AnchorPoint: "LatinBelow.mark" 360 0 basechar 0
LayerCount: 2
Fore
SplineSet
555 988 m 1
 375 840 l 1
 345 840 l 1
 165 988 l 1
 199 1025 l 1
 360 928 l 1
 521 1025 l 1
 555 988 l 1
304 320 m 1
 271 321 238 322 209 323 c 1
 209 0 l 1
 90 0 l 1
 90 329 l 1
 90 780 l 1
 108 781 229 789 350 789 c 0
 537 789 670 703 670 554 c 0
 670 428 576 348 434 326 c 1
 700 6 l 1
 700 0 l 1
 564 0 l 1
 304 320 l 1
209 410 m 1
 241 408 288 406 336 406 c 0
 455 406 551 443 551 554 c 0
 551 665 455 703 336 703 c 0
 288 703 241 701 209 699 c 1
 209 410 l 1
EndSplineSet
EndChar

StartChar: rcaron
Encoding: 345 345 280
Width: 435
GlyphClass: 2
Flags: W
AnchorPoint: "LatinBelow.mark" 170 0 basechar 0
LayerCount: 2
Fore
SplineSet
435 838 m 1
 255 690 l 1
 225 690 l 1
 45 838 l 1
 79 875 l 1
 240 778 l 1
 401 875 l 1
 435 838 l 1
70 592 m 1
 165 603 l 1
 199 465 l 1
 224 543 271 614 364 614 c 0
 392 614 415 608 435 599 c 1
 392 505 l 1
 379 512 365 517 346 517 c 0
 271 517 230 418 218 318 c 1
 218 0 l 1
 105 0 l 1
 105 435 l 1
 70 592 l 1
EndSplineSet
EndChar

StartChar: Sacute
Encoding: 346 346 281
Width: 710
GlyphClass: 2
Flags: W
AnchorPoint: "LatinBelow.mark" 355 0 basechar 0
LayerCount: 2
Fore
SplineSet
510 978 m 1
 276 845 l 1
 245 890 l 1
 461 1055 l 1
 510 978 l 1
55 179 m 1
 174 196 l 1
 184 137 242 68 355 68 c 0
 475 68 538 118 538 200 c 0
 538 276 483 305 441 317 c 0
 384 333 297 360 239 381 c 0
 168 407 73 466 73 579 c 0
 73 706 187 799 355 799 c 0
 533 799 620 683 635 605 c 1
 516 588 l 1
 505 646 449 712 355 712 c 0
 254 712 190 661 190 584 c 0
 190 521 242 497 291 478 c 0
 346 458 431 432 483 416 c 0
 564 391 655 331 655 206 c 0
 655 78 542 -19 355 -19 c 0
 161 -19 70 99 55 179 c 1
EndSplineSet
EndChar

StartChar: sacute
Encoding: 347 347 282
Width: 570
GlyphClass: 2
Flags: W
AnchorPoint: "LatinBelow.mark" 285 0 basechar 0
LayerCount: 2
Fore
SplineSet
440 828 m 1
 206 695 l 1
 175 740 l 1
 391 905 l 1
 440 828 l 1
45 139 m 1
 155 153 l 1
 162 109 206 61 289 61 c 0
 371 61 417 99 417 156 c 0
 417 210 374 232 345 241 c 0
 300 254 237 272 193 288 c 0
 136 309 61 350 61 444 c 0
 61 544 149 619 285 619 c 0
 431 619 498 528 509 465 c 1
 399 450 l 1
 392 494 356 539 285 539 c 0
 214 539 169 504 169 448 c 0
 169 403 210 381 242 370 c 0
 285 356 350 337 387 326 c 0
 453 306 525 264 525 160 c 0
 525 59 434 -19 285 -19 c 0
 128 -19 57 74 45 139 c 1
EndSplineSet
EndChar

StartChar: Scircumflex
Encoding: 348 348 283
Width: 710
GlyphClass: 2
Flags: W
AnchorPoint: "LatinBelow.mark" 355 0 basechar 0
LayerCount: 2
Fore
SplineSet
160 867 m 1
 340 1015 l 1
 370 1015 l 1
 550 867 l 1
 516 830 l 1
 355 927 l 1
 194 830 l 1
 160 867 l 1
55 179 m 1
 174 196 l 1
 184 137 242 68 355 68 c 0
 475 68 538 118 538 200 c 0
 538 276 483 305 441 317 c 0
 384 333 297 360 239 381 c 0
 168 407 73 466 73 579 c 0
 73 706 187 799 355 799 c 0
 533 799 620 683 635 605 c 1
 516 588 l 1
 505 646 449 712 355 712 c 0
 254 712 190 661 190 584 c 0
 190 521 242 497 291 478 c 0
 346 458 431 432 483 416 c 0
 564 391 655 331 655 206 c 0
 655 78 542 -19 355 -19 c 0
 161 -19 70 99 55 179 c 1
EndSplineSet
EndChar

StartChar: scircumflex
Encoding: 349 349 284
Width: 570
GlyphClass: 2
Flags: W
AnchorPoint: "LatinBelow.mark" 285 0 basechar 0
LayerCount: 2
Fore
SplineSet
90 717 m 1
 270 865 l 1
 300 865 l 1
 480 717 l 1
 446 680 l 1
 285 777 l 1
 124 680 l 1
 90 717 l 1
45 139 m 1
 155 153 l 1
 162 109 206 61 289 61 c 0
 371 61 417 99 417 156 c 0
 417 210 374 232 345 241 c 0
 300 254 237 272 193 288 c 0
 136 309 61 350 61 444 c 0
 61 544 149 619 285 619 c 0
 431 619 498 528 509 465 c 1
 399 450 l 1
 392 494 356 539 285 539 c 0
 214 539 169 504 169 448 c 0
 169 403 210 381 242 370 c 0
 285 356 350 337 387 326 c 0
 453 306 525 264 525 160 c 0
 525 59 434 -19 285 -19 c 0
 128 -19 57 74 45 139 c 1
EndSplineSet
EndChar

StartChar: Scedilla
Encoding: 350 350 285
Width: 710
GlyphClass: 2
Flags: W
AnchorPoint: "LatinAbove.mark" 355 150 basechar 0
LayerCount: 2
Fore
SplineSet
285 -278 m 1
 351 -262 432 -234 432 -175 c 0
 432 -155 417 -137 363 -137 c 0
 348 -137 329 -140 318 -142 c 1
 285 -108 l 1
 334 -19 l 1
 154 -11 69 102 55 179 c 1
 174 196 l 1
 184 137 242 68 355 68 c 0
 475 68 538 118 538 200 c 0
 538 276 483 305 441 317 c 0
 384 333 297 360 239 381 c 0
 168 407 73 466 73 579 c 0
 73 706 187 799 355 799 c 0
 533 799 620 683 635 605 c 1
 516 588 l 1
 505 646 449 712 355 712 c 0
 254 712 190 661 190 584 c 0
 190 521 242 497 291 478 c 0
 346 458 431 432 483 416 c 0
 564 391 655 331 655 206 c 0
 655 88 560 -3 399 -17 c 1
 361 -85 l 1
 375 -85 l 2
 455 -85 505 -116 505 -175 c 0
 505 -286 356 -317 303 -330 c 1
 285 -278 l 1
EndSplineSet
Substitution2: "Latin.st.cedilla subtable" uni0218
EndChar

StartChar: scedilla
Encoding: 351 351 286
Width: 570
GlyphClass: 2
Flags: W
AnchorPoint: "LatinAbove.mark" 285 0 basechar 0
LayerCount: 2
Fore
SplineSet
215 -278 m 1
 281 -262 362 -234 362 -175 c 0
 362 -155 347 -137 293 -137 c 0
 278 -137 259 -140 248 -142 c 1
 215 -108 l 1
 265 -18 l 1
 122 -10 56 77 45 139 c 1
 155 153 l 1
 162 109 206 61 289 61 c 0
 371 61 417 99 417 156 c 0
 417 210 374 232 345 241 c 0
 300 254 237 272 193 288 c 0
 136 309 61 350 61 444 c 0
 61 544 149 619 285 619 c 0
 431 619 498 528 509 465 c 1
 399 450 l 1
 392 494 356 539 285 539 c 0
 214 539 169 504 169 448 c 0
 169 403 210 381 242 370 c 0
 285 356 350 337 387 326 c 0
 453 306 525 264 525 160 c 0
 525 69 452 -3 329 -17 c 1
 291 -85 l 1
 305 -85 l 2
 385 -85 435 -116 435 -175 c 0
 435 -286 286 -317 233 -330 c 1
 215 -278 l 1
EndSplineSet
Substitution2: "Latin.st.cedilla subtable" uni0219
EndChar

StartChar: Scaron
Encoding: 352 352 287
Width: 710
GlyphClass: 2
Flags: W
AnchorPoint: "LatinBelow.mark" 355 0 basechar 0
LayerCount: 2
Fore
SplineSet
550 988 m 1
 370 840 l 1
 340 840 l 1
 160 988 l 1
 194 1025 l 1
 355 928 l 1
 516 1025 l 1
 550 988 l 1
55 179 m 1
 174 196 l 1
 184 137 242 68 355 68 c 0
 475 68 538 118 538 200 c 0
 538 276 483 305 441 317 c 0
 384 333 297 360 239 381 c 0
 168 407 73 466 73 579 c 0
 73 706 187 799 355 799 c 0
 533 799 620 683 635 605 c 1
 516 588 l 1
 505 646 449 712 355 712 c 0
 254 712 190 661 190 584 c 0
 190 521 242 497 291 478 c 0
 346 458 431 432 483 416 c 0
 564 391 655 331 655 206 c 0
 655 78 542 -19 355 -19 c 0
 161 -19 70 99 55 179 c 1
EndSplineSet
EndChar

StartChar: scaron
Encoding: 353 353 288
Width: 570
GlyphClass: 2
Flags: W
AnchorPoint: "LatinBelow.mark" 285 0 basechar 0
LayerCount: 2
Fore
SplineSet
480 838 m 1
 300 690 l 1
 270 690 l 1
 90 838 l 1
 124 875 l 1
 285 778 l 1
 446 875 l 1
 480 838 l 1
45 139 m 1
 155 153 l 1
 162 109 206 61 289 61 c 0
 371 61 417 99 417 156 c 0
 417 210 374 232 345 241 c 0
 300 254 237 272 193 288 c 0
 136 309 61 350 61 444 c 0
 61 544 149 619 285 619 c 0
 431 619 498 528 509 465 c 1
 399 450 l 1
 392 494 356 539 285 539 c 0
 214 539 169 504 169 448 c 0
 169 403 210 381 242 370 c 0
 285 356 350 337 387 326 c 0
 453 306 525 264 525 160 c 0
 525 59 434 -19 285 -19 c 0
 128 -19 57 74 45 139 c 1
EndSplineSet
EndChar

StartChar: uni0162
Encoding: 354 354 289
Width: 620
GlyphClass: 2
Flags: W
AnchorPoint: "LatinAbove.mark" 310 150 basechar 0
LayerCount: 2
Fore
SplineSet
225 -278 m 1
 291 -262 372 -234 372 -175 c 0
 372 -155 357 -137 303 -137 c 0
 288 -137 269 -140 258 -142 c 1
 225 -108 l 1
 285 0 l 1
 250 0 l 1
 250 691 l 1
 30 691 l 1
 30 780 l 1
 590 780 l 1
 590 691 l 1
 370 691 l 1
 370 0 l 1
 349 0 l 1
 301 -85 l 1
 315 -85 l 2
 395 -85 445 -116 445 -175 c 0
 445 -286 296 -317 243 -330 c 1
 225 -278 l 1
EndSplineSet
Substitution2: "Latin.st.cedilla subtable" uni021A
EndChar

StartChar: uni0163
Encoding: 355 355 290
Width: 415
GlyphClass: 2
Flags: W
AnchorPoint: "LatinAbove.mark" 180 120 basechar 0
LayerCount: 2
Fore
SplineSet
175 -278 m 1
 241 -262 322 -234 322 -175 c 0
 322 -155 307 -137 253 -137 c 0
 238 -137 219 -140 208 -142 c 1
 175 -108 l 1
 229 -10 l 1
 162 2 120 44 120 128 c 2
 120 528 l 1
 30 528 l 1
 30 600 l 1
 124 600 l 1
 124 726 l 1
 231 735 l 1
 231 600 l 1
 380 600 l 1
 380 528 l 1
 233 528 l 1
 233 144 l 2
 233 83 251 67 288 67 c 0
 329 67 368 82 383 92 c 1
 410 18 l 1
 384 4 343 -11 291 -14 c 1
 251 -85 l 1
 265 -85 l 2
 345 -85 395 -116 395 -175 c 0
 395 -286 246 -317 193 -330 c 1
 175 -278 l 1
EndSplineSet
Substitution2: "Latin.st.cedilla subtable" uni021B
EndChar

StartChar: Tcaron
Encoding: 356 356 291
Width: 620
GlyphClass: 2
Flags: W
AnchorPoint: "LatinBelow.mark" 310 0 basechar 0
LayerCount: 2
Fore
SplineSet
505 988 m 1
 325 840 l 1
 295 840 l 1
 115 988 l 1
 149 1025 l 1
 310 928 l 1
 471 1025 l 1
 505 988 l 1
30 691 m 1
 30 780 l 1
 590 780 l 1
 590 691 l 1
 370 691 l 1
 370 0 l 1
 250 0 l 1
 250 691 l 1
 30 691 l 1
EndSplineSet
EndChar

StartChar: tcaron
Encoding: 357 357 292
Width: 625
GlyphClass: 2
Flags: W
LayerCount: 2
Fore
SplineSet
536 698 m 1
 529 696 520 695 512 695 c 0
 474 695 445 718 445 756 c 0
 445 798 472 830 520 830 c 0
 584 830 605 780 605 736 c 0
 605 636 536 578 480 555 c 1
 452 592 l 1
 486 606 525 642 536 698 c 1
30 528 m 1
 30 600 l 1
 124 600 l 1
 124 726 l 1
 231 735 l 1
 231 600 l 1
 380 600 l 1
 380 528 l 1
 233 528 l 1
 233 144 l 2
 233 83 251 67 288 67 c 0
 329 67 368 82 383 92 c 1
 410 18 l 1
 381 2 334 -14 274 -14 c 0
 182 -14 120 26 120 128 c 2
 120 528 l 1
 30 528 l 1
EndSplineSet
EndChar

StartChar: Utilde
Encoding: 360 360 293
Width: 770
GlyphClass: 2
Flags: W
AnchorPoint: "LatinBelow.mark" 385 0 basechar 0
AnchorPoint: "LatinAbove.mark" 385 330 basechar 0
LayerCount: 2
Fore
SplineSet
190 888 m 1
 212 944 242 1010 309 1010 c 0
 362 1010 392 979 414 959 c 0
 434 940 448 922 464 922 c 0
 494 922 513 979 522 1003 c 1
 580 982 l 1
 559 926 528 860 461 860 c 0
 408 860 378 891 356 911 c 0
 336 930 322 948 306 948 c 0
 276 948 258 891 248 867 c 1
 190 888 l 1
80 240 m 2
 80 780 l 1
 202 780 l 1
 202 240 l 2
 202 127 279 71 385 71 c 0
 491 71 568 127 568 240 c 2
 568 780 l 1
 690 780 l 1
 690 240 l 2
 690 93 571 -18 385 -18 c 0
 199 -18 80 93 80 240 c 2
EndSplineSet
EndChar

StartChar: utilde
Encoding: 361 361 294
Width: 620
GlyphClass: 2
Flags: W
AnchorPoint: "LatinBelow.mark" 310 0 basechar 0
AnchorPoint: "LatinAbove.mark" 310 180 basechar 0
LayerCount: 2
Fore
SplineSet
115 738 m 1
 137 794 167 860 234 860 c 0
 287 860 317 829 339 809 c 0
 359 790 373 772 389 772 c 0
 419 772 438 829 447 853 c 1
 505 832 l 1
 484 776 453 710 386 710 c 0
 333 710 303 741 281 761 c 0
 261 780 247 798 231 798 c 0
 201 798 183 741 173 717 c 1
 115 738 l 1
65 187 m 2
 65 600 l 1
 178 600 l 1
 178 187 l 2
 178 101 235 63 310 63 c 0
 385 63 442 101 442 187 c 2
 442 600 l 1
 555 600 l 1
 555 187 l 2
 555 72 461 -19 310 -19 c 0
 159 -19 65 72 65 187 c 2
EndSplineSet
EndChar

StartChar: Umacron
Encoding: 362 362 295
Width: 770
GlyphClass: 2
Flags: W
AnchorPoint: "LatinBelow.mark" 385 0 basechar 0
AnchorPoint: "LatinAbove.mark" 385 330 basechar 0
LayerCount: 2
Fore
SplineSet
190 894 m 1
 190 966 l 1
 580 966 l 1
 580 894 l 1
 190 894 l 1
80 240 m 2
 80 780 l 1
 202 780 l 1
 202 240 l 2
 202 127 279 71 385 71 c 0
 491 71 568 127 568 240 c 2
 568 780 l 1
 690 780 l 1
 690 240 l 2
 690 93 571 -18 385 -18 c 0
 199 -18 80 93 80 240 c 2
EndSplineSet
EndChar

StartChar: umacron
Encoding: 363 363 296
Width: 620
GlyphClass: 2
Flags: W
AnchorPoint: "LatinBelow.mark" 310 0 basechar 0
AnchorPoint: "LatinAbove.mark" 310 180 basechar 0
LayerCount: 2
Fore
SplineSet
115 744 m 1
 115 816 l 1
 505 816 l 1
 505 744 l 1
 115 744 l 1
65 187 m 2
 65 600 l 1
 178 600 l 1
 178 187 l 2
 178 101 235 63 310 63 c 0
 385 63 442 101 442 187 c 2
 442 600 l 1
 555 600 l 1
 555 187 l 2
 555 72 461 -19 310 -19 c 0
 159 -19 65 72 65 187 c 2
EndSplineSet
EndChar

StartChar: Ubreve
Encoding: 364 364 297
Width: 770
GlyphClass: 2
Flags: W
AnchorPoint: "LatinBelow.mark" 385 0 basechar 0
AnchorPoint: "LatinAbove.mark" 385 330 basechar 0
LayerCount: 2
Fore
SplineSet
190 987 m 1
 260 1010 l 1
 272 967 301 915 385 915 c 0
 469 915 498 967 510 1010 c 1
 580 987 l 1
 561 919 506 845 385 845 c 0
 264 845 209 919 190 987 c 1
80 240 m 2
 80 780 l 1
 202 780 l 1
 202 240 l 2
 202 127 279 71 385 71 c 0
 491 71 568 127 568 240 c 2
 568 780 l 1
 690 780 l 1
 690 240 l 2
 690 93 571 -18 385 -18 c 0
 199 -18 80 93 80 240 c 2
EndSplineSet
EndChar

StartChar: ubreve
Encoding: 365 365 298
Width: 620
GlyphClass: 2
Flags: W
AnchorPoint: "LatinBelow.mark" 310 0 basechar 0
AnchorPoint: "LatinAbove.mark" 310 180 basechar 0
LayerCount: 2
Fore
SplineSet
115 837 m 1
 185 860 l 1
 197 817 226 765 310 765 c 0
 394 765 423 817 435 860 c 1
 505 837 l 1
 486 769 431 695 310 695 c 0
 189 695 134 769 115 837 c 1
65 187 m 2
 65 600 l 1
 178 600 l 1
 178 187 l 2
 178 101 235 63 310 63 c 0
 385 63 442 101 442 187 c 2
 442 600 l 1
 555 600 l 1
 555 187 l 2
 555 72 461 -19 310 -19 c 0
 159 -19 65 72 65 187 c 2
EndSplineSet
EndChar

StartChar: Uring
Encoding: 366 366 299
Width: 770
GlyphClass: 2
Flags: W
AnchorPoint: "LatinBelow.mark" 385 0 basechar 0
AnchorPoint: "LatinAbove.mark" 385 330 basechar 0
LayerCount: 2
Fore
SplineSet
385 803 m 0
 316 803 265 848 265 915 c 0
 265 982 316 1027 385 1027 c 0
 454 1027 505 982 505 915 c 0
 505 848 454 803 385 803 c 0
385 855 m 0
 422 855 446 880 446 915 c 0
 446 950 422 975 385 975 c 0
 348 975 324 950 324 915 c 0
 324 880 348 855 385 855 c 0
80 240 m 2
 80 780 l 1
 202 780 l 1
 202 240 l 2
 202 127 279 71 385 71 c 0
 491 71 568 127 568 240 c 2
 568 780 l 1
 690 780 l 1
 690 240 l 2
 690 93 571 -18 385 -18 c 0
 199 -18 80 93 80 240 c 2
EndSplineSet
EndChar

StartChar: uring
Encoding: 367 367 300
Width: 620
GlyphClass: 2
Flags: W
AnchorPoint: "LatinBelow.mark" 310 0 basechar 0
AnchorPoint: "LatinAbove.mark" 310 180 basechar 0
LayerCount: 2
Fore
SplineSet
310 653 m 0
 241 653 190 698 190 765 c 0
 190 832 241 877 310 877 c 0
 379 877 430 832 430 765 c 0
 430 698 379 653 310 653 c 0
310 705 m 0
 347 705 371 730 371 765 c 0
 371 800 347 825 310 825 c 0
 273 825 249 800 249 765 c 0
 249 730 273 705 310 705 c 0
65 187 m 2
 65 600 l 1
 178 600 l 1
 178 187 l 2
 178 101 235 63 310 63 c 0
 385 63 442 101 442 187 c 2
 442 600 l 1
 555 600 l 1
 555 187 l 2
 555 72 461 -19 310 -19 c 0
 159 -19 65 72 65 187 c 2
EndSplineSet
EndChar

StartChar: Uhungarumlaut
Encoding: 368 368 301
Width: 770
GlyphClass: 2
Flags: W
AnchorPoint: "LatinBelow.mark" 385 0 basechar 0
AnchorPoint: "LatinAbove.mark" 385 330 basechar 0
LayerCount: 2
Fore
SplineSet
220 875 m 1
 333 1065 l 1
 400 1017 l 1
 261 845 l 1
 220 875 l 1
430 875 m 1
 543 1065 l 1
 610 1017 l 1
 471 845 l 1
 430 875 l 1
80 240 m 2
 80 780 l 1
 202 780 l 1
 202 240 l 2
 202 127 279 71 385 71 c 0
 491 71 568 127 568 240 c 2
 568 780 l 1
 690 780 l 1
 690 240 l 2
 690 93 571 -18 385 -18 c 0
 199 -18 80 93 80 240 c 2
EndSplineSet
EndChar

StartChar: uhungarumlaut
Encoding: 369 369 302
Width: 620
GlyphClass: 2
Flags: W
AnchorPoint: "LatinBelow.mark" 310 0 basechar 0
AnchorPoint: "LatinAbove.mark" 310 180 basechar 0
LayerCount: 2
Fore
SplineSet
145 725 m 1
 258 915 l 1
 325 867 l 1
 186 695 l 1
 145 725 l 1
355 725 m 1
 468 915 l 1
 535 867 l 1
 396 695 l 1
 355 725 l 1
65 187 m 2
 65 600 l 1
 178 600 l 1
 178 187 l 2
 178 101 235 63 310 63 c 0
 385 63 442 101 442 187 c 2
 442 600 l 1
 555 600 l 1
 555 187 l 2
 555 72 461 -19 310 -19 c 0
 159 -19 65 72 65 187 c 2
EndSplineSet
EndChar

StartChar: Uogonek
Encoding: 370 370 303
Width: 770
GlyphClass: 2
Flags: W
AnchorPoint: "LatinAbove.mark" 385 150 basechar 0
LayerCount: 2
Fore
SplineSet
80 240 m 2
 80 780 l 1
 202 780 l 1
 202 240 l 2
 202 127 279 71 385 71 c 0
 491 71 568 127 568 240 c 2
 568 780 l 1
 690 780 l 1
 690 240 l 2
 690 134 628 46 524 6 c 1
 496 -26 471 -70 471 -132 c 0
 471 -180 496 -196 526 -196 c 0
 554 -196 579 -186 589 -180 c 1
 608 -234 l 1
 582 -247 551 -255 513 -255 c 0
 437 -255 398 -209 398 -142 c 0
 398 -90 417 -48 441 -14 c 1
 423 -16 404 -18 385 -18 c 0
 199 -18 80 93 80 240 c 2
EndSplineSet
EndChar

StartChar: uogonek
Encoding: 371 371 304
Width: 620
GlyphClass: 2
Flags: W
AnchorPoint: "LatinAbove.mark" 310 0 basechar 0
LayerCount: 2
Fore
SplineSet
65 187 m 2
 65 600 l 1
 178 600 l 1
 178 187 l 2
 178 101 235 63 310 63 c 0
 385 63 442 101 442 187 c 2
 442 600 l 1
 555 600 l 1
 555 187 l 2
 555 102 504 31 417 -1 c 1
 391 -32 371 -74 371 -132 c 0
 371 -180 396 -196 426 -196 c 0
 454 -196 479 -186 489 -180 c 1
 508 -234 l 1
 482 -247 451 -255 413 -255 c 0
 337 -255 298 -209 298 -142 c 0
 298 -92 316 -51 339 -18 c 1
 330 -19 320 -19 310 -19 c 0
 159 -19 65 72 65 187 c 2
EndSplineSet
EndChar

StartChar: Wcircumflex
Encoding: 372 372 305
Width: 1060
GlyphClass: 2
Flags: W
AnchorPoint: "LatinBelow.mark" 530 0 basechar 0
LayerCount: 2
Fore
SplineSet
335 867 m 1
 515 1015 l 1
 545 1015 l 1
 725 867 l 1
 691 830 l 1
 530 927 l 1
 369 830 l 1
 335 867 l 1
1035 761 m 1
 807 0 l 1
 703 0 l 1
 530 590 l 1
 357 0 l 1
 253 0 l 1
 25 761 l 1
 25 769 l 1
 156 780 l 1
 314 168 l 1
 480 760 l 1
 580 760 l 1
 746 168 l 1
 904 780 l 1
 1035 769 l 1
 1035 761 l 1
EndSplineSet
EndChar

StartChar: wcircumflex
Encoding: 373 373 306
Width: 830
GlyphClass: 2
Flags: W
AnchorPoint: "LatinBelow.mark" 415 0 basechar 0
LayerCount: 2
Fore
SplineSet
220 717 m 1
 400 865 l 1
 430 865 l 1
 610 717 l 1
 576 680 l 1
 415 777 l 1
 254 680 l 1
 220 717 l 1
810 585 m 1
 635 0 l 1
 538 0 l 1
 415 428 l 1
 292 0 l 1
 195 0 l 1
 20 585 l 1
 20 591 l 1
 141 600 l 1
 252 159 l 1
 370 585 l 1
 460 585 l 1
 578 159 l 1
 689 600 l 1
 810 591 l 1
 810 585 l 1
EndSplineSet
EndChar

StartChar: Ycircumflex
Encoding: 374 374 307
Width: 670
GlyphClass: 2
Flags: W
AnchorPoint: "LatinBelow.mark" 335 0 basechar 0
AnchorPoint: "LatinAbove.mark" 345 330 basechar 0
LayerCount: 2
Fore
SplineSet
140 867 m 1
 320 1015 l 1
 350 1015 l 1
 530 867 l 1
 496 830 l 1
 335 927 l 1
 174 830 l 1
 140 867 l 1
10 761 m 1
 10 769 l 1
 145 780 l 1
 335 412 l 1
 525 780 l 1
 660 769 l 1
 660 761 l 1
 395 295 l 1
 395 0 l 1
 275 0 l 1
 275 295 l 1
 10 761 l 1
EndSplineSet
EndChar

StartChar: ycircumflex
Encoding: 375 375 308
Width: 600
GlyphClass: 2
Flags: W
AnchorPoint: "LatinBelow.mark" 300 -180 basechar 0
AnchorPoint: "LatinAbove.mark" 300 180 basechar 0
LayerCount: 2
Fore
SplineSet
105 717 m 1
 285 865 l 1
 315 865 l 1
 495 717 l 1
 461 680 l 1
 300 777 l 1
 139 680 l 1
 105 717 l 1
15 585 m 1
 15 591 l 1
 138 600 l 1
 300 132 l 1
 462 600 l 1
 585 591 l 1
 585 585 l 1
 340 -24 l 1
 298 -117 257 -229 139 -229 c 0
 86 -229 50 -207 25 -187 c 1
 80 -119 l 1
 97 -134 113 -150 135 -150 c 0
 180 -150 210 -90 248 -3 c 2
 252 6 l 1
 15 585 l 1
EndSplineSet
EndChar

StartChar: Ydieresis
Encoding: 376 376 309
Width: 670
GlyphClass: 2
Flags: W
AnchorPoint: "LatinBelow.mark" 335 0 basechar 0
AnchorPoint: "LatinAbove.mark" 345 330 basechar 0
LayerCount: 2
Fore
SplineSet
140 930 m 0
 140 972 172 998 214 998 c 0
 256 998 288 972 288 930 c 0
 288 888 256 862 214 862 c 0
 172 862 140 888 140 930 c 0
383 930 m 0
 383 972 415 998 457 998 c 0
 499 998 530 972 530 930 c 0
 530 888 499 862 457 862 c 0
 415 862 383 888 383 930 c 0
10 761 m 1
 10 769 l 1
 145 780 l 1
 335 412 l 1
 525 780 l 1
 660 769 l 1
 660 761 l 1
 395 295 l 1
 395 0 l 1
 275 0 l 1
 275 295 l 1
 10 761 l 1
EndSplineSet
EndChar

StartChar: Zacute
Encoding: 377 377 310
Width: 670
GlyphClass: 2
Flags: W
AnchorPoint: "LatinBelow.mark" 335 0 basechar 0
LayerCount: 2
Fore
SplineSet
490 978 m 1
 256 845 l 1
 225 890 l 1
 441 1055 l 1
 490 978 l 1
35 69 m 1
 464 687 l 1
 61 687 l 1
 61 780 l 1
 616 780 l 1
 625 711 l 1
 197 93 l 1
 635 93 l 1
 635 0 l 1
 44 0 l 1
 35 69 l 1
EndSplineSet
EndChar

StartChar: zacute
Encoding: 378 378 311
Width: 530
GlyphClass: 2
Flags: W
AnchorPoint: "LatinBelow.mark" 265 0 basechar 0
LayerCount: 2
Fore
SplineSet
420 828 m 1
 186 695 l 1
 155 740 l 1
 371 905 l 1
 420 828 l 1
30 57 m 1
 345 521 l 1
 52 521 l 1
 52 600 l 1
 487 600 l 1
 494 543 l 1
 179 79 l 1
 500 79 l 1
 500 0 l 1
 37 0 l 1
 30 57 l 1
EndSplineSet
EndChar

StartChar: Zdotaccent
Encoding: 379 379 312
Width: 670
GlyphClass: 2
Flags: W
AnchorPoint: "LatinBelow.mark" 335 0 basechar 0
LayerCount: 2
Fore
SplineSet
335 1004 m 0
 380 1004 415 976 415 930 c 0
 415 884 380 856 335 856 c 0
 290 856 255 884 255 930 c 0
 255 976 290 1004 335 1004 c 0
35 69 m 1
 464 687 l 1
 61 687 l 1
 61 780 l 1
 616 780 l 1
 625 711 l 1
 197 93 l 1
 635 93 l 1
 635 0 l 1
 44 0 l 1
 35 69 l 1
EndSplineSet
EndChar

StartChar: zdotaccent
Encoding: 380 380 313
Width: 530
GlyphClass: 2
Flags: W
AnchorPoint: "LatinBelow.mark" 265 0 basechar 0
LayerCount: 2
Fore
SplineSet
265 854 m 0
 310 854 345 826 345 780 c 0
 345 734 310 706 265 706 c 0
 220 706 185 734 185 780 c 0
 185 826 220 854 265 854 c 0
30 57 m 1
 345 521 l 1
 52 521 l 1
 52 600 l 1
 487 600 l 1
 494 543 l 1
 179 79 l 1
 500 79 l 1
 500 0 l 1
 37 0 l 1
 30 57 l 1
EndSplineSet
EndChar

StartChar: Zcaron
Encoding: 381 381 314
Width: 670
GlyphClass: 2
Flags: W
AnchorPoint: "LatinBelow.mark" 335 0 basechar 0
LayerCount: 2
Fore
SplineSet
530 988 m 1
 350 840 l 1
 320 840 l 1
 140 988 l 1
 174 1025 l 1
 335 928 l 1
 496 1025 l 1
 530 988 l 1
35 69 m 1
 464 687 l 1
 61 687 l 1
 61 780 l 1
 616 780 l 1
 625 711 l 1
 197 93 l 1
 635 93 l 1
 635 0 l 1
 44 0 l 1
 35 69 l 1
EndSplineSet
EndChar

StartChar: zcaron
Encoding: 382 382 315
Width: 530
GlyphClass: 2
Flags: W
AnchorPoint: "LatinBelow.mark" 265 0 basechar 0
LayerCount: 2
Fore
SplineSet
460 838 m 1
 280 690 l 1
 250 690 l 1
 70 838 l 1
 104 875 l 1
 265 778 l 1
 426 875 l 1
 460 838 l 1
30 57 m 1
 345 521 l 1
 52 521 l 1
 52 600 l 1
 487 600 l 1
 494 543 l 1
 179 79 l 1
 500 79 l 1
 500 0 l 1
 37 0 l 1
 30 57 l 1
EndSplineSet
EndChar

StartChar: uni018F
Encoding: 399 399 316
Width: 780
GlyphClass: 2
Flags: W
AnchorPoint: "LatinBelow.mark" 375 0 basechar 0
AnchorPoint: "LatinAbove.mark" 375 150 basechar 0
LayerCount: 2
Fore
SplineSet
720 408 m 2
 720 372 l 2
 720 191 643 -19 375 -19 c 0
 153 -19 50 137 50 310 c 0
 50 343 55 379 62 414 c 1
 603 414 l 1
 601 594 526 712 375 712 c 0
 263 712 202 636 192 577 c 1
 73 589 l 1
 87 670 178 799 375 799 c 0
 643 799 720 589 720 408 c 2
602 336 m 1
 168 336 l 1
 167 327 167 318 167 310 c 0
 167 151 248 67 375 67 c 0
 518 67 593 173 602 336 c 1
EndSplineSet
EndChar

StartChar: florin
Encoding: 402 402 317
Width: 400
GlyphClass: 2
Flags: W
AnchorPoint: "LatinBelow.mark" 180 0 basechar 0
AnchorPoint: "LatinAbove.mark" 270 180 basechar 0
LayerCount: 2
Fore
SplineSet
30 528 m 1
 30 600 l 1
 120 600 l 1
 120 677 l 2
 120 736 157 829 283 829 c 0
 362 829 411 794 425 783 c 1
 377 722 l 1
 364 731 334 750 291 750 c 0
 251 750 230 719 230 677 c 2
 230 600 l 1
 380 600 l 1
 380 528 l 1
 233 528 l 1
 233 -21 l 2
 233 -134 144 -198 47 -224 c 1
 11 -151 l 1
 79 -129 120 -95 120 -14 c 2
 120 528 l 1
 30 528 l 1
EndSplineSet
EndChar

StartChar: Ohorn
Encoding: 416 416 318
Width: 820
GlyphClass: 3
Flags: W
AnchorPoint: "LatinBelow.mark" 410 0 basechar 0
AnchorPoint: "LatinAbove.mark" 410 150 basechar 0
LayerCount: 2
Fore
SplineSet
60 372 m 2
 60 408 l 2
 60 590 138 799 410 799 c 0
 509 799 582 771 635 727 c 1
 656 740 680 766 680 810 c 0
 680 840 666 861 655 873 c 1
 724 913 l 1
 744 892 760 859 760 814 c 0
 760 751 718 711 674 689 c 1
 737 612 760 506 760 408 c 2
 760 372 l 2
 760 190 682 -19 410 -19 c 0
 138 -19 60 190 60 372 c 2
410 71 m 0
 563 71 637 189 637 372 c 2
 637 408 l 2
 637 591 563 709 410 709 c 0
 257 709 183 591 183 408 c 2
 183 372 l 2
 183 189 257 71 410 71 c 0
EndSplineSet
Ligature2: "Latin.horn subtable" O uni031B
Ligature2: "Latin.horn subtable" O uni200D uni031B
EndChar

StartChar: ohorn
Encoding: 417 417 319
Width: 660
GlyphClass: 3
Flags: W
AnchorPoint: "LatinBelow.mark" 330 0 basechar 0
AnchorPoint: "LatinAbove.mark" 330 0 basechar 0
LayerCount: 2
Fore
SplineSet
55 286 m 2
 55 314 l 2
 55 452 113 619 330 619 c 0
 416 619 477 593 519 553 c 1
 538 567 555 591 555 630 c 0
 555 660 541 681 530 693 c 1
 599 733 l 1
 619 712 635 679 635 634 c 0
 635 573 596 533 554 511 c 1
 592 453 605 380 605 314 c 2
 605 286 l 2
 605 148 547 -19 330 -19 c 0
 113 -19 55 148 55 286 c 2
330 63 m 0
 435 63 492 146 492 286 c 2
 492 314 l 2
 492 454 435 537 330 537 c 0
 225 537 168 454 168 314 c 2
 168 286 l 2
 168 146 225 63 330 63 c 0
EndSplineSet
Ligature2: "Latin.horn subtable" o uni031B
Ligature2: "Latin.horn subtable" o uni200D uni031B
EndChar

StartChar: Uhorn
Encoding: 431 431 320
Width: 780
GlyphClass: 3
Flags: W
AnchorPoint: "LatinBelow.mark" 385 0 basechar 0
AnchorPoint: "LatinAbove.mark" 385 150 basechar 0
LayerCount: 2
Fore
SplineSet
80 239 m 2
 80 780 l 1
 202 780 l 1
 202 239 l 2
 202 126 279 70 385 70 c 0
 491 70 568 126 568 239 c 2
 568 740 l 1
 590 740 l 1
 639 729 l 1
 659 742 680 768 680 810 c 0
 680 840 666 861 655 873 c 1
 724 913 l 1
 744 892 760 859 760 814 c 0
 760 758 728 720 690 697 c 1
 690 239 l 2
 690 92 571 -19 385 -19 c 0
 199 -19 80 92 80 239 c 2
EndSplineSet
Ligature2: "Latin.horn subtable" U uni031B
Ligature2: "Latin.horn subtable" U uni200D uni031B
EndChar

StartChar: uhorn
Encoding: 432 432 321
Width: 635
GlyphClass: 3
Flags: W
AnchorPoint: "LatinBelow.mark" 310 0 basechar 0
AnchorPoint: "LatinAbove.mark" 310 0 basechar 0
LayerCount: 2
Fore
SplineSet
65 187 m 2
 65 600 l 1
 178 600 l 1
 178 187 l 2
 178 101 235 63 310 63 c 0
 385 63 442 101 442 187 c 2
 442 560 l 1
 463 560 l 1
 505 550 l 1
 525 563 545 588 545 630 c 0
 545 660 531 681 520 693 c 1
 589 733 l 1
 609 712 625 679 625 634 c 0
 625 578 593 540 555 517 c 1
 555 187 l 2
 555 72 461 -19 310 -19 c 0
 159 -19 65 72 65 187 c 2
EndSplineSet
Ligature2: "Latin.horn subtable" u uni031B
Ligature2: "Latin.horn subtable" u uni200D uni031B
EndChar

StartChar: uni01CD
Encoding: 461 461 322
Width: 750
GlyphClass: 2
Flags: W
AnchorPoint: "LatinBelow.mark" 375 0 basechar 0
AnchorPoint: "LatinAbove.mark" 375 330 basechar 0
LayerCount: 2
Fore
SplineSet
570 988 m 1
 390 840 l 1
 360 840 l 1
 180 988 l 1
 214 1025 l 1
 375 928 l 1
 536 1025 l 1
 570 988 l 1
735 0 m 1
 599 0 l 1
 540 167 l 1
 210 167 l 1
 151 0 l 1
 15 0 l 1
 15 8 l 1
 325 780 l 1
 425 780 l 1
 735 8 l 1
 735 0 l 1
510 253 m 1
 375 638 l 1
 240 253 l 1
 510 253 l 1
EndSplineSet
EndChar

StartChar: uni01CE
Encoding: 462 462 323
Width: 625
GlyphClass: 2
Flags: W
AnchorPoint: "LatinBelow.mark" 330 0 basechar 0
AnchorPoint: "LatinAbove.mark" 310 180 basechar 0
LayerCount: 2
Fore
SplineSet
505 838 m 1
 325 690 l 1
 295 690 l 1
 115 838 l 1
 149 875 l 1
 310 778 l 1
 471 875 l 1
 505 838 l 1
55 173 m 0
 55 249 118 323 252 323 c 0
 317 323 381 318 430 313 c 1
 430 419 l 2
 430 503 373 537 300 537 c 0
 231 537 183 497 173 424 c 1
 60 433 l 1
 73 526 149 619 300 619 c 0
 447 619 540 534 540 419 c 2
 540 143 l 2
 540 87 554 66 605 60 c 1
 577 -14 l 1
 536 -9 473 9 453 75 c 1
 418 26 362 -14 273 -14 c 0
 138 -14 55 58 55 173 c 0
436 245 m 1
 392 251 328 257 258 257 c 0
 210 257 165 228 165 171 c 0
 165 88 224 55 287 55 c 0
 385 55 424 135 436 210 c 1
 436 245 l 1
EndSplineSet
MultipleSubs2: "Latin.a.decomp subtable" uni0251 uni030C
EndChar

StartChar: uni01CF
Encoding: 463 463 324
Width: 320
GlyphClass: 2
Flags: W
AnchorPoint: "LatinBelow.mark" 160 0 basechar 0
AnchorPoint: "LatinAbove.mark" 160 330 basechar 0
LayerCount: 2
Fore
SplineSet
355 988 m 1
 175 840 l 1
 145 840 l 1
 -35 988 l 1
 -1 1025 l 1
 160 928 l 1
 321 1025 l 1
 355 988 l 1
100 0 m 1
 100 780 l 1
 220 780 l 1
 220 0 l 1
 100 0 l 1
EndSplineSet
EndChar

StartChar: uni01D0
Encoding: 464 464 325
Width: 300
GlyphClass: 2
Flags: W
AnchorPoint: "LatinBelow.mark" 150 0 basechar 0
AnchorPoint: "LatinAbove.mark" 150 180 basechar 0
LayerCount: 2
Fore
SplineSet
345 838 m 1
 165 690 l 1
 135 690 l 1
 -45 838 l 1
 -11 875 l 1
 150 778 l 1
 311 875 l 1
 345 838 l 1
93 0 m 1
 93 600 l 1
 207 600 l 1
 207 0 l 1
 93 0 l 1
EndSplineSet
EndChar

StartChar: uni01D1
Encoding: 465 465 326
Width: 820
GlyphClass: 2
Flags: W
AnchorPoint: "LatinBelow.mark" 410 0 basechar 0
AnchorPoint: "LatinAbove.mark" 410 330 basechar 0
LayerCount: 2
Fore
SplineSet
605 988 m 1
 425 840 l 1
 395 840 l 1
 215 988 l 1
 249 1025 l 1
 410 928 l 1
 571 1025 l 1
 605 988 l 1
60 372 m 2
 60 408 l 2
 60 590 138 799 410 799 c 0
 682 799 760 590 760 408 c 2
 760 372 l 2
 760 190 682 -19 410 -19 c 0
 138 -19 60 190 60 372 c 2
410 71 m 0
 563 71 637 189 637 372 c 2
 637 408 l 2
 637 591 563 709 410 709 c 0
 257 709 183 591 183 408 c 2
 183 372 l 2
 183 189 257 71 410 71 c 0
EndSplineSet
EndChar

StartChar: uni01D2
Encoding: 466 466 327
Width: 660
GlyphClass: 2
Flags: W
AnchorPoint: "LatinBelow.mark" 330 0 basechar 0
AnchorPoint: "LatinAbove.mark" 330 180 basechar 0
LayerCount: 2
Fore
SplineSet
525 838 m 1
 345 690 l 1
 315 690 l 1
 135 838 l 1
 169 875 l 1
 330 778 l 1
 491 875 l 1
 525 838 l 1
55 286 m 2
 55 314 l 2
 55 452 113 619 330 619 c 0
 547 619 605 452 605 314 c 2
 605 286 l 2
 605 148 547 -19 330 -19 c 0
 113 -19 55 148 55 286 c 2
330 63 m 0
 435 63 492 146 492 286 c 2
 492 314 l 2
 492 454 435 537 330 537 c 0
 225 537 168 454 168 314 c 2
 168 286 l 2
 168 146 225 63 330 63 c 0
EndSplineSet
EndChar

StartChar: uni01D3
Encoding: 467 467 328
Width: 770
GlyphClass: 2
Flags: W
AnchorPoint: "LatinBelow.mark" 385 0 basechar 0
AnchorPoint: "LatinAbove.mark" 385 330 basechar 0
LayerCount: 2
Fore
SplineSet
580 988 m 1
 400 840 l 1
 370 840 l 1
 190 988 l 1
 224 1025 l 1
 385 928 l 1
 546 1025 l 1
 580 988 l 1
80 240 m 2
 80 780 l 1
 202 780 l 1
 202 240 l 2
 202 127 279 71 385 71 c 0
 491 71 568 127 568 240 c 2
 568 780 l 1
 690 780 l 1
 690 240 l 2
 690 93 571 -18 385 -18 c 0
 199 -18 80 93 80 240 c 2
EndSplineSet
EndChar

StartChar: uni01D4
Encoding: 468 468 329
Width: 620
GlyphClass: 2
Flags: W
AnchorPoint: "LatinBelow.mark" 310 0 basechar 0
AnchorPoint: "LatinAbove.mark" 310 180 basechar 0
LayerCount: 2
Fore
SplineSet
505 838 m 1
 325 690 l 1
 295 690 l 1
 115 838 l 1
 149 875 l 1
 310 778 l 1
 471 875 l 1
 505 838 l 1
65 187 m 2
 65 600 l 1
 178 600 l 1
 178 187 l 2
 178 101 235 63 310 63 c 0
 385 63 442 101 442 187 c 2
 442 600 l 1
 555 600 l 1
 555 187 l 2
 555 72 461 -19 310 -19 c 0
 159 -19 65 72 65 187 c 2
EndSplineSet
EndChar

StartChar: uni01D5
Encoding: 469 469 330
Width: 770
GlyphClass: 2
Flags: W
AnchorPoint: "LatinBelow.mark" 385 0 basechar 0
LayerCount: 2
Fore
SplineSet
190 1074 m 1
 190 1146 l 1
 580 1146 l 1
 580 1074 l 1
 190 1074 l 1
190 930 m 0
 190 972 222 998 264 998 c 0
 306 998 338 972 338 930 c 0
 338 888 306 862 264 862 c 0
 222 862 190 888 190 930 c 0
433 930 m 0
 433 972 465 998 507 998 c 0
 549 998 580 972 580 930 c 0
 580 888 549 862 507 862 c 0
 465 862 433 888 433 930 c 0
80 240 m 2
 80 780 l 1
 202 780 l 1
 202 240 l 2
 202 127 279 71 385 71 c 0
 491 71 568 127 568 240 c 2
 568 780 l 1
 690 780 l 1
 690 240 l 2
 690 93 571 -18 385 -18 c 0
 199 -18 80 93 80 240 c 2
EndSplineSet
EndChar

StartChar: uni01D6
Encoding: 470 470 331
Width: 620
GlyphClass: 2
Flags: W
AnchorPoint: "LatinBelow.mark" 310 0 basechar 0
LayerCount: 2
Fore
SplineSet
115 924 m 1
 115 996 l 1
 505 996 l 1
 505 924 l 1
 115 924 l 1
115 780 m 0
 115 822 147 848 189 848 c 0
 231 848 263 822 263 780 c 0
 263 738 231 712 189 712 c 0
 147 712 115 738 115 780 c 0
358 780 m 0
 358 822 390 848 432 848 c 0
 474 848 505 822 505 780 c 0
 505 738 474 712 432 712 c 0
 390 712 358 738 358 780 c 0
65 187 m 2
 65 600 l 1
 178 600 l 1
 178 187 l 2
 178 101 235 63 310 63 c 0
 385 63 442 101 442 187 c 2
 442 600 l 1
 555 600 l 1
 555 187 l 2
 555 72 461 -19 310 -19 c 0
 159 -19 65 72 65 187 c 2
EndSplineSet
EndChar

StartChar: uni01D7
Encoding: 471 471 332
Width: 770
GlyphClass: 2
Flags: W
AnchorPoint: "LatinBelow.mark" 385 0 basechar 0
LayerCount: 2
Fore
SplineSet
540 1158 m 1
 306 1025 l 1
 275 1070 l 1
 491 1235 l 1
 540 1158 l 1
190 930 m 0
 190 972 222 998 264 998 c 0
 306 998 338 972 338 930 c 0
 338 888 306 862 264 862 c 0
 222 862 190 888 190 930 c 0
433 930 m 0
 433 972 465 998 507 998 c 0
 549 998 580 972 580 930 c 0
 580 888 549 862 507 862 c 0
 465 862 433 888 433 930 c 0
80 240 m 2
 80 780 l 1
 202 780 l 1
 202 240 l 2
 202 127 279 71 385 71 c 0
 491 71 568 127 568 240 c 2
 568 780 l 1
 690 780 l 1
 690 240 l 2
 690 93 571 -18 385 -18 c 0
 199 -18 80 93 80 240 c 2
EndSplineSet
EndChar

StartChar: uni01D8
Encoding: 472 472 333
Width: 620
GlyphClass: 2
Flags: W
AnchorPoint: "LatinBelow.mark" 310 0 basechar 0
LayerCount: 2
Fore
SplineSet
465 1008 m 1
 231 875 l 1
 200 920 l 1
 416 1085 l 1
 465 1008 l 1
115 780 m 0
 115 822 147 848 189 848 c 0
 231 848 263 822 263 780 c 0
 263 738 231 712 189 712 c 0
 147 712 115 738 115 780 c 0
358 780 m 0
 358 822 390 848 432 848 c 0
 474 848 505 822 505 780 c 0
 505 738 474 712 432 712 c 0
 390 712 358 738 358 780 c 0
65 187 m 2
 65 600 l 1
 178 600 l 1
 178 187 l 2
 178 101 235 63 310 63 c 0
 385 63 442 101 442 187 c 2
 442 600 l 1
 555 600 l 1
 555 187 l 2
 555 72 461 -19 310 -19 c 0
 159 -19 65 72 65 187 c 2
EndSplineSet
EndChar

StartChar: uni01D9
Encoding: 473 473 334
Width: 770
GlyphClass: 2
Flags: W
AnchorPoint: "LatinBelow.mark" 385 0 basechar 0
LayerCount: 2
Fore
SplineSet
580 1168 m 1
 400 1020 l 1
 370 1020 l 1
 190 1168 l 1
 224 1205 l 1
 385 1108 l 1
 546 1205 l 1
 580 1168 l 1
190 930 m 0
 190 972 222 998 264 998 c 0
 306 998 338 972 338 930 c 0
 338 888 306 862 264 862 c 0
 222 862 190 888 190 930 c 0
433 930 m 0
 433 972 465 998 507 998 c 0
 549 998 580 972 580 930 c 0
 580 888 549 862 507 862 c 0
 465 862 433 888 433 930 c 0
80 240 m 2
 80 780 l 1
 202 780 l 1
 202 240 l 2
 202 127 279 71 385 71 c 0
 491 71 568 127 568 240 c 2
 568 780 l 1
 690 780 l 1
 690 240 l 2
 690 93 571 -18 385 -18 c 0
 199 -18 80 93 80 240 c 2
EndSplineSet
EndChar

StartChar: uni01DA
Encoding: 474 474 335
Width: 620
GlyphClass: 2
Flags: W
AnchorPoint: "LatinBelow.mark" 310 0 basechar 0
LayerCount: 2
Fore
SplineSet
505 1018 m 1
 325 870 l 1
 295 870 l 1
 115 1018 l 1
 149 1055 l 1
 310 958 l 1
 471 1055 l 1
 505 1018 l 1
115 780 m 0
 115 822 147 848 189 848 c 0
 231 848 263 822 263 780 c 0
 263 738 231 712 189 712 c 0
 147 712 115 738 115 780 c 0
358 780 m 0
 358 822 390 848 432 848 c 0
 474 848 505 822 505 780 c 0
 505 738 474 712 432 712 c 0
 390 712 358 738 358 780 c 0
65 187 m 2
 65 600 l 1
 178 600 l 1
 178 187 l 2
 178 101 235 63 310 63 c 0
 385 63 442 101 442 187 c 2
 442 600 l 1
 555 600 l 1
 555 187 l 2
 555 72 461 -19 310 -19 c 0
 159 -19 65 72 65 187 c 2
EndSplineSet
EndChar

StartChar: uni01DB
Encoding: 475 475 336
Width: 770
GlyphClass: 2
Flags: W
AnchorPoint: "LatinBelow.mark" 385 0 basechar 0
LayerCount: 2
Fore
SplineSet
230 1158 m 1
 279 1235 l 1
 495 1070 l 1
 464 1025 l 1
 230 1158 l 1
190 930 m 0
 190 972 222 998 264 998 c 0
 306 998 338 972 338 930 c 0
 338 888 306 862 264 862 c 0
 222 862 190 888 190 930 c 0
433 930 m 0
 433 972 465 998 507 998 c 0
 549 998 580 972 580 930 c 0
 580 888 549 862 507 862 c 0
 465 862 433 888 433 930 c 0
80 240 m 2
 80 780 l 1
 202 780 l 1
 202 240 l 2
 202 127 279 71 385 71 c 0
 491 71 568 127 568 240 c 2
 568 780 l 1
 690 780 l 1
 690 240 l 2
 690 93 571 -18 385 -18 c 0
 199 -18 80 93 80 240 c 2
EndSplineSet
EndChar

StartChar: uni01DC
Encoding: 476 476 337
Width: 620
GlyphClass: 2
Flags: W
AnchorPoint: "LatinBelow.mark" 310 0 basechar 0
LayerCount: 2
Fore
SplineSet
155 1008 m 1
 204 1085 l 1
 420 920 l 1
 389 875 l 1
 155 1008 l 1
115 780 m 0
 115 822 147 848 189 848 c 0
 231 848 263 822 263 780 c 0
 263 738 231 712 189 712 c 0
 147 712 115 738 115 780 c 0
358 780 m 0
 358 822 390 848 432 848 c 0
 474 848 505 822 505 780 c 0
 505 738 474 712 432 712 c 0
 390 712 358 738 358 780 c 0
65 187 m 2
 65 600 l 1
 178 600 l 1
 178 187 l 2
 178 101 235 63 310 63 c 0
 385 63 442 101 442 187 c 2
 442 600 l 1
 555 600 l 1
 555 187 l 2
 555 72 461 -19 310 -19 c 0
 159 -19 65 72 65 187 c 2
EndSplineSet
EndChar

StartChar: Gcaron
Encoding: 486 486 338
Width: 770
GlyphClass: 2
Flags: W
AnchorPoint: "LatinBelow.mark" 410 0 basechar 0
LayerCount: 2
Fore
SplineSet
605 988 m 1
 425 840 l 1
 395 840 l 1
 215 988 l 1
 249 1025 l 1
 410 928 l 1
 571 1025 l 1
 605 988 l 1
419 302 m 1
 419 388 l 1
 710 388 l 1
 710 137 l 1
 677 71 585 -19 412 -19 c 0
 140 -19 60 190 60 374 c 2
 60 406 l 2
 60 590 140 799 412 799 c 0
 612 799 700 670 715 589 c 1
 593 577 l 1
 582 634 524 709 412 709 c 0
 259 709 183 592 183 406 c 2
 183 374 l 2
 183 188 259 71 412 71 c 0
 519 71 572 112 600 151 c 1
 600 302 l 1
 419 302 l 1
EndSplineSet
EndChar

StartChar: gcaron
Encoding: 487 487 339
Width: 670
GlyphClass: 2
Flags: W
AnchorPoint: "LatinBelow.mark" 360 -180 basechar 0
LayerCount: 2
Fore
SplineSet
555 838 m 1
 375 690 l 1
 345 690 l 1
 165 838 l 1
 199 875 l 1
 360 778 l 1
 521 875 l 1
 555 838 l 1
55 315 m 0
 55 448 120 614 307 614 c 0
 391 614 448 565 485 506 c 1
 494 600 l 1
 590 600 l 1
 590 -26 l 2
 590 -143 495 -229 348 -229 c 0
 203 -229 126 -158 110 -114 c 1
 215 -85 l 1
 223 -109 265 -151 348 -151 c 0
 428 -151 484 -112 484 -26 c 2
 484 122 l 1
 447 64 390 16 307 16 c 0
 120 16 55 182 55 315 c 0
480 372 m 1
 460 453 410 531 320 531 c 0
 223 531 168 451 168 315 c 0
 168 179 223 99 320 99 c 0
 410 99 460 177 480 258 c 1
 480 372 l 1
EndSplineSet
MultipleSubs2: "Latin.g.decomp subtable" g.alt uni030C
EndChar

StartChar: uni01EA
Encoding: 490 490 340
Width: 820
GlyphClass: 2
Flags: W
AnchorPoint: "LatinAbove.mark" 410 150 basechar 0
LayerCount: 2
Fore
SplineSet
410 71 m 0
 563 71 637 189 637 372 c 2
 637 408 l 2
 637 591 563 709 410 709 c 0
 257 709 183 591 183 408 c 2
 183 372 l 2
 183 189 257 71 410 71 c 0
60 372 m 2
 60 408 l 2
 60 590 138 799 410 799 c 0
 682 799 760 590 760 408 c 2
 760 372 l 2
 760 215 702 38 512 -8 c 1
 489 -38 471 -78 471 -132 c 0
 471 -180 496 -196 526 -196 c 0
 554 -196 579 -186 589 -180 c 1
 608 -234 l 1
 582 -247 551 -255 513 -255 c 0
 437 -255 398 -209 398 -142 c 0
 398 -92 415 -51 438 -18 c 1
 429 -19 420 -19 410 -19 c 0
 138 -19 60 190 60 372 c 2
EndSplineSet
EndChar

StartChar: uni01EB
Encoding: 491 491 341
Width: 660
GlyphClass: 2
Flags: W
AnchorPoint: "LatinAbove.mark" 330 0 basechar 0
LayerCount: 2
Fore
SplineSet
330 63 m 0
 435 63 492 146 492 286 c 2
 492 314 l 2
 492 454 435 537 330 537 c 0
 225 537 168 454 168 314 c 2
 168 286 l 2
 168 146 225 63 330 63 c 0
55 286 m 2
 55 314 l 2
 55 452 113 619 330 619 c 0
 547 619 605 452 605 314 c 2
 605 286 l 2
 605 174 567 42 436 -3 c 1
 411 -34 391 -75 391 -132 c 0
 391 -180 416 -196 446 -196 c 0
 474 -196 499 -186 509 -180 c 1
 528 -234 l 1
 502 -247 471 -255 433 -255 c 0
 357 -255 318 -209 318 -142 c 0
 318 -92 335 -51 358 -18 c 1
 349 -19 340 -19 330 -19 c 0
 113 -19 55 148 55 286 c 2
EndSplineSet
EndChar

StartChar: uni0218
Encoding: 536 536 342
Width: 710
GlyphClass: 2
Flags: W
AnchorPoint: "LatinAbove.mark" 355 150 basechar 0
LayerCount: 2
Fore
SplineSet
361 -202 m 1
 354 -204 345 -205 337 -205 c 0
 299 -205 270 -182 270 -144 c 0
 270 -102 297 -70 345 -70 c 0
 409 -70 430 -120 430 -164 c 0
 430 -264 361 -322 305 -345 c 1
 277 -308 l 1
 311 -294 350 -258 361 -202 c 1
55 179 m 1
 174 196 l 1
 184 137 242 68 355 68 c 0
 475 68 538 118 538 200 c 0
 538 276 483 305 441 317 c 0
 384 333 297 360 239 381 c 0
 168 407 73 466 73 579 c 0
 73 706 187 799 355 799 c 0
 533 799 620 683 635 605 c 1
 516 588 l 1
 505 646 449 712 355 712 c 0
 254 712 190 661 190 584 c 0
 190 521 242 497 291 478 c 0
 346 458 431 432 483 416 c 0
 564 391 655 331 655 206 c 0
 655 78 542 -19 355 -19 c 0
 161 -19 70 99 55 179 c 1
EndSplineSet
EndChar

StartChar: uni0219
Encoding: 537 537 343
Width: 570
GlyphClass: 2
Flags: W
AnchorPoint: "LatinAbove.mark" 285 0 basechar 0
LayerCount: 2
Fore
SplineSet
291 -202 m 1
 284 -204 275 -205 267 -205 c 0
 229 -205 200 -182 200 -144 c 0
 200 -102 227 -70 275 -70 c 0
 339 -70 360 -120 360 -164 c 0
 360 -264 291 -322 235 -345 c 1
 207 -308 l 1
 241 -294 280 -258 291 -202 c 1
45 139 m 1
 155 153 l 1
 162 109 206 61 289 61 c 0
 371 61 417 99 417 156 c 0
 417 210 374 232 345 241 c 0
 300 254 237 272 193 288 c 0
 136 309 61 350 61 444 c 0
 61 544 149 619 285 619 c 0
 431 619 498 528 509 465 c 1
 399 450 l 1
 392 494 356 539 285 539 c 0
 214 539 169 504 169 448 c 0
 169 403 210 381 242 370 c 0
 285 356 350 337 387 326 c 0
 453 306 525 264 525 160 c 0
 525 59 434 -19 285 -19 c 0
 128 -19 57 74 45 139 c 1
EndSplineSet
EndChar

StartChar: uni021A
Encoding: 538 538 344
Width: 620
GlyphClass: 2
Flags: W
AnchorPoint: "LatinAbove.mark" 310 150 basechar 0
LayerCount: 2
Fore
SplineSet
316 -202 m 1
 309 -204 300 -205 292 -205 c 0
 254 -205 225 -182 225 -144 c 0
 225 -102 252 -70 300 -70 c 0
 364 -70 385 -120 385 -164 c 0
 385 -264 316 -322 260 -345 c 1
 232 -308 l 1
 266 -294 305 -258 316 -202 c 1
30 691 m 1
 30 780 l 1
 590 780 l 1
 590 691 l 1
 370 691 l 1
 370 0 l 1
 250 0 l 1
 250 691 l 1
 30 691 l 1
EndSplineSet
EndChar

StartChar: uni021B
Encoding: 539 539 345
Width: 415
GlyphClass: 2
Flags: W
AnchorPoint: "LatinAbove.mark" 180 120 basechar 0
LayerCount: 2
Fore
SplineSet
286 -202 m 1
 279 -204 270 -205 262 -205 c 0
 224 -205 195 -182 195 -144 c 0
 195 -102 222 -70 270 -70 c 0
 334 -70 355 -120 355 -164 c 0
 355 -264 286 -322 230 -345 c 1
 202 -308 l 1
 236 -294 275 -258 286 -202 c 1
30 528 m 1
 30 600 l 1
 124 600 l 1
 124 726 l 1
 231 735 l 1
 231 600 l 1
 380 600 l 1
 380 528 l 1
 233 528 l 1
 233 144 l 2
 233 83 251 67 288 67 c 0
 329 67 368 82 383 92 c 1
 410 18 l 1
 381 2 334 -14 274 -14 c 0
 182 -14 120 26 120 128 c 2
 120 528 l 1
 30 528 l 1
EndSplineSet
EndChar

StartChar: uni0237
Encoding: 567 567 346
Width: 310
GlyphClass: 2
Flags: W
AnchorPoint: "LatinBelow.mark" 150 -180 basechar 0
AnchorPoint: "LatinAbove.mark" 160 0 basechar 0
LayerCount: 2
Fore
SplineSet
-5 -151 m 1
 63 -129 103 -95 103 -14 c 2
 103 600 l 1
 217 600 l 1
 217 -21 l 2
 217 -134 128 -198 31 -224 c 1
 -5 -151 l 1
EndSplineSet
EndChar

StartChar: uni0251
Encoding: 593 593 347
Width: 675
GlyphClass: 2
Flags: W
AnchorPoint: "LatinOgonek.mark" 565 0 basechar 0
AnchorPoint: "LatinBelow.mark" 360 0 basechar 0
AnchorPoint: "LatinAbove.mark" 360 0 basechar 0
LayerCount: 2
Fore
SplineSet
55 289 m 2
 55 311 l 2
 55 449 120 614 307 614 c 0
 391 614 448 567 485 508 c 1
 494 600 l 1
 590 600 l 1
 590 143 l 2
 590 87 604 66 655 60 c 1
 627 -14 l 1
 579 -8 503 15 497 110 c 1
 459 44 399 -14 307 -14 c 0
 120 -14 55 151 55 289 c 2
480 374 m 1
 460 455 410 531 320 531 c 0
 223 531 168 452 168 311 c 2
 168 289 l 2
 168 148 223 69 320 69 c 0
 410 69 460 145 480 226 c 1
 480 374 l 1
EndSplineSet
EndChar

StartChar: uni0259
Encoding: 601 601 348
Width: 640
GlyphClass: 2
Flags: W
AnchorPoint: "LatinBelow.mark" 320 0 basechar 0
AnchorPoint: "LatinAbove.mark" 320 0 basechar 0
LayerCount: 2
Fore
SplineSet
585 314 m 2
 585 286 l 2
 585 148 524 -19 313 -19 c 0
 140 -19 55 108 55 240 c 0
 55 267 58 294 63 321 c 1
 474 321 l 1
 472 456 416 539 313 539 c 0
 233 539 188 485 181 442 c 1
 72 452 l 1
 83 517 155 619 313 619 c 0
 528 619 585 453 585 314 c 2
473 249 m 1
 161 249 l 1
 161 239 l 2
 161 119 225 61 313 61 c 0
 408 61 464 132 473 249 c 1
EndSplineSet
EndChar

StartChar: uni0261
Encoding: 609 609 349
Width: 670
GlyphClass: 2
Flags: W
AnchorPoint: "LatinBelow.mark" 360 -180 basechar 0
AnchorPoint: "LatinAbove.mark" 360 0 basechar 0
LayerCount: 2
Fore
SplineSet
55 315 m 0
 55 448 120 614 307 614 c 0
 391 614 448 565 485 506 c 1
 494 600 l 1
 590 600 l 1
 590 -26 l 2
 590 -143 495 -229 348 -229 c 0
 203 -229 126 -158 110 -114 c 1
 215 -85 l 1
 223 -109 265 -151 348 -151 c 0
 428 -151 484 -112 484 -26 c 2
 484 122 l 1
 447 64 390 16 307 16 c 0
 120 16 55 182 55 315 c 0
480 372 m 1
 460 453 410 531 320 531 c 0
 223 531 168 451 168 315 c 0
 168 179 223 99 320 99 c 0
 410 99 460 177 480 258 c 1
 480 372 l 1
EndSplineSet
EndChar

StartChar: uni02BB
Encoding: 699 699 350
Width: 240
GlyphClass: 2
Flags: W
LayerCount: 2
Fore
SplineSet
200 642 m 0
 200 597 169 564 120 564 c 0
 52 564 25 621 25 678 c 0
 25 788 98 867 165 910 c 1
 200 863 l 1
 153 833 113 783 103 712 c 1
 109 713 116 714 123 714 c 0
 166 714 200 686 200 642 c 0
EndSplineSet
EndChar

StartChar: uni02BC
Encoding: 700 700 351
Width: 240
GlyphClass: 2
Flags: W
LayerCount: 2
Fore
SplineSet
25 808 m 0
 25 853 56 886 105 886 c 0
 173 886 200 829 200 772 c 0
 200 662 127 583 60 540 c 1
 25 587 l 1
 72 617 112 667 122 738 c 1
 116 737 109 736 102 736 c 0
 59 736 25 764 25 808 c 0
EndSplineSet
EndChar

StartChar: uni02BD
Encoding: 701 701 352
Width: 240
GlyphClass: 2
Flags: W
LayerCount: 2
Fore
SplineSet
200 808 m 0
 200 764 166 736 123 736 c 0
 116 736 109 737 103 738 c 1
 113 667 153 617 200 587 c 1
 165 540 l 1
 98 583 25 662 25 772 c 0
 25 829 52 886 120 886 c 0
 169 886 200 853 200 808 c 0
EndSplineSet
EndChar

StartChar: uni02BE
Encoding: 702 702 353
Width: 180
GlyphClass: 2
Flags: W
LayerCount: 2
Fore
SplineSet
145 765 m 0
 145 698 94 653 25 653 c 1
 25 705 l 1
 62 705 86 730 86 765 c 0
 86 800 62 825 25 825 c 1
 25 877 l 1
 94 877 145 832 145 765 c 0
EndSplineSet
EndChar

StartChar: uni02BF
Encoding: 703 703 354
Width: 180
GlyphClass: 2
Flags: W
LayerCount: 2
Fore
SplineSet
35 765 m 0
 35 832 86 877 155 877 c 1
 155 825 l 1
 118 825 94 800 94 765 c 0
 94 730 118 705 155 705 c 1
 155 653 l 1
 86 653 35 698 35 765 c 0
EndSplineSet
EndChar

StartChar: circumflex
Encoding: 710 710 355
Width: 510
GlyphClass: 2
Flags: W
LayerCount: 2
Fore
SplineSet
60 717 m 1
 240 865 l 1
 270 865 l 1
 450 717 l 1
 416 680 l 1
 255 777 l 1
 94 680 l 1
 60 717 l 1
EndSplineSet
EndChar

StartChar: caron
Encoding: 711 711 356
Width: 510
GlyphClass: 2
Flags: W
LayerCount: 2
Fore
SplineSet
450 838 m 1
 270 690 l 1
 240 690 l 1
 60 838 l 1
 94 875 l 1
 255 778 l 1
 416 875 l 1
 450 838 l 1
EndSplineSet
EndChar

StartChar: uni02C8
Encoding: 712 712 357
Width: 210
GlyphClass: 2
Flags: W
LayerCount: 2
Fore
SplineSet
65 680 m 1
 65 895 l 1
 145 895 l 1
 145 680 l 1
 65 680 l 1
EndSplineSet
EndChar

StartChar: uni02C9
Encoding: 713 713 358
Width: 510
GlyphClass: 2
Flags: W
LayerCount: 2
Fore
SplineSet
60 744 m 1
 60 816 l 1
 450 816 l 1
 450 744 l 1
 60 744 l 1
EndSplineSet
EndChar

StartChar: uni02CA
Encoding: 714 714 359
Width: 330
GlyphClass: 2
Flags: W
LayerCount: 2
Fore
SplineSet
305 828 m 1
 71 695 l 1
 40 740 l 1
 256 905 l 1
 305 828 l 1
EndSplineSet
EndChar

StartChar: uni02CB
Encoding: 715 715 360
Width: 330
GlyphClass: 2
Flags: W
LayerCount: 2
Fore
SplineSet
25 828 m 1
 74 905 l 1
 290 740 l 1
 259 695 l 1
 25 828 l 1
EndSplineSet
EndChar

StartChar: uni02CC
Encoding: 716 716 361
Width: 210
GlyphClass: 2
Flags: W
LayerCount: 2
Fore
SplineSet
65 -295 m 1
 65 -80 l 1
 145 -80 l 1
 145 -295 l 1
 65 -295 l 1
EndSplineSet
EndChar

StartChar: uni02D7
Encoding: 727 727 362
Width: 330
GlyphClass: 2
Flags: W
LayerCount: 2
Fore
SplineSet
15 403 m 1
 315 403 l 1
 315 317 l 1
 15 317 l 1
 15 403 l 1
EndSplineSet
EndChar

StartChar: breve
Encoding: 728 728 363
Width: 510
GlyphClass: 2
Flags: W
LayerCount: 2
Fore
SplineSet
60 837 m 1
 130 860 l 1
 142 817 171 765 255 765 c 0
 339 765 368 817 380 860 c 1
 450 837 l 1
 431 769 376 695 255 695 c 0
 134 695 79 769 60 837 c 1
EndSplineSet
EndChar

StartChar: dotaccent
Encoding: 729 729 364
Width: 330
GlyphClass: 2
Flags: W
LayerCount: 2
Fore
SplineSet
165 854 m 0
 210 854 245 826 245 780 c 0
 245 734 210 706 165 706 c 0
 120 706 85 734 85 780 c 0
 85 826 120 854 165 854 c 0
EndSplineSet
EndChar

StartChar: ring
Encoding: 730 730 365
Width: 330
GlyphClass: 2
Flags: W
LayerCount: 2
Fore
SplineSet
165 653 m 0
 96 653 45 698 45 765 c 0
 45 832 96 877 165 877 c 0
 234 877 285 832 285 765 c 0
 285 698 234 653 165 653 c 0
165 705 m 0
 202 705 226 730 226 765 c 0
 226 800 202 825 165 825 c 0
 128 825 104 800 104 765 c 0
 104 730 128 705 165 705 c 0
EndSplineSet
EndChar

StartChar: ogonek
Encoding: 731 731 366
Width: 330
GlyphClass: 2
Flags: W
LayerCount: 2
Fore
SplineSet
83 -142 m 0
 83 -56 135 4 178 42 c 1
 215 13 l 1
 184 -19 156 -65 156 -132 c 0
 156 -180 181 -196 211 -196 c 0
 239 -196 264 -186 274 -180 c 1
 293 -234 l 1
 267 -247 236 -255 198 -255 c 0
 122 -255 83 -209 83 -142 c 0
EndSplineSet
EndChar

StartChar: tilde
Encoding: 732 732 367
Width: 510
GlyphClass: 2
Flags: W
LayerCount: 2
Fore
SplineSet
60 738 m 1
 82 794 112 860 179 860 c 0
 232 860 262 829 284 809 c 0
 304 790 318 772 334 772 c 0
 364 772 383 829 392 853 c 1
 450 832 l 1
 429 776 398 710 331 710 c 0
 278 710 248 741 226 761 c 0
 206 780 192 798 176 798 c 0
 146 798 128 741 118 717 c 1
 60 738 l 1
EndSplineSet
EndChar

StartChar: hungarumlaut
Encoding: 733 733 368
Width: 510
GlyphClass: 2
Flags: W
LayerCount: 2
Fore
SplineSet
60 725 m 1
 173 915 l 1
 240 867 l 1
 101 695 l 1
 60 725 l 1
270 725 m 1
 383 915 l 1
 450 867 l 1
 311 695 l 1
 270 725 l 1
EndSplineSet
EndChar

StartChar: uni0300
Encoding: 768 768 369
Width: 0
GlyphClass: 4
Flags: W
AnchorPoint: "LatinAbove.mkmk" 0 180 basemark 0
AnchorPoint: "LatinAbove.mkmk" 0 0 mark 0
AnchorPoint: "LatinAbove.mark" 0 0 mark 0
LayerCount: 2
Fore
SplineSet
-155 828 m 1
 -106 905 l 1
 110 740 l 1
 79 695 l 1
 -155 828 l 1
EndSplineSet
EndChar

StartChar: uni0301
Encoding: 769 769 370
Width: 0
GlyphClass: 4
Flags: W
AnchorPoint: "LatinAbove.mkmk" 0 180 basemark 0
AnchorPoint: "LatinAbove.mkmk" 0 0 mark 0
AnchorPoint: "LatinAbove.mark" 0 0 mark 0
LayerCount: 2
Fore
SplineSet
155 828 m 1
 -79 695 l 1
 -110 740 l 1
 106 905 l 1
 155 828 l 1
EndSplineSet
EndChar

StartChar: uni0302
Encoding: 770 770 371
Width: 0
GlyphClass: 4
Flags: W
AnchorPoint: "LatinAbove.mkmk" 0 180 basemark 0
AnchorPoint: "LatinAbove.mkmk" 0 0 mark 0
AnchorPoint: "LatinAbove.mark" 0 0 mark 0
LayerCount: 2
Fore
SplineSet
-195 717 m 1
 -15 865 l 1
 15 865 l 1
 195 717 l 1
 161 680 l 1
 0 777 l 1
 -161 680 l 1
 -195 717 l 1
EndSplineSet
EndChar

StartChar: uni0303
Encoding: 771 771 372
Width: 0
GlyphClass: 4
Flags: W
AnchorPoint: "LatinAbove.mkmk" 0 180 basemark 0
AnchorPoint: "LatinAbove.mkmk" 0 0 mark 0
AnchorPoint: "LatinAbove.mark" 0 0 mark 0
LayerCount: 2
Fore
SplineSet
-195 738 m 1
 -173 794 -143 860 -76 860 c 0
 -23 860 7 829 29 809 c 0
 49 790 63 772 79 772 c 0
 109 772 128 829 137 853 c 1
 195 832 l 1
 174 776 143 710 76 710 c 0
 23 710 -7 741 -29 761 c 0
 -49 780 -63 798 -79 798 c 0
 -109 798 -127 741 -137 717 c 1
 -195 738 l 1
EndSplineSet
EndChar

StartChar: uni0304
Encoding: 772 772 373
Width: 0
GlyphClass: 4
Flags: W
AnchorPoint: "LatinAbove.mkmk" 0 180 basemark 0
AnchorPoint: "LatinAbove.mkmk" 0 0 mark 0
AnchorPoint: "LatinAbove.mark" 0 0 mark 0
LayerCount: 2
Fore
SplineSet
-195 744 m 1
 -195 816 l 1
 195 816 l 1
 195 744 l 1
 -195 744 l 1
EndSplineSet
EndChar

StartChar: uni0305
Encoding: 773 773 374
Width: 0
GlyphClass: 4
Flags: W
AnchorPoint: "LatinAbove.mkmk" 0 180 basemark 0
AnchorPoint: "LatinAbove.mkmk" 0 0 mark 0
AnchorPoint: "LatinAbove.mark" 0 0 mark 0
LayerCount: 2
Fore
SplineSet
-285 744 m 1
 -285 816 l 1
 285 816 l 1
 285 744 l 1
 -285 744 l 1
EndSplineSet
EndChar

StartChar: uni0306
Encoding: 774 774 375
Width: 0
GlyphClass: 4
Flags: W
AnchorPoint: "LatinAbove.mkmk" 0 180 basemark 0
AnchorPoint: "LatinAbove.mkmk" 0 0 mark 0
AnchorPoint: "LatinAbove.mark" 0 0 mark 0
LayerCount: 2
Fore
SplineSet
-195 837 m 1
 -125 860 l 1
 -113 817 -84 765 0 765 c 0
 84 765 113 817 125 860 c 1
 195 837 l 1
 176 769 121 695 0 695 c 0
 -121 695 -176 769 -195 837 c 1
EndSplineSet
EndChar

StartChar: uni0307
Encoding: 775 775 376
Width: 0
GlyphClass: 4
Flags: W
AnchorPoint: "LatinAbove.mkmk" 0 180 basemark 0
AnchorPoint: "LatinAbove.mkmk" 0 0 mark 0
AnchorPoint: "LatinAbove.mark" 0 0 mark 0
LayerCount: 2
Fore
SplineSet
0 854 m 0
 45 854 80 826 80 780 c 0
 80 734 45 706 0 706 c 0
 -45 706 -80 734 -80 780 c 0
 -80 826 -45 854 0 854 c 0
EndSplineSet
EndChar

StartChar: uni0308
Encoding: 776 776 377
Width: 0
GlyphClass: 4
Flags: W
AnchorPoint: "LatinAbove.mkmk" 0 180 basemark 0
AnchorPoint: "LatinAbove.mkmk" 0 0 mark 0
AnchorPoint: "LatinAbove.mark" 0 0 mark 0
LayerCount: 2
Fore
SplineSet
-195 780 m 0
 -195 822 -163 848 -121 848 c 0
 -79 848 -47 822 -47 780 c 0
 -47 738 -79 712 -121 712 c 0
 -163 712 -195 738 -195 780 c 0
48 780 m 0
 48 822 80 848 122 848 c 0
 164 848 195 822 195 780 c 0
 195 738 164 712 122 712 c 0
 80 712 48 738 48 780 c 0
EndSplineSet
EndChar

StartChar: uni0309
Encoding: 777 777 378
Width: 0
GlyphClass: 4
Flags: W
AnchorPoint: "LatinAbove.mkmk" 0 180 basemark 0
AnchorPoint: "LatinAbove.mkmk" 0 0 mark 0
AnchorPoint: "LatinAbove.mark" 0 0 mark 0
LayerCount: 2
Fore
SplineSet
-110 871 m 1
 -82 887 -47 898 3 898 c 0
 64 898 110 867 110 810 c 0
 110 722 37 694 -29 673 c 1
 -48 711 l 1
 3 733 40 754 40 797 c 0
 40 823 25 836 -10 836 c 0
 -43 836 -81 823 -103 812 c 1
 -110 871 l 1
EndSplineSet
EndChar

